<?xml version="1.0" encoding="iso-8859-1"?>
<!-- Generator: Adobe Illustrator 23.0.1, SVG Export Plug-In . SVG Version: 6.00 Build 0)  -->
<svg version="1.1" id="Layer_1" xmlns="http://www.w3.org/2000/svg" xmlns:xlink="http://www.w3.org/1999/xlink" x="0px" y="0px" width="398px" height="375.1px" viewBox="0 0 398 375.1" enable-background="new 0 0 398 375.1" xml:space="preserve">
  <g>
    <g>
      <path fill="none" d="M323.9,70.6c-0.1,0.1-0.2,0.2-0.3,0.3l0,0c-0.2,0-0.4,0.2-0.5,0.4l0,0c-0.4,0.2-0.7,0.5-0.9,0.9l0,0.1
			c-2.3,2-3.6,4.7-5.2,7.2c0.2,0,0.4,0,0.5-0.1c7.8-6.8,16.3-7.8,25.5-3c4.2,2.2,8.4,4.6,12.6,6.8c3.5,1.9,7.3,2.6,11.2,1.8
			c1.9-0.4,3.8-0.8,5.6-1.3c6.7-1.9,13.3-1.7,19.6,1.5c1.9,1,4,1.6,6,2.5c-1.3-1.7-2.7-3.3-4.3-4.6c-2.3-2.2-4.8-3.9-7.5-5.5
			c-2.8-1.6-5.8-2.4-9-2.5c-4.1-0.1-8.2-0.4-12.3-0.8c-6-0.6-10.3-4.2-14.5-8c1.5,0.2,2.9-0.2,4.3-0.6c3.5-0.9,5.9-2.9,7.1-6.4
			c0.9-2.6,1.9-5.1,2.9-7.7c0.1-0.3,0.4-0.6,0.1-1c-0.8,0.9-1.5,1.8-2.2,2.6c-3.2,3.6-7.4,5.4-12.1,6.1c-5.4,0.9-10.7,2.3-15.7,4.7
			c-3.7,1.8-7.4,3.5-10.5,6.3C324.1,70.4,324,70.5,323.9,70.6L323.9,70.6z M99.2,239.4c0.1-0.1,0.2-0.2,0.3-0.3l0,0
			c0.2,0,0.4-0.2,0.5-0.4c0.7-0.5,1.3-1.1,1.8-1.9c0.2-0.1,0.3-0.3,0.3-0.5l0,0c0.1-0.1,0.2-0.2,0.3-0.3c2.7-3.4,4.3-7.2,5.3-11.4
			c0.3-0.3,0.3-0.6,0.3-1l0-0.1c0.3-0.3,0.3-0.6,0.3-1l0,0c0.3-0.3,0.3-0.8,0.3-1.2l0,0c0.9-2.6,1.2-5.4,1.8-8.1
			c1.2-5,2.8-9.8,4.6-14.6c0.2-0.4,0.7-0.9-0.3-1.1c-4.1-0.9-7.9-0.5-10.8,2.9c-0.7,0.8-1.5,1.7-2.2,2.5c-3.9,4.6-7.8,9.3-12.5,13.1
			c-0.5,0.4-1,0.9-1.9,1.1c0.5-1.9,1-3.6,1.5-5.5c-0.8,0.3-1.3,0.5-1.8,0.7c-1.1,0.4-2.1,1.3-3.4,1.2l0,0c1-1.9,1.9-3.7,2.9-5.6
			c2.9-5.4,5.1-11.3,10.9-15.1c-2.1,0.3-3.9,0.5-5.7,0.3c-4.4-0.7-8.6-2-12.8-3.3c-4.8-1.4-9.2-0.4-12.9,3.1
			c-1.4,1.3-2.5,2.9-3.6,4.5c-2.1,2.9-4.2,5.9-7.1,8.1c-0.4,0.3-0.7,0.7-1.3,0.8c-0.2-0.4,0.1-0.6,0.2-0.8c2.3-2.9,4.3-6,5.7-9.3
			c3-6.8,10.4-11.8,19.2-10.3c3.1,0.5,6.1,1.2,9.2,1.6c5.1,0.6,9.7-0.2,13.8-3.5c2-1.6,4-3.1,6.1-4.6c2.1-1.5,4.3-3.1,7-3.4
			c0.6-0.1,1,0,1.6,0.1c0.5,0.1,0.9,0.5,1.4,0.2c-3-2.8-6.3-3.3-10.1-1.8c-1.8,0.7-3.6,1.4-5.3,2.2c-1,0.5-2,0.9-3.1,1.1
			c-6.5,1.3-11.9-1.4-17-4.9c2.7,1.2,5.5,2,8.4,2.8c2.5,0.7,4.8,0.8,6.9-1.1c0.9-0.9,2-1.5,3-2.2c2.7-1.9,5.1-4.1,8.2-5.3
			c5.9-2.3,11.5-2.5,16.7,1.8c0.3,0.8,1.1,1.3,1.6,2c0.9,1.2,0.9,1.2,1.7-0.1c3.8-6.5,7.4-13.1,11.5-19.4c0.2-0.3,0.6-0.5,0.5-1.1
			c-1.4,0.7-2.7,1.3-4.1,1.9c-7.8,3.6-15.9,6.6-24.5,7.7c-6.8,0.9-13.7,0.4-20.6,0c-7.3-0.5-14.5-0.8-21.7,0.5
			c-3.9,0.7-7.9,1.4-11.5,3.2c-0.1,0.1-0.2,0.1-0.4,0.2l0,0c-1.2,0.3-2.3,0.8-3.3,1.6l-0.1,0l-0.1,0.1c-0.2,0.1-0.3,0.2-0.5,0.3
			c-0.4,0.1-0.9,0.3-1.2,0.7l0,0.1l0-0.1c-0.4,0.1-0.8,0.3-1,0.6l0,0c-0.3,0-0.5,0.2-0.6,0.4l0,0c-0.3,0.1-0.7,0.2-0.7,0.6l0,0
			c-0.5-0.1-0.8,0.4-1.1,0.6c-3.1,2.4-5.9,5.1-8.3,8.1c-0.9,1.1-1.7,2.3-2.7,3.6c0.7-0.1,0.9-0.4,1.2-0.7c2.1-2.3,4.7-3.9,7.6-5
			c3.4-1.3,6.8-2.3,10.4-3c2.8-0.5,5.5-0.5,8.3,0.9c-0.7,0.4-1.3,0.7-1.9,1c-3.8,1.7-7.2,4.2-10.6,6.6c-3.1,2.2-5.3,5.1-6.9,8.5
			c-0.6,1.4-1.3,2.7-1.8,4.2c-2.2,6.2-4.4,12.5-6.6,18.8c-2.4,6.7-5.5,13.2-9.2,19.2c-4.2,6.8-9.7,12.3-16.3,16.7
			c-3.8,2.3-7.9,4.3-12.2,5.6c1.1-0.2,2.2-0.4,3.3-0.7c5.7-1.4,11.3-3.3,16.9-5.1c9.9-3,18-8.6,24.8-16.3c4.1-4.6,7.7-9.5,11.4-14.3
			c4.8-6.1,11-9.6,18.5-11c1-0.2,1.9-0.4,3.2-0.3c-1.1,0.8-1.9,1.4-2.8,2.1c-0.1,0.1-0.2,0.2-0.3,0.3l0,0c-0.2,0-0.4,0.1-0.5,0.3
			c-0.1,0.1-0.2,0.1-0.3,0.2c-0.9,0.7-1.8,1.3-2.7,2c-4.2,3.3-8.4,6.8-11.1,11.6c-5.4,9.3-7.1,19.6-7.3,30.1
			c-0.1,4.6,1.3,9,4.1,12.7l0,0c0.1,0.4,0.3,0.7,0.7,1c1.3,1.9,3,3.5,4.9,4.9c-3.3-11.5-0.2-21.5,6.3-30.9l0,0
			c0,0.2,0.1,0.5,0.1,0.7c-0.2,2.4-0.3,4.8-0.2,7.2c0.1,2.6,0.8,5.1,2.3,7.3c0.7,1.1,1.3,2.2,2.3,3.3c0-0.9,0-1.5,0-2.1
			c0-0.1-0.1-0.3-0.1-0.4c0.2-0.7,0.2-1.4,0.1-2.1c0.1-0.5,0.1-1.1,0.2-1.6c0.5-4.1,3-7,6-9.6c1.6-1.3,3.1-2.7,4.8-3.9
			c6.7-5,10.3-11.8,11.2-20c0.1,0,0.2,0,0.2-0.1c0.1,0.1,0.1,0.1,0.2,0.2c0.1,0.6,0.2,1.1,0.4,1.7c0.9,4.1,1.3,8.2-0.6,12.2
			c-1.5,3.2-3.1,6.2-5,9.1c-0.3,0.4-0.6,0.7-0.7,1.5c2.5-0.7,4.8-1.4,6.8-3l0,0c0.4-0.1,0.6-0.2,0.8-0.5l0,0
			c0.1-0.1,0.2-0.2,0.3-0.3l0,0C99,239.6,99.1,239.5,99.2,239.4L99.2,239.4z M122.5,12c-0.1-0.1-0.2-0.1-0.3-0.2c-1-0.6-2-1.2-3-1.8
			c-1.4-0.8-2.7-1.7-4.3-2.3c0,0-0.1-0.1-0.1-0.1c0,0,0,0.1,0,0.1c0,0,0.1,0,0.1,0c0.1,0.2,0.1,0.4,0.2,0.5
			c3.8,4.5,7.8,8.8,12.3,12.6c3.8,3.2,8,4.9,13,4.6c2.5-0.1,5.1-0.1,7.6-0.2c8.4-0.5,16.6,0.2,24.4,3.7c3.3,1.5,6.8,2.8,10.1,4.1
			c10.1,4,20.1,3.2,30.2,0c0.6-0.5,0-0.5-0.3-0.7c-3.2-1.5-6-3.4-8.9-5.3c-2.3-1.5-4.2-3.4-5.9-5.6c-1.5-2.1-3-4.1-4.6-6.1
			c-2.9-3.6-6.3-6.6-11-7.5c-1.6-0.3-3.2-0.9-4.9-0.5c-1.5,0-3.1,0-4.8,0.5c1.3,0.9,2.4,1.7,3.5,2.5c2.3,1.7,3.7,4,4.6,6.7
			c0.2,0.6,0.1,0.8-0.6,0.7l0,0c-0.1-0.1-0.2-0.1-0.3-0.2c0-0.1-0.1-0.1-0.2-0.1c-2.2-1.2-4.5-2.1-7-2.5c-5-0.7-9.9-0.9-14.9,0.3
			c-5.8,1.5-11.7,2.2-17.7,2.4c-3.6,0.1-7.1-0.4-10.3-2.2c-1.9-1-3.9-1.9-5.9-2.9l0,0c-0.2-0.3-0.5-0.4-0.9-0.5l0,0
			C122.9,12.1,122.7,12,122.5,12L122.5,12z M334,128.7c0-0.2-0.1-0.3-0.3-0.3l0,0c-0.2-0.2-0.3-0.4-0.5-0.6
			c-5.5-4.5-10.6-9.4-15.1-14.9c-2.8-3.4-5.9-6.4-9.7-8.7c-3.5-2-6.9-4-10.4-6.1c-4.5-2.7-8.4-6.1-11.6-10.3c-1-1.3-1.9-2.8-3-4.3
			c0.3,7.2,3.9,12.4,9.5,16.8c-5.2-0.3-9.7,0.4-14.2,2c-0.3,0.3-0.6,0.2-1,0.3c-1.7,0.2-3.4,0.6-5,1.4c3,0.1,5.7,1.2,8.3,2.3
			c1.5,0.6,3.1,1.3,4.6,1.7c7.6,2.4,14.3,6.3,19.8,12.2c4.1,4.5,9.4,7.1,15.5,8.2c4.2,0.8,8.5,1.1,12.8,1.1c0.5,0,1.1,0.1,1.7-0.2
			c-0.3-0.2-0.6-0.3-0.8-0.5C334.3,128.8,334.2,128.7,334,128.7L334,128.7z M299.8,325c0,0.2,0.1,0.3,0.2,0.3l0,0
			c0,0.3,0.2,0.4,0.4,0.5c1.5,2.3,2.7,4.8,4.3,7.5c0-0.6,0-0.8,0-1c-0.2-1.4-0.4-2.8-0.7-4.2c-2.3-11.1-6.9-21.1-13.1-30.5
			c-7.3-11-13-22.7-16.5-35.5c-2.3-8.3-3.8-16.8-2.2-25.4c1.7-9,4.4-17.7,8.3-26c0.7-1.6,1.4-3.1,2.2-4.9c-1.2,0.1-2,0.1-2.9,0.2
			c-6,0.3-12,0.5-18-0.4c-7.8-1.2-15-3.8-21.4-8.5c-0.1-0.1-0.1-0.1-0.2-0.2c0-0.1-0.1-0.1-0.2-0.2c-0.1-0.3-0.3-0.5-0.6-0.6l0,0
			c-0.1-0.1-0.2-0.2-0.3-0.3l0,0c-0.5-0.8-1.1-1.5-2-2.1l0,0c0-0.1,0-0.3-0.1-0.4c-2.3-2.7-4.6-5.3-6.9-8c-0.5-0.7-0.8-0.4-1.2,0.1
			c-2.3,2.4-4.4,5-6,8c-1.9,3.4-3.2,7.2-4.5,10.9c-4.9,13.7-3.9,27.3,0.2,40.8c2.6,8.4,7.6,15.4,13.9,21.4
			c9.3,8.9,19.6,16.4,30.1,23.7c6.3,4.3,12.7,8.5,18.2,13.8c2,2,4,4.1,5.9,6.1c1.9,2,3.9,3.8,5.6,5.9c2.3,2.8,4.6,5.7,6.9,8.5l0.1,0
			l-0.1,0C299.5,324.8,299.6,325,299.8,325L299.8,325z M319.5,204.2c0-0.2-0.1-0.3-0.3-0.3l0,0c-2.9-3.8-4.2-8.1-3.8-12.9
			c0.3-2.9,1.3-5.5,2.4-8.2c1.8,1.2,3.3,2.7,4.8,4.2c9,8.7,19,16.3,29.6,23.1c0.3,0.2,0.6,0.7,1.3,0.3c-2-1.8-3.9-3.7-5.9-5.5
			c-9.1-8.1-17.7-16.8-25.4-26.2c-0.4-0.4-0.8-0.8-0.7-1.5c0-1.3,0-2.6-0.1-3.9c-0.1-4-1.2-7.6-3.8-10.7c-3.1-3.8-8.8-6.6-13.8-7.3
			c0.2,0.4,0.6,0.5,1,0.7c3.7,2.2,6.7,5.1,9.1,8.7c2.6,4,1.2,11.7-4.6,13.8c-2.1,0.8-4.3,1.5-6.5,1.9c-5.3,1-10.5,1.8-15.9,0.8
			c-6.7-1.3-12.5-4.5-18.1-8.2c-0.2-0.1-0.2-0.4-0.3-0.6c10.7,3.5,22.9,1.5,28.7-4.3c-1.8,0.1-3.4,0-5.1-0.3
			c-4.7-0.8-9.2-2.2-13.6-4c-6.2-2.6-11.2-6.6-14.2-12.8c-2.8-5.9-3.6-12.3-3.1-18.8c0.4-5.3,2.2-10.3,4.3-15.1
			c0.1-0.1,0.4-0.2,0.4-0.4c0-0.4-0.4-0.2-0.6-0.2c-1.8,0.1-3.6,0.2-5.3,0.3c-6.6,0.4-12.3,2.9-16.5,8.2c-0.4,0.5-0.8,1.1-1.3,1.7
			c0.6-7,2.8-13.4,5.4-19.7c2.7-6.4,7.3-10.7,13.8-12.9c4.9-1.7,9.9-2.2,15-2c0.4,0,0.7,0,1.3,0c-0.9-0.7-1.7-0.9-2.5-1.1
			c-9-2.6-18.2-3.4-27.5-1.9c-7.1,1.1-13.2,4.3-17.9,9.9c-3.7,4.4-7.4,14.5-7.7,20.3c3.3-7.7,8.8-13.2,16.4-16.7
			c-2.8,3.8-4.8,8.1-6.1,12.6c-3.5,11.6-5,23.5-4.5,35.7c0.4,9.5,2.5,18.7,6.9,27.3c7.3,14.5,19,22.2,35.2,22.8
			c6.5,0.2,12.9-0.2,19.4-0.4c3.6-0.1,7.2-0.2,10.8-0.3c5.2-0.1,10,1.3,14.9,2.9c0.4,0.3,0.8,0.4,1.3,0.5c0.7,0.3,1.4,0.6,2.2,0.9
			c0.1,0.2,0.3,0.3,0.5,0.2c0.4,0.2,0.8,0.3,1.2,0.5c0.8,0.4,1.7,0.9,2.9,1.5C321.7,205.6,320.5,205,319.5,204.2L319.5,204.2z
			 M202,87L202,87c0.5,0.1,0.9-0.3,1.3-0.5c7.6-4.2,15.4-7.8,23.8-10c1.7-0.5,3.4-0.8,5.1-1.3c0-0.1,0-0.1,0-0.2
			c-0.8-0.2-1.7-0.4-2.5-0.6c-2-0.9-4.1-1-6.2-0.8c0.1-0.4,0.4-0.4,0.7-0.6c6.3-2.6,12.8-4.7,19.6-5.6c0.3,0,0.6,0,0.8-0.4
			c-1.5-0.8-3.2-1.3-4.9-1.4c-1-0.4-2.1-0.7-3.2-0.7c-1-0.3-1.9-0.4-2.9-0.3c-1.7-0.1-3.4-0.1-5.1,0c-4.4,0.1-8.7,0.6-13,1.5
			c-5.9,1.2-11.8,2.9-17.7,4c-5.1,1-10.1,2.3-15.3,2.2c-9.2-0.2-18.1-1.6-26.6-5.3c-2.8-1.2-5.7-1.8-8.7-1.6c-3-0.1-5.8,0.4-9,1.4
			c0.8,0.2,1.2,0.2,1.5,0.4c2.9,0.9,5.8,1.6,7.9,4c2.3,2.5,2.4,6.2,0.4,8.5c-1.1,0.4-2.1,0.9-3.2,1.3c-9.4,3.1-18.2,2.5-26.5-3.4
			c-2.8-2-5.7-3.8-8.7-5.5c-6.2-3.6-12.5-4-19-0.8c-4.6,2.3-8.7,5.2-12.8,8.3c-4.1,3.2-8.5,5.9-13.6,7.2c-4,0.7-8.1,0.7-12.5,0
			c1.8,1.4,3.5,1.9,5.3,2.1c5.2,0.7,10.3,0.2,15.4-0.7c4.9-0.9,9.9-1.4,14.9-1.2c5.4,0.2,10.2,1.8,14.2,5.6c0.9,0.8,1.8,1.6,2.6,2.5
			c4.2,4.5,9.6,7,15.5,8.4c1,0.2,2.1,0.3,3.2,0.9c-0.7,0.2-1.3,0.3-1.9,0.4c-0.5,0-0.9,0-1.4,0.1c-0.9,0-1.8,0-2.7,0
			c-0.6-0.1-1.2-0.1-1.9-0.2c-11.6-1.2-22.8,0.4-33.5,5c-5.2,2.2-9,5.8-11.7,10.7c-1.5,3-2.8,6-3.5,9.4c2.2-1.9,4.3-3.6,6.3-5.5
			c3.8-3.5,8.3-4.4,13.3-4.1c5.7,0.3,11.1,1.9,16.4,4c7.6,3,15.5,4.2,23.6,3.7c1.5-0.1,3-0.2,4.7-0.3c-0.3,0.3-0.3,0.4-0.4,0.5
			c-5.7,4.1-11.9,7.3-18.9,8.9c-2.6,0.6-4.8,1.9-6.6,3.8c-2.6,2.8-4.3,6.1-5.6,9.7c-0.1,0.3-0.4,0.6,0,1.1c0.3-0.6,1.1-0.4,1.4-0.9
			c1.1-0.2,2-0.9,3.1-1.3c4-1.7,8.1-1.8,12.3-0.9c2.3,0.5,4.6,1.2,6.9,1.3c4,0.3,7.7-0.7,11-3.1c4.7-3.4,9.7-6.3,15.5-7.7
			c0.7-0.2,1.1-0.6,1.5-1.2c2.9-3.8,6.1-7.2,9.5-10.5c1.5-1.5,3-3,4.5-4.5c-0.8-0.3-1.5-0.8-2.5-0.5c-3-0.4-5.8-1.4-8.8-1.5
			c-2.7-0.1-5.1,0.4-6.9,2.7c-0.5,0.6-1,1.1-1.5,1.7c0.3-3.3,1.4-6.2,4.4-8c3.8-2.3,8-3.5,12.4-3.7c1,0,2.1,0.1,3.1-0.5
			c-3.5-0.1-6.2-1.7-8.8-3.8c-1.4-1.1-3.1-1.3-4.8-1.3c-3.1,0.1-5.9,1.3-8.9,1.9c-2.4,0.5-3.6,0.5-4.8-0.2c0.4,0,0.6-0.1,0.9-0.1
			c3.3-0.1,6-1.4,8.2-3.8c1.2-1.3,2.5-2.4,4-3.4c2.1-1.4,4.3-1.8,6.7-1c1.9,0.7,3.8,1.3,5.6,2.1c3.2,1.3,6.4,1,9.5-0.2
			c0.9-0.3,1.6-0.8,1.6-1.9c0-1.1-0.4-1.9-1.3-2.5c-0.6-0.4-1.3-0.6-2-0.7c-0.3-0.1-0.7,0-0.9-0.4c2.2-0.8,4.4-1.1,6.6-0.4
			c2.3,0.7,4.8,0.9,7.2,0.8c-2.6-1.1-5.1-2.4-7.7-3.7c-5.9-2.9-8.6-8.2-10.8-14c0-0.1,0-0.3,0-0.4l0,0c0.6-0.1,1.1,0.2,1.7,0.4
			c4.1,1.6,8.3,2.4,12.6,2.6c3.5,0.2,7,0.1,10.5,0.7c3.7,0.6,7.4,1.2,10.2,4.2c0.3,0.4,0.6,0.2,0.9-0.1
			C201.7,87.5,201.9,87.3,202,87z M311.3,64.7c0.1,0.1,0.2,0.2,0.3,0.3c0,0.1-0.1,0.3-0.1,0.4c-3.3,4.2-6.9,8.1-11.5,10.9
			c-1.2,0.7-2.3,1.5-3.5,2.3c0.1,0.1,0.1,0.2,0.2,0.3c3.7-2.1,7.4-4.2,11.1-6.4c8.6-5.1,15.4-12,21.4-20c-3.2,0.5-6.3,1-9.4,1.4
			c-2.2,0.3-4.5,0.9-6.7,0.8c2.1-3.5,4.1-6.9,6.3-10.5c-0.7-0.1-1.1,0.3-1.6,0.5c-14.4,5-28.8,10.1-43.6,14c-5.8,1.5-11,4.2-15,9
			c-2.6,3.2-5,6.6-7.4,10c-0.1,0.2-0.3,0.3-0.1,0.6c1-0.9,2.3-1.1,3.5-0.7c1.9,0.7,3.3,0,4.6-1.2c4-3.6,8.7-6.2,13.6-8.4
			c3.2-1.4,6.4-2.8,9.7-4.3c7.4-3.2,15-6,22.7-8.3c0.1,0.1,0.1,0.1,0.2,0.2c-0.5,0.6-1.1,1.2-1.6,1.8c-3.3,3.4-6.1,7.1-8.2,11.3
			c-1.9,3.8-4.1,7.5-6.1,11.3c-0.2,0.3-0.7,0.5-0.3,1.1c2.9-2.5,5.4-5.5,8.1-8.1c1.3-0.4,2.5-1,3.8-1.7
			C305,69.6,308.1,67,311.3,64.7z M149.2,34c0-0.1,0-0.1-0.1-0.2C149.1,33.9,149.1,33.9,149.2,34C149.1,34,149.2,34,149.2,34
			c1.7,2.2,3.1,4.6,4.4,7c1.1,1.9,2.3,3.7,3.8,5.3c4.6,4.7,10,6.8,16.6,5.3c1.6-0.4,3.2-0.9,4.7-1.6c1.2-0.6,2.4-0.8,3.8-0.8
			c1.9,0,3.8,0.4,5.8,0.6c-1.8-4-4.3-7-9.1-7c-3.7,0-7.2-0.8-10.3-2.8c-0.1,0-0.2,0-0.4,0.1c1.2,2,2.2,4,4,5.7
			c-1.1,0.2-1.8-0.2-2.5-0.4c-3.2-1.2-6.1-2.7-8.9-4.5c-3.5-2.3-6.9-4.5-10.7-6.4C150,34.2,149.7,33.8,149.2,34z M385,211
			c-0.2-1.6-1-3-1.3-4.6c-0.6-2.9-1.7-5.3-4.3-6.9c-0.2-0.1-0.4-0.4-0.5-0.6c-1-1.5-0.4-3,1.4-3.2c0.8-0.1,1.6,0.1,2.4,0.3
			c0.7,0.4,0.5,0,0.4-0.4c-0.8-1.6-1.8-2.9-3.6-3.6c-2.2-0.8-4.5-1.4-6.8-2c-1.2-0.4-2.3-0.9-3.2-1.8c-4.5-4.3-8.8-8.9-13-13.4
			c-5.8-6.2-11.6-12.4-17.4-18.6c-1.1-1.3-2.2-2.5-3.3-3.8c-0.1,0.1-0.2,0.1-0.2,0.2c1.1,1.3,2.2,2.6,3.3,3.9
			c0.2,0.3,0.4,0.6,0.6,0.9c9.3,11.6,18.6,23.1,27.9,34.7c0.5,0.6,0.6,1.1,0.3,2c-1.5,5.1-0.7,7.8,3.4,10.2c1.4,0.8,2.9,1.8,4.5,2.1
			c4.1,0.8,6.8,3.4,9.1,6.6c0.5,0.6,0.9,1.4,1.9,1.9C385.9,213.2,385.5,212.1,385,211z M281.7,117L281.7,117c3.5,2.9,5.4,6.7,6.6,11
			c0.2,0.7,0.2,1.1-0.6,1.6c-2.4,1.4-4.3,3.5-5.4,6.1c-1.4,3.5-0.8,6.8,0.5,10.5c0.4-1.1,0.6-1.8,0.9-2.6c0.5-1.1,1.2-2.1,2.5-2.5
			c2.8-0.8,5.4-0.3,7.5,1.6c2.4,2.2,5.1,3.4,8.2,3.8c4.4,0.6,8.9,0.7,13.4,0.8c4.2,0.1,7.7,1.7,10.7,4.5c1.9,1.7,3.1,3.9,4.2,6.1
			c0.2,0.3,0.1,0.8,0.8,0.8c0.8-3.4,0.5-6.7-0.7-10c-0.7-3.5-2.1-6.6-4-9.5c-0.6-0.9-0.3-1.1,0.6-1.4c1.1-0.3,2.1-0.6,3.2-1
			c2.5-0.9,4.1-2.7,5.5-5.3c-0.8,0.3-1.3,0.4-1.7,0.6c-7,2.6-13.9,2.8-20.6-0.9c-5.2-2.8-10.1-6-15.2-9c-4.3-2.5-8.5-5.1-13.5-6
			c-1.5-0.3-3.1-0.8-4.8-0.4c0.5,0.2,1,0.5,1.5,0.7C281.3,116.9,281.4,117,281.7,117z M379.9,188.2c1.1,0.5,2.3,1,3.4,1.4
			c1.1,0.5,2.2,1,3.1,1.8c0.7,0.6,1.1,1.3,1,2.2c-0.2,1.6-0.5,3.2-1.5,4.5c-0.6,0.7-0.4,1.1,0,1.7c1.6,2.7,3.1,5.4,4,8.4
			c1.1,3.6,1.3,7.3,0.3,10.9c-0.3,1.2-0.9,1.8-2.2,2.2c-2,0.6-3.8,0.2-5.6-0.5c-3.4-1.3-6.9-2.4-10.6-2.5c-4.4,0-8.7,0.2-13,0.9
			c-2.3,0.3-4.6,0.7-6.7,1.7c-1.5,0.3-2.8,0.8-4.2,1.4c-2.9,1.3-2.9,1.3-1,3.7c0.1,0.1,0.2,0.3,0.3,0.4c0.4,0.7,1,1,1.9,0.9
			c1.2-0.1,2.4-0.1,3.6,0.1c6.1,0.9,11.6,3.4,17.3,5.5c0.7,0.2,0.7,0.5,0.3,1c-1.3,1.5-2.6,3-4.2,4.1c-1.5,1-3.1,2-5,1.5
			c-6.8-1.7-13.4-4.1-19.6-7.3c-2-1-3.7-2.4-5-4.3c-2.8-4.1-5.9-7.9-9.3-11.6c-6.9-7.7-14.5-11.8-24.5-13.1c3,1.5,5.6,3.2,8.4,4.7
			c9.2,4.9,16.3,12.1,22.2,20.7c1.8,2.6,3.8,5.2,5.6,7.8c1.5,2.4,3.6,3.7,6.3,4.3c6.2,1.4,12.5,2.1,18.9,2.5
			c1.6,0.1,2.8-0.5,3.8-1.5c2.6-2.6,5-5.5,7.4-8.3c0.4-0.5,0.4-0.8-0.1-1.3c-2.8-2.7-5.7-5.3-8.6-7.9c-0.5-0.5-1-0.9-1.8-1.6
			c3.2,0.1,5.9,0.9,8.5,1.9c3.8,1.5,7.5,3.1,11.4,4.1c1.1,0.3,2.1,0.2,3.1-0.2c2.3-0.9,4.4-2.2,6.6-3.2c1.7-0.8,2.3-2,2.1-3.9
			c-0.4-3.1-0.7-6.3,0.3-9.3c1.1-3.3,0.4-5.9-2.1-8.2c-2.3-2.1-2.2-4.5-0.9-7.1c0.6-1.2,0.7-2.4,0.6-3.6c-0.4-3.8-2.9-5.8-6.2-7.1
			c-3.1-1.3-6.4-1.9-9.7-2.5c-1.9-0.3-3.7-0.8-5.2-2c-2.2-1.7-4.4-3.5-6.2-5.7c-10.6-12.2-19.5-25.6-28.6-38.9
			c-0.3-0.5-0.3-0.8,0.1-1.3c1.3-1.5,2.3-3.2,3.3-4.8c1.5-2.2,1.4-4.5,0.1-6.7c-0.6-1-1.2-2-2-2.8c-3-3.6-6.3-6.9-9.8-9.8
			c-11.3-9.4-23.5-17.8-35.4-26.3c-0.3-0.2-0.6-0.5-1.1-0.2c2.4,2.4,4.7,4.9,7.3,7.1c8.3,7.3,16.7,14.4,24.8,21.9
			c3.7,3.4,7.6,6.6,10.9,10.4c3.4,3.9,3.6,6,0.8,10.3c-0.7,1.1-0.6,1.9,0,2.9c7.1,12.3,15.3,23.8,24.4,34.6
			c4.5,5.4,9.4,10.4,15.1,14.6C378.1,187.6,379,188,379.9,188.2z M279.6,37.7c-0.5,0.4-0.7-0.1-0.9-0.3c-1.9-1.5-4.1-2.3-6.5-2.6
			c-6.1-0.7-12.1-0.5-18.1,0.2c-5,0.6-9.9,1-14.9,0.1c-4.2-0.7-8.2-2.2-12-4c-0.3-0.2-0.8-0.9-1.1,0.1c-0.2,0.3-0.1,0.5,0,0.8
			c0.7,3.2,2.2,5.9,5,7.8c1.5,1,3.1,2.1,4.8,3.2c-1,0-1.9,0.1-2.7,0c-2.8-0.3-5.5,0.1-8.2,0.8c-6.1,1.5-11.9,4.1-17.6,6.5
			c-3.6,1.5-7.1,3.4-10.8,4.7c-5.6,2.1-11.4,3.5-17.5,3.1c5.2,1.5,10.2,3.6,15.5,4.5c2.9,0.6,5.9,0.5,8.8,0.2
			c8.5-0.8,16.9-2.3,25.3-4c3.3-0.7,6.7-1.2,10-1.5c6.1-0.6,11.2,2.2,16.2,5c1.2,0.7,2.1,0.7,3.2,0c3.8-2.5,8-4.2,12.6-4.5
			c0.9-0.1,1.9-0.1,2.8-0.2c-1.8-0.9-3.7-1.4-5.6-1.7c-3-1-6.1-2.1-9.1-3c-6.5-2-12-5.4-16.2-10.9c0.1-0.1,0.1-0.1,0.2-0.2
			c1.6,0.7,3.2,1.5,4.9,2c4.5,1.3,9.1,1.2,13.6,1.8c5.1,0.6,10.3,1,14.8,4.2c0,0,0.1-0.1,0.2-0.1c-0.5-1.1-1.1-2.1-1.6-3.2
			c-0.6-1.4-0.9-2.8-0.4-4.3c0.1-0.4,0-1,0.5-1.1c0.4-0.1,0.6,0.4,0.9,0.7c1.8,2.2,3.8,4.3,5.9,6.2c0.5,0.5,0.9,0.7,1.3-0.1
			c2.2-3.8,3.1-7.7,1.6-12c-0.3-0.9-0.8-1.8-0.8-2.9c2.5,1.7,4.7,3.5,6.3,5.9c1.3,1.8,1.6,3.8,1.1,6c-0.4,1.6-1.2,3.1-2.3,4.6
			c2.6-0.6,4.9-1.1,7.2-1.7c2.2-0.3,2.2-0.3,2.7-2.4c0.9-3.3,0.8-6.6-0.5-9.8c-1.8-4.2-5.1-7.1-8.8-9.4c-5.5-3.3-11.6-4.2-17.8-4.2
			c-5.3,0-10.5,0.2-15.8,0.3c-2.8,0-5.5,0.3-8.3-0.2c-2.6-1.3-4.8-3.1-6.9-5c-2.8-2.5-5.2-5.4-7.8-8c0-0.3-0.2-0.5-0.5-0.5
			c-0.1,0.3,0.1,0.5,0.3,0.7c0.8,2,2.2,3.7,3.3,5.5c3.7,6,9.1,9.9,15.6,12.5c3.3,1.3,6.7,1.5,10.1,2c3.9,0.6,7.8,1.1,11.4,2.7
			C275.8,33.1,278.3,34.8,279.6,37.7z M248.7,78c-4.1,0.5-8.1,1.3-12,2.4c-18.8,5.4-35,15.2-49.2,28.5
			c-16.2,15.2-30.2,32.3-42.5,50.8c-10.7,16.1-19.5,33.1-27.2,50.8c-6.6,15.1-10.6,30.7-12,47c-0.7,8.3-0.6,16.7,0,25
			c0.2,2.8,0.5,5.6,1.2,8.3c0.1,0.5,0.1,0.5,0.6,0.7c2.3-6.6,5.2-13,8.1-19.3c4.6-10.1,9.6-20,16.4-28.9c1.6-2.1,3.3-4.1,4.8-6.2
			c2.5-3.7,5.1-7.3,7.9-11.1c0.3,1.4,0.6,2.6,0.8,3.7c1.9,9,4.2,17.8,7.9,26.2c3.6,8.1,8,15.5,14.5,21.6c0.4,0.4,0.7,0.8,1.3,1
			c1.6-9.4,2.4-18.9,6.2-27.9c0.8,0.6,0.9,1.3,1.1,2c2.7,9,7.1,16.9,14.4,23c0.5,0.4,0.9,0.9,1.6,1.1c0.1-0.9,0.2-1.7,0.3-2.5
			c0.1-0.8,0.2-1.6,0.3-2.4c0.1,0.1,0.2,0.2,0.3,0.3c6.6,8.5,14.8,15.1,24.5,19.9c8.8,4.4,17.9,8.2,27.2,11.4
			c14.8,5.2,29.4,11.1,43.1,18.8c4.9,2.7,9.7,5.6,13.9,9.5c0.2,0.2,0.4,0.2,0.6-0.1c-1.4-2-3.1-3.9-4.7-5.8
			c-7-8.2-14.4-15.9-22.9-22.5c-6.4-4.9-13.5-8.6-20.5-12.6c-11.6-6.5-23-13.4-33.7-21.5c-11.6-8.8-19.2-19.7-21.1-34.5
			c-1.4-10.7-0.9-21,2.9-31.2c3.5-9.4,8-18.1,15.5-25c0.4-0.3,0.9-0.6,1-1.4c-16.2-1.6-29.2,4.5-39.9,16.5c-0.3-1.6-0.2-3.1-0.2-4.6
			c-0.1-9.1,1.2-18,3-26.9c2.9-14.5,7-28.6,13.4-41.9c3.3-6.9,6.9-13.7,12.2-19.4c6.8-7.3,14.5-13.3,23.8-17.2
			c5.6-2.3,11.4-4.1,17.3-5.5c0.6,0.1,1-0.2,1.5-0.5C249.7,78,249.2,77.7,248.7,78z M80.3,60.5c-0.5,0.6-1.2,0.6-1.8,0.6
			c-5,0.1-9.7,1.4-14.3,3.6c-2.6,1.3-5.4,1.8-8.3,1.7c-3.7-0.1-7.2-1.2-10.7-2.2C38.7,62.2,32,61,25,61.3c-0.6,0-1.1,0.1-1.7,0.1
			c1.4,0.4,2.7,0.7,4,1.1c4.8,1.5,9.2,3.7,13.6,6.2c4.3,2.4,8.7,4.6,13.4,5.9c5.9,1.6,11.6,1.3,16.8-2.3c2.1-1.4,4.4-2.3,6.8-3
			c5.8-1.5,11.8-2.2,17.8-2.8c0.9-0.1,1-0.3,0.6-1.1C93.1,57.6,84.3,53,76,54.9c-3.9,0.9-7.6,2.5-11,4.7
			C70.2,58.6,75.3,59.6,80.3,60.5z M353.4,120c-0.1-2.1-0.7-3.7-1.2-5.4c-1.5-5.1-3.9-9.6-9-11.9c-0.9-0.4-1.7-0.9-2.6-1.3
			c-3.7-1.8-6.7-4.3-9-7.7c-1.2-1.8-2.5-3.5-3.8-5.1c-2.2-2.7-4.9-4.7-8.5-5.1c-2.6-0.3-5.2-0.2-7.9,0.1c-1.6,0.2-3.2,0.3-5,1.1
			c8.2,0.6,12.7,3.3,16.8,10.2c1.5,2.5,2.8,5.1,4.2,7.6c1.5,2.6,3.2,4.9,5.7,6.7c2.2,1.5,4.7,2.4,7.2,3.1c2.6,0.7,5.2,1.4,7.7,2.3
			c1.6,0.6,2.8,1.5,3.6,3C352.2,118.1,352.7,118.9,353.4,120z M90.8,275.8c-1.1-2.2-2.2-4.4-2.2-6.9c-0.1-4.1,0.5-8.1,1.1-12.1
			c0.1-0.9,0.5-1.8,0.2-2.9c-4.9,4.1-9.5,8.1-12.7,13.5c-2.6,4.3-3.7,8.9-3.1,14c0.3,2.7,0.4,5.4,0.2,8.1c-0.4,4.1-1.2,8.1-2.5,12.3
			c2.3-1.7,4.3-3.3,6.3-4.8c1.3-1,2.2-2.3,2.8-3.8c1.2-3.1,1.5-6.4,1.6-9.7c0.1-3.4-0.2-6.8,0.5-10.1c0.2-1,0.2-2,0.7-2.9
			C86.4,274.3,88.3,275.7,90.8,275.8z M62.2,146.6c-0.1-0.1-0.2-0.2-0.2-0.2c-0.6,0.5-1.3,0.9-1.9,1.4c-2.1,1.7-4.5,2.9-7,3.8
			c-3.6,1.4-7.4,1.7-11.3,2.1c-2.4,0.2-4.9,0.6-7.3,1.1c-6.5,1.2-10.7,5.2-13.9,10.7c-2.1,3.7-3.8,7.7-8.1,10.1
			c1.7,0.1,2.8-0.4,4.1-0.5c4.9-0.5,8.7-2.8,11.5-6.9c1.5-2.1,3.3-4,5.2-5.7c0.3-0.2,0.5-0.6,1.2-0.5c-1.3,1.9-1.7,3.9-1,6.4
			c2-3.8,5.5-4.8,9-6c2.9-1,5.7-2.3,8.4-3.7c2.7-1.4,5-3.2,6.8-5.7C59.2,150.8,60.7,148.7,62.2,146.6z M87.8,97.5
			c-1.6-0.6-3.2-0.8-4.9-1c-6.1-0.8-11.5,0.6-16,5c-0.5,0.5-1.1,1-1.6,1.6c-5,5.7-11.2,9.5-18.3,11.9c-3.4,1.2-6.3,3.1-9,5.5
			c-0.6,0.5-1.2,1.1-1.8,1.6c0.4,0,0.7-0.1,1-0.3c4.4-2.8,9-4.4,14.3-3.9c0.7,0.1,1.4,0,2.1,0c4.1,0.2,7.7-1.1,11-3.4
			c4.6-3.1,8.5-6.9,12.1-11.1C79.6,100.1,83.2,97.9,87.8,97.5z M301.2,48.3c3.9-2.8,7.9-5.3,11.4-8.7c4.6-4.5,5.9-9.9,3.8-16
			c-0.4-1.2-0.9-2.4-1.2-3.7c-0.7-3.2-0.2-6.4,0.7-9.5c0.1-0.4,0.5-1.1-0.5-0.8c-4.1,1.2-7.1,3.3-8.1,7.8c-0.9,3.8-0.5,7.5,0.4,11.2
			c1.5,5.8,0.5,11.1-3.3,15.9C303.3,45.8,302.2,47,301.2,48.3z M0,245.1c4.1,0.3,7.6-0.8,11.2-2c3.6-1.2,6.1-3.5,7.8-6.9
			c1.3-2.7,2.3-5.5,3-8.4c0.7-3.2,2.5-5.7,5-7.6c1.5-1.2,3.1-2.2,4.6-3.3c-1.2-0.1-2.4-0.2-3.5,0.1c-6.7,1.6-12.3,4.9-15.4,11.5
			c-1.2,2.6-2.5,5.1-3.7,7.7c-1.7,3.5-4.3,6.1-7.5,8.1C1.1,244.5,0.6,244.7,0,245.1z M30.3,287.5c0.3,0,0.5,0,0.8-0.1
			c3.6-1.4,7.2-2.8,10.7-4.6c4.7-2.5,7.5-6.3,7.7-11.8c0-1.2-0.1-2.5-0.2-3.7c-0.2-2.3,0.2-4.5,1-6.7c0.5-1.3,1.1-2.6,1.9-3.8
			c0.2-0.4,0.5-0.8-0.2-0.8c-3.1,0.4-6.3,0.6-8.3,3.6c-0.7,1-1.3,2.1-1.8,3.3c-1.3,3-1.5,6.1-1.5,9.3c-0.1,5.1-2.2,9.3-6.2,12.5
			C32.9,285.6,31.7,286.6,30.3,287.5z M237.9,1.5c3.9,0.7,7.2,2.7,10.1,5.2c1.9,1.7,3.9,3.3,5.8,4.9c3.7,3.2,9.6,2.2,12.8-0.4
			c-0.4-0.2-0.8-0.4-1.1-0.4c-3.2-0.7-5.9-2.3-8.5-4.4c-2.1-1.8-4.2-3.6-6.6-5.1c-1-0.6-2.1-1.3-3.3-1.3C244-0.2,241,0.5,237.9,1.5z
			 M275.1,78.7c0.4,0.3,0.9,0.2,1.3,0.3c2.7,0.4,5.4,0.6,7.7,2.3c0.8,0.6,0.9,0.3,1.1-0.5c0.7-2.8,1.8-5.5,3.3-8
			c1.7-2.8,4.1-5.2,6.1-7.7c0.3-0.3,0.7-0.6,0.8-1.2C286.2,67.4,278.8,72.9,275.1,78.7z M348.4,52.4c3.5-0.1,6.9-0.8,10-2.5
			c2-1.1,3.3-2.8,3.7-5.1c0.2-1.2,0.5-2.4,0.6-3.6c0.3-4.2,1.8-7.9,4.8-10.9c0.6-0.6,1.1-1.3,1.7-2c-0.1-0.1-0.1-0.2-0.2-0.3
			c-1,0.5-1.9,1-2.9,1.5c-3.6,1.9-6.1,4.7-6.6,9c-0.3,2.5-1.3,4.8-2.9,6.8C354.2,48.2,351.5,50.4,348.4,52.4z M119.3,49.1
			c0.6,0.8,1.4,1.5,1.9,2.4c2.4,3.7,5.9,5.1,10.1,4.3c2.9-0.5,5.2,0.5,7.5,2.1c0.9,0.7,1.8,1.3,3,2.2c-0.4-2-0.1-4-1.3-5.5
			c-1.7-2.2-3.7-3.7-6.5-3.9c-1.3-0.1-2.7-0.3-4-0.2C126.4,50.5,122.8,50.2,119.3,49.1z M296.2,62.1c-10.7,2.3-30,11.8-33.2,16.2
			c3,0.2,5.9-0.5,8.9,0.3c0.5,0.1,0.6-0.3,0.8-0.5c1.9-1.8,3.7-3.6,5.6-5.4c3.7-3.3,7.6-6.3,12.3-8.2
			C292.5,63.8,294.3,63,296.2,62.1z M70,50.3c-2.8-4.4-5.1-5.7-10.1-5.7c-2.3,0-4.6-0.2-6.7-1.4c-1.2-0.7-2.5-1-4.1-1.2
			c0.8,0.9,1.6,1.6,2.2,2.4c2.5,3.3,5.6,5.1,9.9,4.8c0.3,0,0.7,0.1,1.1,0.1C64.8,49.7,67.4,50,70,50.3z M300.9,48.7
			C300.9,48.7,300.9,48.6,300.9,48.7c0.1-0.1,0-0.1,0-0.1C300.9,48.5,300.8,48.6,300.9,48.7C300.8,48.6,300.9,48.7,300.9,48.7z" />
      <path fill-rule="evenodd" clip-rule="evenodd" fill="#116636" d="M107.5,291.5c-0.4-0.1-0.4-0.1-0.6-0.7c-0.7-2.7-1.1-5.5-1.2-8.3
			c-0.5-8.3-0.7-16.7,0-25c1.4-16.3,5.5-32,12-47c7.7-17.7,16.5-34.8,27.2-50.8c12.3-18.5,26.3-35.6,42.5-50.8
			c14.2-13.3,30.4-23.1,49.2-28.5c3.9-1.1,7.9-2,12-2.4c0,0.1,0.1,0.2,0.1,0.3c-5.9,1.4-11.7,3.2-17.3,5.5
			c-9.3,3.9-16.9,9.9-23.8,17.2c-5.3,5.7-8.9,12.4-12.2,19.4c-6.4,13.4-10.5,27.4-13.4,41.9c-1.8,8.9-3.1,17.8-3,26.9
			c0,1.5,0,3.1,0.2,4.6c10.7-12,23.6-18,39.9-16.5c-0.1,0.7-0.6,1-1,1.4c-7.5,6.9-12,15.6-15.5,25c-3.8,10.2-4.3,20.5-2.9,31.2
			c1.9,14.8,9.5,25.7,21.1,34.5c10.7,8.1,22.1,14.9,33.7,21.5c7,3.9,14.1,7.6,20.5,12.6c8.5,6.6,15.9,14.3,22.9,22.5
			c1.6,1.9,3.3,3.7,4.7,5.8c-0.2,0.3-0.4,0.3-0.6,0.1c-4.1-3.9-9-6.7-13.9-9.5c-13.8-7.7-28.3-13.6-43.1-18.8
			c-9.3-3.3-18.4-7-27.2-11.4c-9.6-4.8-17.8-11.4-24.5-19.9c-0.1-0.1-0.2-0.2-0.3-0.3c0-0.1-0.1-0.3-0.1-0.4
			c-6.7-10.1-9.8-21.3-10.2-33.3c-0.1-3.4,0.3-6.7,0.7-10.1c1.3-10.1,4.3-19.8,8.5-29.1c0.4-0.9,1.1-1.8,1.1-3.1
			c-1.8,0.9-3.3,2.1-4.6,3.3c-5.7,5.2-9.5,11.7-12.6,18.6c-4.2,9.4-6.4,19.4-8.7,29.4c-0.4,1.8-0.8,3.6-1.2,5.6
			c-0.2-0.3-0.3-0.3-0.3-0.4c-1.5-7.8-2-15.8-2.2-23.7c-0.1-7.3-0.1-14.7-0.1-22c0-6.1-0.1-12.3,0.3-18.4c0.1-1.7,0.1-3.4,0.3-5.1
			c0.5-5.1,0.9-10.2,1.5-15.2c0.7-5.2,1.5-10.3,3.1-15.2c0.7-2.2,1.7-4.2,2.1-6.5c0,0,0.1-0.1,0.1-0.1c0,0-0.1,0-0.1,0
			c0,0,0,0.1,0,0.1c-0.5,0.6-1.1,1.1-1.6,1.8c-6.3,8-12.1,16.4-17.4,25.1c-6.5,10.6-12.3,21.7-17.7,32.9c-2.9,6.2-5.6,12.4-8.2,18.7
			c-4,9.9-7.6,19.9-10.9,30c-1.5,4.6-2.9,9.2-4,14c-0.8,3.2-1.3,6.4-1.9,9.6C108.1,282.6,107.6,287.1,107.5,291.5z" />
      <path fill-rule="evenodd" clip-rule="evenodd" fill="#F0B11E" d="M120.8,104.7c0.6-0.1,1.1-0.2,1.9-0.4c-1.1-0.6-2.2-0.6-3.2-0.9
			c-5.9-1.4-11.3-3.8-15.5-8.4c-0.8-0.9-1.8-1.6-2.6-2.5c-3.9-3.9-8.8-5.4-14.2-5.6c-5-0.2-9.9,0.4-14.9,1.2
			c-5.1,0.9-10.2,1.4-15.4,0.7c-1.8-0.2-3.5-0.7-5.3-2.1c4.4,0.7,8.5,0.7,12.5,0c0.3,0.3,0.6,0.3,1,0.2c5.1-1.1,10-2.6,14.4-5.6
			c4.1-2.8,8.2-5.4,12.8-7.3c2.4-1,4.8-1.6,7.3-1.7c2.4-0.1,4.6,0.8,6.7,2c3,1.8,6,3.6,9,5.5c4.1,2.6,8,5.5,13.1,6.2
			c5.6,0.8,10.7-0.1,15.6-2.5c1.7-0.8,3.3-1.9,3.9-3.9c2-2.3,1.9-6-0.4-8.5c-2.1-2.3-5-3.1-7.9-4c-0.4-0.1-0.8-0.2-1.5-0.4
			c3.2-1,6.1-1.4,9-1.4c0.2,0.6,0.7,0.6,1.2,0.7c1.2,0.3,2.3,0.7,3.4,1.1c3.1,1.2,5.9,3,9,4.4c4.5,2.1,9.2,3.6,14.2,3.8
			c7.6,0.3,15.2-0.1,22.6-2c6.8-1.7,13.5-4,20.4-5.7c3.5-0.9,7-1.5,10.6-1.7c2.3-0.2,4.7-0.4,7-0.5c0.5,0,0.9-0.1,1-0.7
			c1.1,0,2.2,0.3,3.2,0.7c-0.9,0.2-1.7,0.3-2.6,0.5c-6,1.2-11.3,3.8-16.2,7.9c1-0.2,1.9-0.3,2.7-0.4c2.1-0.2,4.2-0.1,6.2,0.8
			c-1.6,0.5-3.3,0.3-5,0.7c-7.6,1.8-14.8,4.1-20.8,9.4c-0.8,0.7-1.8,1.3-2.1,2.5l0,0c-0.4,0-0.5,0.2-0.6,0.5
			c-0.3,0.3-0.5,0.5-0.9,0.1c-2.7-3-6.4-3.6-10.2-4.2c-3.5-0.6-7-0.5-10.5-0.7c-4.4-0.2-8.6-1.1-12.6-2.6c-0.5-0.2-1.1-0.5-1.7-0.4
			c0,0,0-0.1,0-0.1c0,0-0.1,0-0.1,0c0,0,0.1,0,0.1,0.1c0,0.1-0.1,0.3,0,0.4c2.2,5.8,4.9,11.1,10.8,14c2.5,1.2,5.1,2.5,7.7,3.7
			c-2.5,0.1-4.9,0-7.2-0.8c-2.2-0.7-4.4-0.4-6.6,0.4c0.2,0.4,0.6,0.4,0.9,0.4c0.7,0.1,1.4,0.3,2,0.7c0.9,0.6,1.3,1.4,1.3,2.5
			c0,1.1-0.8,1.5-1.6,1.9c-3.1,1.3-6.3,1.6-9.5,0.2c-1.9-0.8-3.8-1.4-5.6-2.1c-2.4-0.9-4.6-0.5-6.7,1c-1.5,1-2.8,2.1-4,3.4
			c-2.2,2.4-4.9,3.8-8.2,3.8c-0.3,0-0.5,0.1-0.9,0.1c1.2,0.6,2.4,0.6,4.8,0.2c3-0.6,5.8-1.8,8.9-1.9c1.8,0,3.4,0.2,4.8,1.3
			c2.6,2.1,5.3,3.7,8.8,3.8c-1,0.6-2.1,0.4-3.1,0.5c-4.5,0.2-8.6,1.4-12.4,3.7c-3,1.8-4,4.7-4.4,8c0.5-0.6,1-1.1,1.5-1.7
			c1.8-2.3,4.2-2.8,6.9-2.7c3,0.1,5.8,1.2,8.8,1.5c-0.1,0.5-0.5,0.8-0.9,1.1c-3.8,3.3-7.4,6.6-11,10.1c-0.8,0.8-1.7,1.9-3.1,2
			c-5.5,0.7-10.2,3.2-14.5,6.5c-2.7,2-5.7,3.1-9.1,3.2c-3.3,0-6.5-0.3-9.7-0.3c-4.5-0.1-8.4,1.3-12,3.8c-0.7,0.5-1.4,0.9-1.6,1.9
			c-0.3,0.6-1.1,0.4-1.4,0.9c-0.4-0.5-0.1-0.8,0-1.1c1.3-3.6,3-6.9,5.6-9.7c1.8-1.9,4-3.2,6.6-3.8c6.9-1.6,13.1-4.8,18.9-8.9
			c0.1-0.1,0.2-0.2,0.4-0.5c-1.7,0.1-3.2,0.2-4.7,0.3c-8.1,0.5-16-0.7-23.6-3.7c-5.3-2.1-10.7-3.7-16.4-4c-4.9-0.3-9.5,0.6-13.3,4.1
			c-2,1.8-4.1,3.6-6.3,5.5c0.7-3.5,2.1-6.5,3.5-9.4c0.3,0,0.6-0.3,0.8-0.5c4-3.8,8.5-6.8,13.8-8.7c3.8-1.4,7.7-2.4,11.7-2.9
			c2.5-0.3,5-0.4,7.6-0.6c3.9-0.2,7.9-0.6,11.8-1C117.3,106.3,119.1,105.7,120.8,104.7z" />
      <path fill-rule="evenodd" clip-rule="evenodd" fill="#F0B11E" d="M97.8,240.4c-2,1.6-4.3,2.4-6.8,3c0-0.7,0.4-1.1,0.7-1.5
			c1.9-2.9,3.6-6,5-9.1c1.9-4,1.5-8.1,0.6-12.2c-0.1-0.6-0.2-1.1-0.4-1.7c-0.1-0.1-0.1-0.1-0.2-0.2c0,0.1-0.1,0.2-0.2,0.1
			c-1.3,1.3-1.8,3.1-2.5,4.8c-1.5,3.1-3,6.3-5.4,8.8c-3.2,3.3-6.8,6-10.2,8.9c-5.2,4.4-5.9,8.6-4.7,14.4c0.1,0.3,0.3,0.3,0.5,0.3
			c0,0.1,0.1,0.3,0.1,0.4c0,0.6,0,1.2,0,2.1c-1.1-1.1-1.7-2.2-2.3-3.3c0.3-0.2,0.2-0.4,0.1-0.7c-0.6-2.8-1.3-5.5-1.2-8.4
			c0.1-1.9-0.4-3.7-1-5.4c0-0.2-0.1-0.5-0.1-0.7l0,0c-6.5,9.4-9.6,19.4-6.3,30.9c-1.9-1.5-3.5-3.1-4.9-4.9c-0.1-0.4-0.1-0.9-0.7-1
			c0,0,0,0,0,0c0.3-0.5,0-0.9-0.2-1.3c-2.6-5.8-2.4-12-1.7-18.1c0.5-4.1,1.5-8.1,2.6-12.1c1.4-4.5,3.2-8.8,6-12.7
			c2.8-3.9,5.9-7.5,9.4-10.9c0.4-0.4,1-0.7,0.9-1.4c0.1-0.1,0.2-0.1,0.3-0.2c0.2,0,0.5-0.1,0.5-0.3l0,0c0.1-0.1,0.2-0.2,0.3-0.3
			c0.8-0.6,1.7-1.3,2.8-2.1c-1.3-0.2-2.2,0.1-3.2,0.3c-7.5,1.4-13.8,4.9-18.5,11c-3.8,4.8-7.4,9.7-11.4,14.3
			c-6.8,7.7-15,13.2-24.8,16.3c-5.6,1.7-11.2,3.6-16.9,5.1c-1.1,0.3-2.2,0.5-3.3,0.7c4.3-1.3,8.3-3.3,12.2-5.6
			c0.4,0.6,0.9,0.1,1.2,0c1.1-0.5,2.1-1,3.1-1.6c5.1-3.1,9.2-7.2,12.8-11.9c6.3-8.2,11.1-17.1,14.6-26.8c1.4-3.9,2.6-7.8,4-11.7
			c2.1-5.8,5-11.1,9.6-15.4c1.9-1.8,3.7-3.6,5.5-5.5c0.3-0.3,0.8-0.6,0.8-1.2c0.6-0.3,1.2-0.6,1.9-1c-2.8-1.4-5.5-1.4-8.3-0.9
			c-3.5,0.7-7,1.7-10.4,3c-2.9,1.1-5.5,2.7-7.6,5c-0.2,0.3-0.4,0.7-1.2,0.7c1-1.3,1.8-2.5,2.7-3.6c2.4-3.1,5.2-5.8,8.3-8.1
			c0.3-0.3,0.6-0.7,1.1-0.6c0.1,0.2,0.1,0.4,0.3,0.5c0,0,0.1-0.1,0.1-0.1c0-0.3-0.3-0.2-0.5-0.3c0.1-0.4,0.4-0.5,0.7-0.6
			c0.2,0.9,0.7,0.6,1.2,0.3c2.4-1.2,4.8-2.3,7.4-3.1c3.4-1.1,6.8-1.3,10.3-1.6c4.5-0.4,9.1-0.5,13.6-0.1c6.2,0.5,12.3,0.9,18.5,0.9
			c2,0,4.1-0.2,6.1-0.2c2.1,0,4.2-0.3,6.4-0.5c7.1-0.8,13.4-3.5,19.1-7.6c0.2-0.2,0.4-0.6,0.8-0.2c0.3,0.3-0.1,0.6-0.3,0.8
			c-2.8,3.3-4.8,7.1-7.1,10.8c-0.5,0.8-0.6,1.8-1.7,2.1c-5.2-4.3-10.8-4.1-16.7-1.8c-3.1,1.2-5.5,3.4-8.2,5.3c-1,0.7-2.1,1.4-3,2.2
			c-2.1,2-4.4,1.8-6.9,1.1c-2.8-0.8-5.7-1.6-8.4-2.8c5.1,3.5,10.5,6.2,17,4.9c1.1-0.2,2.1-0.6,3.1-1.1c1.7-0.8,3.5-1.6,5.3-2.2
			c3.7-1.4,7.1-0.9,10.1,1.8c-0.5,0.2-1-0.1-1.4-0.2c-0.5-0.1-1-0.1-1.6-0.1c-2.7,0.4-4.9,1.9-7,3.4c-2.1,1.5-4.1,3-6.1,4.6
			c-4.1,3.3-8.8,4.1-13.8,3.5c-3.1-0.4-6.1-1.1-9.2-1.6c-8.8-1.5-16.2,3.4-19.2,10.3c-1.5,3.4-3.4,6.5-5.7,9.3
			c-0.2,0.2-0.4,0.4-0.2,0.8c0.5,0,0.9-0.5,1.3-0.8c3-2.2,5-5.1,7.1-8.1c1.1-1.6,2.2-3.2,3.6-4.5c3.7-3.4,8-4.5,12.9-3.1
			c4.2,1.2,8.4,2.6,12.8,3.3c1.8,0.3,3.6,0,5.7-0.3c-5.7,3.8-8,9.7-10.9,15.1c-1,1.8-1.9,3.7-2.9,5.6c0,0.1-0.3,0.1,0,0.2
			c0-0.1,0-0.1,0-0.2c1.3,0,2.3-0.8,3.4-1.2c0.5-0.2,1-0.4,1.8-0.7c-0.5,1.9-1,3.6-1.5,5.5c0.9-0.2,1.4-0.7,1.9-1.1
			c4.8-3.8,8.6-8.5,12.5-13.1c0.7-0.8,1.5-1.7,2.2-2.5c3-3.4,6.7-3.8,10.8-2.9c1,0.2,0.5,0.7,0.3,1.1c-1.8,4.8-3.5,9.6-4.6,14.6
			c-0.6,2.7-0.9,5.4-1.8,8.1c-0.1-0.5,0-0.9,0.1-1.4c0.5-2.4,0.9-4.7,1.4-7.1c-0.6,0.6-1,1.3-1.3,2c-1.5,3.5-2.3,7.3-3.7,10.8
			c-2.1,5.4-4.9,10.2-9,14.3c-0.5,0.5-1.2,0.7-1.5,1.6C95.9,241.5,96.6,240.3,97.8,240.4z M53.2,207.3c0.1-0.1,0.2-0.2,0.2-0.2
			c-0.2-0.2-0.3,0-0.3,0.1c-0.1,0-0.2,0.1-0.2,0.2C53,207.4,53.1,207.3,53.2,207.3z M53.8,206.7C53.7,206.7,53.7,206.7,53.8,206.7
			c-0.1,0.1,0,0.2,0,0.2c0,0,0.1-0.1,0.1-0.1C53.8,206.8,53.8,206.7,53.8,206.7z" />
      <path fill-rule="evenodd" clip-rule="evenodd" fill="#069449" d="M170.6,146.2c-0.4,2.2-1.4,4.3-2.1,6.5c-1.6,5-2.4,10.1-3.1,15.2
			c-0.7,5.1-1,10.1-1.5,15.2c-0.2,1.7-0.1,3.4-0.3,5.1c-0.4,6.1-0.3,12.3-0.3,18.4c0,7.3-0.1,14.7,0.1,22c0.1,7.9,0.7,15.9,2.2,23.7
			c0,0.1,0.1,0.1,0.3,0.4c0.4-2,0.8-3.8,1.2-5.6c2.2-10,4.5-20,8.7-29.4c3.1-6.9,6.9-13.4,12.6-18.6c1.4-1.3,2.8-2.4,4.6-3.3
			c0,1.3-0.6,2.2-1.1,3.1c-4.2,9.3-7.2,18.9-8.5,29.1c-0.4,3.4-0.8,6.7-0.7,10.1c0.4,12,3.5,23.2,10.2,33.3c0.1,0.1,0.1,0.2,0.1,0.4
			c-0.1,0.8-0.2,1.6-0.3,2.4c-0.1,0.8-0.2,1.6-0.3,2.5c-0.7-0.2-1.1-0.7-1.6-1.1c-7.3-6.1-11.7-14.1-14.4-23c-0.2-0.7-0.3-1.4-1.1-2
			c-3.8,8.9-4.6,18.5-6.2,27.9c-0.7-0.2-0.9-0.6-1.3-1c-6.5-6.1-10.9-13.5-14.5-21.6c-3.8-8.4-6-17.2-7.9-26.2
			c-0.2-1.2-0.5-2.3-0.8-3.7c-2.7,3.9-5.4,7.4-7.9,11.1c-1.5,2.2-3.2,4.1-4.8,6.2c-6.7,8.9-11.7,18.8-16.4,28.9
			c-2.9,6.3-5.8,12.7-8.1,19.3c0.2-4.5,0.6-8.9,1.4-13.3c0.6-3.2,1.1-6.5,1.9-9.6c1.1-4.7,2.5-9.4,4-14c3.3-10.1,6.9-20.1,10.9-30
			c2.5-6.3,5.3-12.6,8.2-18.7c5.4-11.3,11.2-22.3,17.7-32.9c5.3-8.7,11.1-17.1,17.4-25.1C169.5,147.3,170.1,146.8,170.6,146.2
			L170.6,146.2z" />
      <path fill-rule="evenodd" clip-rule="evenodd" fill="#116636" d="M240,196.7c0.1,0,0.2,0.1,0.2,0.2c0,0.1,0.1,0.1,0.2,0.2
			c6.3,4.8,13.6,7.4,21.4,8.5c6,0.9,12,0.7,18,0.4c0.9,0,1.8-0.1,2.9-0.2c-0.8,1.8-1.4,3.4-2.2,4.9c-3.9,8.3-6.6,17.1-8.3,26
			c-1.7,8.6-0.1,17.1,2.2,25.4c3.5,12.8,9.3,24.5,16.5,35.5c6.2,9.4,10.8,19.5,13.1,30.5c0.3,1.4,0.5,2.8,0.7,4.2c0,0.2,0,0.4,0,1
			c-1.6-2.7-2.7-5.2-4.3-7.5c0-0.3,0-0.5-0.4-0.5c0,0,0,0,0,0c0-0.2,0-0.3-0.2-0.3l0,0c0-0.3,0-0.5-0.4-0.5l0.1,0c0,0-0.1,0-0.1,0
			c0.3-0.5-0.1-0.9-0.3-1.3c-0.6-1.1-1.3-2.2-2-3.3c-6.1-9.8-14.3-17.7-22.9-25.2c-7-6.1-14.3-11.7-21.3-17.8
			c-6.8-6-12.3-12.7-15.3-21.4c-3.3-9.4-3.9-18.8-1.8-28.5c1-4.5,2.5-8.8,4.7-13.2c-5.9,1.1-8.4,5.7-11.2,9.9
			c-0.5-0.3-0.5-0.8-0.7-1.2c-2-4.7-1.4-9.3,0.1-13.9c1.8-5.3,5-9.9,8-14.6c0.1-0.1,0.3-0.1,0.5-0.2l0,0c0.3,1,1.1,1.6,2,2.1
			c0,0,0,0,0,0c0,0.2,0.1,0.3,0.3,0.3c0,0,0,0,0,0C239.5,196.5,239.7,196.7,240,196.7z" />
      <path fill-rule="evenodd" clip-rule="evenodd" fill="#069449" d="M265.5,117.3c-2.1,4.8-3.9,9.8-4.3,15.1
			c-0.5,6.5,0.3,12.8,3.1,18.8c2.9,6.2,8,10.2,14.2,12.8c4.4,1.8,8.9,3.1,13.6,4c1.7,0.3,3.3,0.4,5.1,0.3c-5.8,5.8-18,7.9-28.7,4.3
			c-0.9-0.1-1.4-1-2.3-1.3c-0.1-0.2-0.3-0.3-0.6-0.2c0,0-0.1-0.1-0.1-0.1c0,0,0,0.1,0,0.1c0,0,0.1,0,0.1,0c0.1,0.2,0.3,0.3,0.5,0.3
			c0.1,0.3,0.1,0.6,0.2,0.7c2.6,2.8,4.8,5.9,7.8,8.4c8.3,7,18,8.3,28.2,7.1c5.1-0.6,9.8-2.4,14.3-5c0.6-0.3,1-0.4,1.2,0.3
			c-1.1,2.6-2.1,5.3-2.4,8.2c-0.5,4.8,0.8,9.1,3.8,12.9c-1.7-0.6-3-1.7-4.4-2.6c-2.3-1.3-4.4-2.9-6.8-4c-3.6-1.6-7.6-1.4-11.4-1.5
			c-5.9-0.3-11.8,0.1-17.6-0.3c-4.9-0.3-9.8-1-14.6-1.9c-4.9-0.9-8.8-3.2-11.9-7c-3.4-4.3-5.9-9.1-7.6-14.3
			c-2.6-7.8-3.8-15.9-3-24.2c0.4-4.7,1.4-9.2,3.4-13.5c3.3-7,8.6-12.2,15.5-15.6C262.2,118.2,263.7,117.3,265.5,117.3z" />
      <path fill-rule="evenodd" clip-rule="evenodd" fill="#116636" d="M265.5,117.3c-1.8,0-3.3,1-4.9,1.7c-6.9,3.4-12.1,8.6-15.5,15.6
			c-2,4.3-3,8.8-3.4,13.5c-0.8,8.3,0.4,16.3,3,24.2c1.7,5.2,4.2,10,7.6,14.3c3.1,3.8,7.1,6.1,11.9,7c4.8,0.9,9.7,1.6,14.6,1.9
			c5.9,0.4,11.8,0,17.6,0.3c3.8,0.2,7.8-0.1,11.4,1.5c2.4,1.1,4.5,2.7,6.8,4c1.5,0.9,2.8,2.1,4.4,2.6c0,0,0,0,0,0
			c0,0.2,0.1,0.3,0.3,0.3l0,0c0.1,0.4,0.6,0.7,0.5,1.1c-0.4-0.2-0.8-0.3-1.2-0.5c-0.1-0.3-0.3-0.3-0.5-0.2c-0.7-0.3-1.4-0.6-2.2-0.9
			c-0.3-0.4-0.8-0.4-1.3-0.5c-4.8-1.6-9.7-3.1-14.9-2.9c-3.6,0.1-7.2,0.2-10.8,0.3c-6.5,0.2-12.9,0.6-19.4,0.4
			c-16.3-0.6-28-8.3-35.2-22.8c-4.3-8.6-6.5-17.7-6.9-27.3c-0.5-12.1,1-24,4.5-35.7c1.4-4.5,3.3-8.7,6.1-12.6
			c-7.6,3.5-13,9-16.4,16.7c0.3-5.9,4-15.9,7.7-20.3c4.7-5.6,10.8-8.7,17.9-9.9c9.3-1.5,18.5-0.7,27.5,1.9c0.8,0.2,1.6,0.5,2.5,1.1
			c-0.6,0-1,0-1.3,0c-5.1-0.2-10.2,0.3-15,2c-6.5,2.3-11.1,6.5-13.8,12.9c-2.6,6.3-4.8,12.7-5.4,19.7c0.5-0.7,0.9-1.2,1.3-1.7
			c4.2-5.3,9.9-7.8,16.5-8.2c1.8-0.1,3.6-0.2,5.3-0.3c0.2,0,0.6-0.2,0.6,0.2C265.9,117,265.7,117.2,265.5,117.3z" />
      <path fill-rule="evenodd" clip-rule="evenodd" fill="#069449" d="M237.3,193.8c-0.2,0.1-0.4,0.1-0.5,0.2c-3,4.7-6.2,9.3-8,14.6
			c-1.6,4.6-2.2,9.3-0.1,13.9c0.2,0.4,0.2,0.9,0.7,1.2c2.7-4.3,5.2-8.8,11.2-9.9c-2.2,4.4-3.7,8.7-4.7,13.2
			c-2.1,9.7-1.5,19.1,1.8,28.5c3,8.7,8.5,15.5,15.3,21.4c7,6.1,14.3,11.7,21.3,17.8c8.6,7.5,16.8,15.4,22.9,25.2
			c0.7,1.1,1.4,2.2,2,3.3c0.2,0.4,0.6,0.8,0.3,1.3c-2.3-2.8-4.6-5.7-6.9-8.5c-1.7-2.1-3.7-4-5.6-5.9c-2-2.1-3.9-4.1-5.9-6.1
			c-5.5-5.3-12-9.4-18.2-13.8c-10.5-7.3-20.9-14.8-30.1-23.7c-6.3-6.1-11.4-13-13.9-21.4c-4.1-13.5-5.1-27.2-0.2-40.8
			c1.3-3.7,2.6-7.4,4.5-10.9c1.7-2.9,3.7-5.5,6-8c0.4-0.4,0.7-0.7,1.2-0.1c2.3,2.7,4.6,5.4,6.9,8
			C237.2,193.5,237.2,193.7,237.3,193.8z" />
      <path fill-rule="evenodd" clip-rule="evenodd" fill="#F0B11E" d="M295.9,47.8c-2.3,0.5-4.7,1.1-7.2,1.7c1.1-1.5,1.9-2.9,2.3-4.6
			c0.5-2.2,0.2-4.1-1.1-6c-1.7-2.4-3.8-4.2-6.3-5.9c0,1.2,0.5,2,0.8,2.9c1.5,4.3,0.6,8.2-1.6,12c-0.4,0.8-0.8,0.6-1.3,0.1
			c-2.2-1.9-4.1-4-5.9-6.2c-0.2-0.3-0.4-0.8-0.9-0.7c-0.5,0.1-0.3,0.7-0.5,1.1c-0.5,1.5-0.2,2.9,0.4,4.3c0.5,1.1,1,2.1,1.6,3.2
			c-0.1,0-0.2,0.1-0.2,0.1c-4.4-3.1-9.6-3.5-14.8-4.2c-4.5-0.6-9.2-0.5-13.6-1.8c-1.7-0.5-3.3-1.3-4.9-2c-0.1,0-0.2-0.1-0.3-0.1
			c0,0.1,0.1,0.2,0.1,0.3c4.1,5.5,9.7,8.9,16.2,10.9c3.1,0.9,6.1,2,9.1,3c-0.1,0.5-0.5,0.4-0.9,0.4c-3.4,0.2-6.6,1-9.6,2.5
			c-0.5,0.2-0.8,0.2-1.2-0.1c-7.6-4.3-15.7-5.4-24.2-4c-7.8,1.3-15.5,3.4-23.2,5c-3.6,0.7-7.2,1.5-10.8,2c-1.2,0.2-2.5,0-3.5,0.9
			c-5.3-1-10.3-3.1-15.5-4.5c6.1,0.4,11.9-1,17.5-3.1c3.7-1.4,7.2-3.2,10.8-4.7c5.8-2.5,11.5-5,17.6-6.5c2.7-0.7,5.4-1.1,8.2-0.8
			c0.8,0.1,1.6,0,2.7,0c-1.7-1.2-3.3-2.2-4.8-3.2c-2.8-1.9-4.3-4.6-5-7.8c-0.1-0.3-0.2-0.5,0-0.8c0.6,0.2,1.1,0.6,1.5,1.1
			c1.2,1.2,2.6,2.2,4.2,2.8c4.1,1.5,8.4,2.4,12.8,2.6c2.6,0.1,5.2,0,7.7-0.3c2.8-0.3,5.5-0.8,8.3-1c2.4-0.2,4.9-0.3,7.3,0.1
			c4.1,0.5,8,1.8,11.9,3.2c0.4,0.1,0.9,0.6,1.2,0.2c0.4-0.5-0.4-0.7-0.6-1c-0.1-0.2-0.3-0.4-0.4-0.7c-0.1-0.2-0.3-0.4-0.4-0.6l0,0
			c-1.3-2.9-3.8-4.7-6.6-5.9c-3.6-1.6-7.5-2.1-11.4-2.7c-3.4-0.5-6.8-0.7-10.1-2c-6.5-2.5-11.9-6.5-15.6-12.5
			c-1.1-1.8-2.5-3.5-3.3-5.5c0-0.1,0.1-0.1,0.1-0.2c2.6,2.7,5,5.5,7.8,8c2.1,1.9,4.3,3.7,6.9,5c-0.4,0.2-1.1,0.2-0.3,0.7
			c0.5,0.3,1,0.5,1.6,0.7c3.3,1.4,6.8,1.3,10.2,1.6c4.8,0.4,9.7-0.8,14.5,0.3c5,1.1,9.9,2.2,14.2,5.1c5.3,3.6,7.8,8.5,6.9,14.9
			C294.3,46.7,293.9,47.9,295.9,47.8z" />
      <path fill-rule="evenodd" clip-rule="evenodd" fill="#116636" d="M379.9,188.2c-1-0.2-1.8-0.6-2.6-1.2
			c-5.7-4.1-10.6-9.2-15.1-14.6c-9.1-10.9-17.3-22.4-24.4-34.6c-0.6-1-0.7-1.7,0-2.9c2.8-4.3,2.6-6.4-0.8-10.3
			c-3.3-3.8-7.2-7-10.9-10.4c-8.1-7.5-16.5-14.6-24.8-21.9c-2.6-2.2-4.9-4.6-7.3-7.1c0.5-0.3,0.8,0,1.1,0.2
			c12,8.5,24.1,16.9,35.4,26.3c3.6,3,6.8,6.3,9.8,9.8c0.7,0.9,1.4,1.8,2,2.8c1.3,2.2,1.4,4.4-0.1,6.7c-1.1,1.6-2.1,3.3-3.3,4.8
			c-0.4,0.5-0.4,0.8-0.1,1.3c9.1,13.3,18,26.7,28.6,38.9c1.9,2.1,4,3.9,6.2,5.7c1.5,1.2,3.4,1.6,5.2,2c3.3,0.6,6.6,1.2,9.7,2.5
			c3.3,1.3,5.8,3.3,6.2,7.1c0.1,1.3,0,2.5-0.6,3.6c-1.3,2.6-1.4,5,0.9,7.1c2.5,2.3,3.2,4.8,2.1,8.2c-1,3-0.7,6.2-0.3,9.3
			c0.3,1.8-0.4,3.1-2.1,3.9c-2.2,1-4.3,2.3-6.6,3.2c-1,0.4-2,0.5-3.1,0.2c-3.9-1-7.6-2.7-11.4-4.1c-2.6-1-5.3-1.8-8.5-1.9
			c0.8,0.7,1.3,1.2,1.8,1.6c2.9,2.6,5.8,5.2,8.6,7.9c0.5,0.5,0.6,0.8,0.1,1.3c-2.4,2.8-4.7,5.7-7.4,8.3c-1.1,1.1-2.3,1.6-3.8,1.5
			c-6.4-0.3-12.7-1.1-18.9-2.5c-2.7-0.6-4.8-2-6.3-4.3c-1.8-2.7-3.8-5.2-5.6-7.8c-5.9-8.5-13-15.7-22.2-20.7
			c-2.7-1.5-5.4-3.2-8.4-4.7c9.9,1.3,17.6,5.4,24.5,13.1c3.3,3.7,6.4,7.5,9.3,11.6c1.3,1.9,3,3.3,5,4.3c6.2,3.3,12.8,5.6,19.6,7.3
			c1.9,0.5,3.5-0.5,5-1.5c1.6-1.1,2.9-2.6,4.2-4.1c0.5-0.5,0.4-0.8-0.3-1c-5.7-2.1-11.2-4.5-17.3-5.5c-1.2-0.2-2.4-0.2-3.6-0.1
			c-0.9,0-1.5-0.2-1.9-0.9c-0.1-0.2-0.2-0.3-0.3-0.4c-1.9-2.4-1.9-2.4,1-3.7c1.3-0.6,2.7-1.2,4.2-1.4c1.8-0.3,3.5-0.6,5.3-0.7
			c3.4-0.3,6.8,0.2,10.3,0.3c1.1,0,2.3,0.1,3.4,0.4c3.9,1.3,7.8,2.6,11.5,4.4c0.8,0.4,1.5,0.5,2.4,0.3c2.5-0.5,4.7-1.7,7-2.6
			c0.5-0.2,0.7-0.6,0.8-1.1c0.2-2.1,0.5-4.1,0.8-6.2c0.2-1.4,0.6-2.7,0.4-4.1c-0.5-3.4-1.8-6.6-3.5-9.5c-1.4-2.4-2-4.6-0.6-7.2
			c0.2-0.4,0.2-0.9,0.3-1.4c0.5-2.1-0.3-3.7-2.4-4.2C385.2,188.7,382.6,188.4,379.9,188.2z M368.4,229.7c0-0.1,0.1-0.2,0.1-0.3
			c-0.1-0.1-0.2-0.2-0.3-0.3c-2.7-1.9-5.7-3.3-7.9-5.9c-0.3-0.3-0.6-0.4-1-0.3c-2.8,0.3-5.6,0.7-8.5,1c-0.9,0.1-1.5,0.5-1.4,1.3
			c0,0.9,0.9,0.8,1.6,0.8c3.7,0.1,7.2,0.6,10.7,1.7C364,228.6,366.2,229.1,368.4,229.7z" />
      <path fill-rule="evenodd" clip-rule="evenodd" fill="#F0B11E" d="M212.9,33.1c-10.1,3.2-20.2,4-30.2,0c-3.4-1.4-6.8-2.6-10.1-4.1
			c-7.8-3.6-16-4.2-24.4-3.7c-2.5,0.2-5.1,0.1-7.6,0.2c-5,0.2-9.2-1.4-13-4.6c-4.5-3.8-8.5-8.1-12.3-12.6c-0.1-0.1-0.1-0.3-0.2-0.5
			l0,0c1.5,0.5,2.9,1.5,4.3,2.3c0,0.3,0.1,0.6,0.4,0.8c1.5,1.2,3,2.5,4.5,3.7c4.6,3.8,9.7,5.9,15.8,5.5c1.5-0.1,3.1-0.2,4.6-0.3
			c3.5-0.2,7-0.7,10.5-1.2c3.5-0.6,7-1.3,10.5-1.5c4.5-0.2,9,0.3,13.5,1c0.4,0.1,0.7,0,1-0.3c0.7,0.2,0.8-0.1,0.6-0.7
			c-0.9-2.7-2.3-5-4.6-6.7c-1.1-0.8-2.2-1.6-3.5-2.5c1.7-0.5,3.2-0.5,4.8-0.5c0.1,0.1,0.2,0.2,0.3,0.2c4.9,0.8,8.8,3.2,11.8,7.1
			c2.5,3.2,4.6,6.7,7.2,9.9c3.2,4,7.2,7,12.5,8C210.3,33,211.6,32.7,212.9,33.1z" />
      <path fill-rule="evenodd" clip-rule="evenodd" fill="#116636" d="M297.8,73.1c-2.7,2.7-5.2,5.6-8.1,8.1c-0.4-0.6,0.1-0.8,0.3-1.1
			c2-3.8,4.2-7.5,6.1-11.3c2.1-4.2,4.9-8,8.2-11.3c0.6-0.6,1.1-1.2,1.6-1.8c0.1-0.1,0.2-0.2,0.2-0.2c-0.1-0.2-0.3-0.1-0.4,0
			c-7.7,2.3-15.3,5-22.7,8.3c-3.2,1.4-6.4,2.8-9.7,4.3c-4.9,2.2-9.6,4.8-13.6,8.4c-1.3,1.2-2.7,1.9-4.6,1.2
			c-1.2-0.4-2.5-0.2-3.5,0.7c-0.3-0.3,0-0.5,0.1-0.6c2.3-3.4,4.7-6.8,7.4-10c3.9-4.8,9.1-7.5,15-9c14.8-3.9,29.2-9,43.6-14
			c0.5-0.2,0.9-0.6,1.6-0.5c-2.1,3.5-4.2,7-6.3,10.5c-2.1,3.4-4.9,6.2-7.4,9.3C303,67.1,300.4,70.1,297.8,73.1z" />
      <path fill-rule="evenodd" clip-rule="evenodd" fill="#F0B11E" d="M322.3,72.2c0.1-0.4,0.5-0.7,0.9-0.9c0.3,0.9,0.7,0.4,1,0.1
			c3.7-2.8,7.9-4.7,12.3-6.3c4.7-1.7,9.7-2.4,14.6-3.3c3.2-0.5,6.4-1.4,8.6-4.1c1.1-1.4,2.5-2.7,2.7-4.6c0.7-0.9,1.5-1.7,2.2-2.6
			c0.4,0.4,0,0.7-0.1,1c-1,2.6-2,5.1-2.9,7.7c-1.2,3.5-3.6,5.5-7.1,6.4c-1.4,0.4-2.8,0.7-4.3,0.6c-0.9-0.1-1.6-0.4-2.4-0.8
			c-0.3-0.2-0.9-0.3-1.1,0.1c-0.2,0.4,0.3,0.5,0.6,0.7c2,1.5,3.6,3.3,5.2,5.1c1.8,2.1,3.9,3.8,6.5,5c5,2.2,10.3,1.7,15.5,1.5
			c2.4-0.1,4.7,0.1,7,0.3c3.8,0.3,6.9,2.5,10.1,4.2c0.6,0.3,1.1,0.8,1.8,0.7c1.6,1.3,3,2.9,4.3,4.6c-2-0.8-4.1-1.5-6-2.5
			c-6.4-3.2-12.9-3.4-19.6-1.5c-1.8,0.5-3.7,0.9-5.6,1.3c-4,0.9-7.7,0.2-11.2-1.8c-4.2-2.3-8.3-4.6-12.6-6.8
			c-9.2-4.8-17.7-3.8-25.5,3c-0.1,0.1-0.2,0.1-0.5,0.1C318.6,76.9,320,74.2,322.3,72.2c0,0.1,0,0.2,0.1,0.2
			C322.6,72.2,322.3,72.3,322.3,72.2z" />
      <path fill-rule="evenodd" clip-rule="evenodd" fill="#D79C2B" d="M80.3,60.5c-5.1-0.9-10.1-1.9-15.3-0.9c3.4-2.2,7-3.8,11-4.7
			c8.3-1.8,17.1,2.7,20.4,10.5c0.3,0.8,0.3,1-0.6,1.1c-6,0.6-12,1.3-17.8,2.8c-2.4,0.6-4.7,1.5-6.8,3c-5.2,3.6-10.9,3.9-16.8,2.3
			c-4.8-1.3-9.2-3.4-13.4-5.9c-4.4-2.5-8.8-4.7-13.6-6.2c-1.3-0.4-2.6-0.7-4-1.1c0.6,0,1.1-0.1,1.7-0.1c6.9-0.2,13.7,0.9,20.3,2.9
			c3.5,1.1,7,2.1,10.7,2.2c2.9,0.1,5.7-0.4,8.3-1.7c4.5-2.2,9.2-3.5,14.3-3.6C79.2,61.1,79.8,61.1,80.3,60.5z" />
      <path fill-rule="evenodd" clip-rule="evenodd" fill="#116636" d="M266.2,171.3c0.9,0.2,1.4,1.1,2.3,1.3c0.1,0.2,0.1,0.5,0.3,0.6
			c5.6,3.7,11.4,6.9,18.1,8.2c5.4,1,10.6,0.2,15.9-0.8c2.2-0.4,4.4-1.1,6.5-1.9c5.8-2.1,7.2-9.8,4.6-13.8c-2.4-3.6-5.4-6.5-9.1-8.7
			c-0.3-0.2-0.8-0.2-1-0.7c4.9,0.6,10.7,3.4,13.8,7.3c2.5,3.2,3.7,6.7,3.8,10.7c0,1.3,0.1,2.6,0.1,3.9c0,0.7,0.4,1.1,0.7,1.5
			c7.7,9.5,16.3,18.1,25.4,26.2c2,1.8,3.9,3.6,5.9,5.5c-0.7,0.4-0.9-0.1-1.3-0.3c-10.6-6.8-20.6-14.3-29.6-23.1
			c-1.5-1.5-3-3.1-4.8-4.2c-0.3-0.7-0.7-0.7-1.2-0.3c-4.4,2.6-9.2,4.4-14.3,5c-10.3,1.2-19.9-0.1-28.2-7.1c-3-2.5-5.2-5.6-7.8-8.4
			C266.2,171.9,266.2,171.6,266.2,171.3L266.2,171.3z" />
      <path fill-rule="evenodd" clip-rule="evenodd" fill="#069449" d="M330.2,148.8c1.3,3.2,1.5,6.6,0.7,10c-0.6,0-0.6-0.5-0.8-0.8
			c-1.2-2.2-2.4-4.4-4.2-6.1c-3-2.8-6.5-4.5-10.7-4.5c-4.5-0.1-8.9-0.2-13.4-0.8c-3.1-0.4-5.8-1.6-8.2-3.8c-2.1-1.9-4.7-2.4-7.5-1.6
			c-1.2,0.4-2,1.4-2.5,2.5c-0.3,0.7-0.5,1.5-0.9,2.6c-1.3-3.6-1.8-7-0.5-10.5c1.1-2.7,2.9-4.7,5.4-6.1c0.8-0.5,0.8-0.9,0.6-1.6
			c-1.1-4.3-3.1-8.2-6.6-11c1.8,0.2,3.2,1.3,4.5,2.4c2.8,2.1,5.7,4,7.2,7.3c0.6,1.5,1.5,2.8,2.5,4.1c1.7,2.3,3.3,4.8,5.7,6.5
			c4,3,8.4,3.8,13.3,2.7c1.3-0.3,2.5-0.3,3.9,0.3c2.3,1,4.1,2.6,6,4.2c1.6,1.4,3.2,3,4.8,4.5C329.9,149.5,330.2,149.7,330.2,148.8z" />
      <path fill-rule="evenodd" clip-rule="evenodd" fill="#116636" d="M334.4,129c0.2,0.1,0.5,0.3,0.8,0.5c-0.6,0.4-1.2,0.2-1.7,0.2
			c-4.3,0.1-8.5-0.3-12.8-1.1c-6-1.1-11.3-3.7-15.5-8.2c-5.5-5.9-12.1-9.9-19.8-12.2c-1.6-0.5-3.1-1.1-4.6-1.7
			c-2.7-1.1-5.3-2.1-8.3-2.3c1.6-0.8,3.3-1.2,5-1.4c0.3-0.1,0.7,0,1-0.3c1.4,0.2,2.7-0.2,4.1-0.2c5.3-0.1,10.3,1.3,15.2,3.2
			c6.5,2.5,12,6.4,16.4,12c1.7,2.2,3.3,4.5,6,5.7c3.2,1.4,6.5,2.5,9.8,3.9c1.2,0.5,2.2,1.3,3.6,1.3l0,0c0,0.2,0.2,0.3,0.3,0.3l0,0
			C334,129,334.2,129,334.4,129z" />
      <path fill-rule="evenodd" clip-rule="evenodd" fill="#D79C2B" d="M353.4,120c-0.7-1.1-1.2-1.9-1.7-2.7c-0.8-1.5-2.1-2.4-3.6-3
			c-2.5-0.9-5.1-1.6-7.7-2.3c-2.6-0.7-5-1.5-7.2-3.1c-2.5-1.7-4.2-4.1-5.7-6.7c-1.4-2.5-2.7-5.1-4.2-7.6c-4.1-6.9-8.6-9.6-16.8-10.2
			c1.7-0.7,3.4-0.8,5-1.1c2.6-0.4,5.2-0.4,7.9-0.1c3.6,0.4,6.3,2.4,8.5,5.1c1.3,1.7,2.6,3.4,3.8,5.1c2.3,3.4,5.3,6,9,7.7
			c0.9,0.4,1.7,0.9,2.6,1.3c5.2,2.4,7.6,6.8,9,11.9C352.7,116.2,353.4,117.8,353.4,120z" />
      <path fill-rule="evenodd" clip-rule="evenodd" fill="#F0B11E" d="M90.8,275.8c-2.5-0.1-4.5-1.5-7.3-5.4c-0.5,1-0.5,2-0.7,2.9
			c-0.7,3.4-0.4,6.8-0.5,10.1c-0.1,3.3-0.5,6.6-1.6,9.7c-0.6,1.5-1.4,2.8-2.8,3.8c-2,1.5-4,3.1-6.3,4.8c1.4-4.2,2.1-8.2,2.5-12.3
			c0.3-2.7,0.2-5.4-0.2-8.1c-0.6-5,0.6-9.7,3.1-14c3.2-5.4,7.8-9.4,12.7-13.5c0.3,1.2-0.1,2-0.2,2.9c-0.6,4-1.1,8-1.1,12.1
			C88.6,271.4,89.7,273.6,90.8,275.8z" />
      <path fill-rule="evenodd" clip-rule="evenodd" fill="#D79C2B" d="M62.2,146.6c-1.5,2.1-3.1,4.2-4.6,6.3c-1.7,2.5-4,4.3-6.8,5.7
			c-2.7,1.4-5.5,2.7-8.4,3.7c-3.4,1.2-6.9,2.2-9,6c-0.7-2.5-0.2-4.5,1-6.4c-0.7-0.1-0.9,0.3-1.2,0.5c-1.9,1.7-3.8,3.6-5.2,5.7
			c-2.8,4.1-6.6,6.4-11.5,6.9c-1.2,0.1-2.4,0.6-4.1,0.5c4.2-2.4,5.9-6.4,8.1-10.1c3.2-5.5,7.5-9.5,13.9-10.7
			c2.4-0.4,4.8-0.8,7.3-1.1c3.8-0.4,7.6-0.8,11.3-2.1c2.5-0.9,4.9-2.1,7-3.8c0.6-0.5,1.3-0.9,1.9-1.4
			C62.1,146.5,62.2,146.6,62.2,146.6z M34.6,161.5C34.6,161.5,34.5,161.5,34.6,161.5c-0.2,0-0.2,0.1-0.1,0.1
			C34.5,161.7,34.6,161.7,34.6,161.5C34.6,161.6,34.6,161.6,34.6,161.5z" />
      <path fill-rule="evenodd" clip-rule="evenodd" fill="#116636" d="M330.2,148.8c0,0.9-0.3,0.8-0.8,0.3c-1.6-1.5-3.1-3.1-4.8-4.5
			c-1.8-1.6-3.6-3.2-6-4.2c-1.3-0.6-2.6-0.5-3.9-0.3c-4.8,1-9.3,0.2-13.3-2.7c-2.4-1.7-4-4.2-5.7-6.5c-0.9-1.3-1.8-2.6-2.5-4.1
			c-1.5-3.4-4.4-5.3-7.2-7.3c-1.4-1-2.7-2.2-4.5-2.4c0,0,0,0,0,0c-0.1-0.3-0.3-0.3-0.5-0.3c-0.5-0.2-1-0.5-1.5-0.7
			c1.7-0.4,3.2,0.1,4.8,0.4c5,0.9,9.2,3.6,13.5,6c5.1,2.9,10,6.1,15.2,9c6.8,3.7,13.6,3.4,20.6,0.9c0.4-0.2,0.9-0.3,1.7-0.6
			c-1.4,2.6-3,4.4-5.5,5.3c-1,0.4-2.1,0.7-3.2,1c-0.9,0.2-1.2,0.5-0.6,1.4C328,142.2,329.5,145.3,330.2,148.8z M316,137.1
			c-6-4.3-11.8-8.5-18.8-11.3C301.7,135.7,306.4,138.9,316,137.1z" />
      <path fill-rule="evenodd" clip-rule="evenodd" fill="#069449" d="M333.6,128.5c-1.4,0-2.4-0.8-3.6-1.3c-3.2-1.4-6.6-2.5-9.8-3.9
			c-2.7-1.2-4.3-3.6-6-5.7c-4.3-5.6-9.8-9.5-16.4-12c-4.9-1.9-9.9-3.3-15.2-3.2c-1.4,0-2.7,0.4-4.1,0.2c4.4-1.6,9-2.3,14.2-2
			c-5.6-4.4-9.2-9.6-9.5-16.8c1.1,1.5,1.9,3,3,4.3c3.2,4.2,7.1,7.6,11.6,10.3c3.4,2.1,6.9,4.1,10.4,6.1c3.8,2.2,7,5.3,9.7,8.7
			c4.5,5.5,9.6,10.4,15.1,14.9C333.3,128.1,333.5,128.3,333.6,128.5z" />
      <path fill-rule="evenodd" clip-rule="evenodd" fill="#D79C2B" d="M125.9,169.2c1.1-0.3,1.2-1.3,1.7-2.1c2.2-3.7,4.3-7.5,7.1-10.8
			c0.2-0.2,0.5-0.5,0.3-0.8c-0.3-0.4-0.5,0.1-0.8,0.2c-5.7,4.1-12,6.8-19.1,7.6c-2.1,0.2-4.2,0.5-6.4,0.5c-2,0-4.1,0.2-6.1,0.2
			c-6.2-0.1-12.3-0.4-18.5-0.9c-4.5-0.3-9.1-0.3-13.6,0.1c-3.5,0.3-7,0.6-10.3,1.6c-2.6,0.8-5,1.9-7.4,3.1c-0.5,0.3-1,0.6-1.2-0.3
			c0,0,0,0,0,0c0.5,0.2,0.6,0,0.6-0.4l0,0c0.5,0,1,0.1,1-0.6l0,0.1c0,0,0-0.1,0-0.1c0.6,0.2,1.1,0,1.2-0.7c0.2-0.1,0.3-0.2,0.5-0.3
			c0.1,0.1,0.1,0.1,0.2,0.2c0-0.1,0-0.1-0.1-0.2l0.1,0c1.3-0.1,2.3-0.7,3.3-1.6l0,0c0.1-0.1,0.2-0.1,0.4-0.2
			c3.7-1.7,7.6-2.5,11.5-3.2c7.2-1.2,14.5-1,21.7-0.5c6.8,0.5,13.7,0.9,20.6,0c8.6-1.1,16.7-4,24.5-7.7c1.4-0.6,2.7-1.3,4.1-1.9
			c0.1,0.5-0.3,0.8-0.5,1.1c-4.1,6.3-7.8,12.9-11.5,19.4c-0.7,1.3-0.8,1.3-1.7,0.1C127,170.5,126.2,170,125.9,169.2z" />
      <path fill-rule="evenodd" clip-rule="evenodd" fill="#D79C2B" d="M87.8,97.5c-4.6,0.3-8.1,2.6-11,6c-3.6,4.2-7.5,8-12.1,11.1
			c-3.3,2.3-7,3.6-11,3.4c-0.7,0-1.4,0-2.1,0c-5.3-0.5-9.9,1.1-14.3,3.9c-0.3,0.2-0.5,0.3-1,0.3c0.6-0.5,1.2-1.1,1.8-1.6
			c2.7-2.3,5.6-4.3,9-5.5c7.1-2.4,13.3-6.2,18.3-11.9c0.5-0.6,1.1-1,1.6-1.6c4.5-4.4,9.9-5.8,16-5C84.5,96.7,86.2,96.9,87.8,97.5z" />
      <path fill-rule="evenodd" clip-rule="evenodd" fill="#116636" d="M338.9,156c5.8,6.2,11.6,12.4,17.4,18.6c4.3,4.5,8.5,9.1,13,13.4
			c0.9,0.9,2,1.5,3.2,1.8c2.3,0.7,4.6,1.2,6.8,2c1.8,0.7,2.8,2,3.6,3.6c0.2,0.4,0.3,0.8-0.4,0.4c-1.4-2.3-5.3-2.8-7.4-1
			c-1.9,1.7-2,3.7-0.1,5.5c0.7,0.7,1.4,1.2,2.4,1.5c2.8,0.7,4.4,2.6,5.7,5c0.7,1.3,0.9,2.9,1.9,4.1c0.4,1.1,0.8,2.3,1.3,3.6
			c-1-0.5-1.4-1.2-1.9-1.9c-2.4-3.1-5-5.8-9.1-6.6c-1.6-0.3-3-1.2-4.5-2.1c-4.1-2.4-4.8-5.1-3.4-10.2c0.2-0.9,0.2-1.3-0.3-2
			c-9.3-11.5-18.6-23.1-27.9-34.7c-0.2-0.3-0.4-0.6-0.6-0.9C338.7,156.2,338.8,156.1,338.9,156z" />
      <path fill-rule="evenodd" clip-rule="evenodd" fill="#D79C2B" d="M64.3,173.7c0,0.6-0.4,0.8-0.8,1.2c-1.8,1.8-3.6,3.7-5.5,5.5
			c-4.6,4.3-7.5,9.6-9.6,15.4c-1.4,3.9-2.6,7.8-4,11.7c-3.5,9.7-8.3,18.6-14.6,26.8c-3.6,4.7-7.7,8.8-12.8,11.9
			c-1,0.6-2,1.1-3.1,1.6c-0.3,0.1-0.8,0.6-1.2,0c6.6-4.4,12.1-10,16.3-16.7c3.8-6.1,6.8-12.5,9.2-19.2c2.2-6.2,4.4-12.5,6.6-18.8
			c0.5-1.4,1.2-2.8,1.8-4.2c1.6-3.4,3.8-6.3,6.9-8.5C57.1,177.9,60.5,175.5,64.3,173.7z" />
      <path fill-rule="evenodd" clip-rule="evenodd" fill="#D79C2B" d="M147.8,79.6c-0.5,2-2.2,3.1-3.9,3.9c-4.9,2.4-10,3.3-15.6,2.5
			c-5.1-0.7-9-3.6-13.1-6.2c-3-1.9-5.9-3.7-9-5.5c-2.1-1.2-4.3-2.1-6.7-2c-2.5,0.1-5,0.7-7.3,1.7c-4.6,1.9-8.7,4.6-12.8,7.3
			c-4.4,3-9.3,4.4-14.4,5.6c-0.3,0.1-0.7,0.1-1-0.2c5.1-1.3,9.5-4,13.6-7.2c4-3.1,8.2-6,12.8-8.3c6.5-3.2,12.8-2.8,19,0.8
			c3,1.7,5.9,3.5,8.7,5.5c8.2,5.9,17.1,6.5,26.5,3.4C145.7,80.5,146.7,80.1,147.8,79.6z" />
      <path fill-rule="evenodd" clip-rule="evenodd" fill="#D79C2B" d="M149.2,34c0.5-0.2,0.8,0.2,1.2,0.4c3.7,1.9,7.2,4.1,10.7,6.4
			c2.8,1.9,5.8,3.4,8.9,4.5c0.7,0.3,1.4,0.6,2.5,0.4c-1.8-1.7-2.8-3.7-4-5.7c0.2,0,0.3-0.1,0.4-0.1c3.2,2,6.6,2.8,10.3,2.8
			c4.8,0.1,7.2,3,9.1,7c-2-0.3-3.9-0.6-5.8-0.6c-1.3,0-2.6,0.2-3.8,0.8c-1.5,0.7-3.1,1.2-4.7,1.6c-6.6,1.5-12-0.6-16.6-5.3
			c-1.5-1.6-2.8-3.4-3.8-5.3C152.3,38.6,150.9,36.2,149.2,34L149.2,34z" />
      <path fill-rule="evenodd" clip-rule="evenodd" fill="#D79C2B" d="M301.2,48.3c1-1.3,2.1-2.5,3.1-3.8c3.8-4.7,4.8-10,3.3-15.9
			c-1-3.7-1.3-7.4-0.4-11.2c1-4.4,4.1-6.6,8.1-7.8c1-0.3,0.6,0.3,0.5,0.8c-0.8,3.1-1.4,6.3-0.7,9.5c0.3,1.3,0.8,2.5,1.2,3.7
			c2.1,6.2,0.8,11.5-3.8,16C309.1,43,305.1,45.5,301.2,48.3z" />
      <path fill-rule="evenodd" clip-rule="evenodd" fill="#D79C2B" d="M0,245.1c0.6-0.4,1.1-0.6,1.5-0.9c3.3-2,5.9-4.6,7.5-8.1
			c1.2-2.6,2.5-5.1,3.7-7.7c3.1-6.5,8.7-9.8,15.4-11.5c1.1-0.3,2.3-0.1,3.5-0.1c-1.5,1.1-3.1,2.2-4.6,3.3c-2.5,2-4.3,4.4-5,7.6
			c-0.7,2.9-1.6,5.7-3,8.4c-1.7,3.3-4.1,5.7-7.8,6.9C7.6,244.3,4.1,245.4,0,245.1z" />
      <path fill-rule="evenodd" clip-rule="evenodd" fill="#D79C2B" d="M295.9,47.8c-1.9,0.1-1.5-1.1-1.4-2.3c0.8-6.4-1.6-11.3-6.9-14.9
			c-4.3-2.9-9.2-4-14.2-5.1c-4.8-1-9.7,0.1-14.5-0.3c-3.4-0.3-6.9-0.2-10.2-1.6c-0.5-0.2-1.1-0.4-1.6-0.7c-0.8-0.5-0.1-0.6,0.3-0.7
			c2.7,0.5,5.5,0.2,8.3,0.2c5.3,0,10.5-0.3,15.8-0.3c6.3,0,12.4,0.9,17.8,4.2c3.8,2.3,7.1,5.2,8.8,9.4c1.3,3.2,1.4,6.5,0.5,9.8
			C298,47.5,298,47.5,295.9,47.8z" />
      <path fill-rule="evenodd" clip-rule="evenodd" fill="#069449" d="M297.8,73.1c2.6-3,5.3-6,7.8-9.1c2.5-3,5.3-5.9,7.4-9.3
			c2.3,0.1,4.5-0.5,6.7-0.8c3.1-0.4,6.2-1,9.4-1.4c-6,8-12.9,14.9-21.4,20c-3.7,2.2-7.3,4.3-11.1,6.4c-0.1-0.1-0.1-0.2-0.2-0.3
			c1.2-0.8,2.3-1.5,3.5-2.3c4.6-2.9,8.2-6.7,11.5-10.9c0.1-0.1,0.1-0.2,0.1-0.4c0.2-0.2,0.5-0.4,0.2-0.6c-0.3-0.2-0.4,0.1-0.5,0.3
			c-3.2,2.3-6.2,4.9-9.8,6.7C300.3,72.1,299.1,72.7,297.8,73.1z" />
      <path fill-rule="evenodd" clip-rule="evenodd" fill="#D79C2B" d="M100.5,150.5c0.2-0.9,0.9-1.4,1.6-1.9c3.6-2.5,7.5-3.9,12-3.8
			c3.2,0,6.5,0.4,9.7,0.3c3.4,0,6.4-1.1,9.1-3.2c4.4-3.3,9-5.8,14.5-6.5c1.4-0.2,2.2-1.2,3.1-2c3.6-3.5,7.2-6.9,11-10.1
			c0.4-0.3,0.8-0.6,0.9-1.1c0.9-0.3,1.7,0.2,2.5,0.5c-1.5,1.5-3,3.1-4.5,4.5c-3.4,3.3-6.7,6.7-9.5,10.5c-0.4,0.5-0.8,1-1.5,1.2
			c-5.7,1.4-10.7,4.2-15.5,7.7c-3.3,2.4-7,3.4-11,3.1c-2.3-0.2-4.6-0.8-6.9-1.3c-4.2-0.9-8.3-0.7-12.3,0.9
			C102.5,149.6,101.6,150.3,100.5,150.5z" />
      <path fill-rule="evenodd" clip-rule="evenodd" fill="#D79C2B" d="M236.5,64.9c-0.1,0.6-0.5,0.6-1,0.7c-2.3,0.2-4.7,0.4-7,0.5
			c-3.6,0.2-7.1,0.8-10.6,1.7c-6.9,1.7-13.5,3.9-20.4,5.7c-7.4,1.9-15,2.3-22.6,2c-5-0.2-9.6-1.8-14.2-3.8c-3-1.4-5.8-3.2-9-4.4
			c-1.1-0.4-2.3-0.7-3.4-1.1c-0.5-0.1-1-0.1-1.2-0.7c3-0.2,6,0.3,8.7,1.6c8.5,3.7,17.4,5.1,26.6,5.3c5.2,0.1,10.2-1.3,15.3-2.2
			c6-1.1,11.8-2.8,17.7-4c4.3-0.9,8.6-1.4,13-1.5c1.7,0.3,3.4,0.3,5.1,0C234.5,64.6,235.5,64.6,236.5,64.9z" />
      <path fill-rule="evenodd" clip-rule="evenodd" fill="#D79C2B" d="M194.4,62.8c1-0.9,2.3-0.7,3.5-0.9c3.6-0.5,7.2-1.3,10.8-2
			c7.8-1.6,15.4-3.6,23.2-5c8.5-1.5,16.6-0.3,24.2,4c0.4,0.2,0.8,0.3,1.2,0.1c3-1.5,6.2-2.3,9.6-2.5c0.4,0,0.7,0,0.9-0.4
			c1.9,0.3,3.8,0.8,5.6,1.7c-0.9,0.1-1.9,0.1-2.8,0.2c-4.6,0.4-8.7,2-12.6,4.5c-1.1,0.7-2,0.7-3.2,0c-5-2.9-10.1-5.6-16.2-5
			c-3.4,0.3-6.7,0.9-10,1.5c-8.4,1.7-16.8,3.2-25.3,4C200.3,63.3,197.4,63.4,194.4,62.8z" />
      <path fill-rule="evenodd" clip-rule="evenodd" fill="#F0B11E" d="M30.3,287.5c1.4-0.9,2.6-1.9,3.8-2.9c4-3.2,6.1-7.4,6.2-12.5
			c0.1-3.2,0.2-6.3,1.5-9.3c0.5-1.2,1.1-2.2,1.8-3.3c2-3,5.1-3.2,8.3-3.6c0.8-0.1,0.5,0.4,0.2,0.8c-0.8,1.2-1.4,2.5-1.9,3.8
			c-0.8,2.1-1.2,4.4-1,6.7c0.1,1.2,0.2,2.5,0.2,3.7c-0.2,5.5-3,9.3-7.7,11.8c-3.4,1.8-7,3.2-10.7,4.6
			C30.8,287.5,30.5,287.5,30.3,287.5z" />
      <path fill-rule="evenodd" clip-rule="evenodd" fill="#069449" d="M379.9,188.2c2.7,0.2,5.3,0.5,7.9,1.2c2.1,0.5,2.9,2.1,2.4,4.2
			c-0.1,0.5-0.1,1-0.3,1.4c-1.4,2.6-0.8,4.8,0.6,7.2c1.7,2.9,3,6.1,3.5,9.5c0.2,1.4-0.2,2.7-0.4,4.1c-0.2,2.1-0.5,4.1-0.8,6.2
			c-0.1,0.6-0.3,0.9-0.8,1.1c-2.3,1-4.5,2.1-7,2.6c-0.9,0.2-1.7,0-2.4-0.3c-3.7-1.8-7.6-3.1-11.5-4.4c-1.1-0.4-2.3-0.4-3.4-0.4
			c-3.4,0-6.8-0.6-10.3-0.3c-1.8,0.1-3.5,0.5-5.3,0.7c2.1-1,4.4-1.4,6.7-1.7c4.3-0.7,8.7-0.9,13-0.9c3.7,0,7.2,1.2,10.6,2.5
			c1.8,0.7,3.6,1.1,5.6,0.5c1.2-0.4,1.9-1,2.2-2.2c1-3.7,0.8-7.3-0.3-10.9c-0.9-3-2.4-5.7-4-8.4c-0.4-0.6-0.6-1,0-1.7
			c1-1.3,1.3-2.9,1.5-4.5c0.1-0.9-0.4-1.6-1-2.2c-0.9-0.8-2-1.3-3.1-1.8C382.2,189.2,381.1,188.7,379.9,188.2z" />
      <path fill-rule="evenodd" clip-rule="evenodd" fill="#D79C2B" d="M237.9,1.5c3.1-1,6.1-1.7,9.2-1.5c1.3,0.1,2.3,0.7,3.3,1.3
			c2.3,1.5,4.4,3.3,6.6,5.1c2.5,2.1,5.2,3.7,8.5,4.4c0.4,0.1,0.7,0.3,1.1,0.4c-3.2,2.6-9.1,3.6-12.8,0.4c-1.9-1.7-3.9-3.3-5.8-4.9
			C245.1,4.2,241.9,2.2,237.9,1.5z" />
      <path fill-rule="evenodd" clip-rule="evenodd" fill="#D79C2B" d="M120.8,104.7c-1.7,1.1-3.5,1.7-5.5,1.9c-3.9,0.4-7.8,0.8-11.8,1
			c-2.5,0.2-5,0.3-7.6,0.6c-4,0.5-7.9,1.6-11.7,2.9c-5.2,1.9-9.7,4.9-13.8,8.7c-0.2,0.2-0.5,0.4-0.8,0.5c2.7-4.9,6.5-8.5,11.7-10.7
			c10.7-4.6,21.9-6.2,33.5-5c0.6,0.1,1.2,0.1,1.9,0.2c0.9,0.4,1.8,0.3,2.7,0C119.9,104.7,120.4,104.7,120.8,104.7z" />
      <path fill-rule="evenodd" clip-rule="evenodd" fill="#D79C2B" d="M393.7,83c-0.7,0-1.2-0.4-1.8-0.7c-3.3-1.7-6.4-3.8-10.1-4.2
			c-2.3-0.2-4.6-0.4-7-0.3c-5.2,0.2-10.5,0.8-15.5-1.5c-2.6-1.1-4.7-2.8-6.5-5c-1.6-1.9-3.3-3.6-5.2-5.1c-0.3-0.2-0.8-0.3-0.6-0.7
			c0.2-0.4,0.7-0.3,1.1-0.1c0.8,0.4,1.5,0.7,2.4,0.8c4.2,3.8,8.5,7.4,14.5,8c4.1,0.4,8.2,0.7,12.3,0.8c3.3,0.1,6.2,0.9,9,2.5
			C388.9,79,391.5,80.8,393.7,83z" />
      <path fill-rule="evenodd" clip-rule="evenodd" fill="#116636" d="M275.1,78.7c3.7-5.9,11.1-11.3,20.3-14.8
			c-0.1,0.6-0.5,0.8-0.8,1.2c-2,2.6-4.4,4.9-6.1,7.7c-1.5,2.5-2.7,5.1-3.3,8c-0.2,0.7-0.3,1-1.1,0.5c-2.3-1.6-5-1.9-7.7-2.3
			C276,78.9,275.5,79,275.1,78.7z" />
      <path fill-rule="evenodd" clip-rule="evenodd" fill="#D79C2B" d="M280,38.3c0.1,0.2,0.3,0.4,0.4,0.7c0.2,0.4,0.9,0.6,0.6,1
			c-0.3,0.4-0.8-0.1-1.2-0.2c-3.9-1.4-7.8-2.7-11.9-3.2c-2.4-0.3-4.9-0.3-7.3-0.1c-2.8,0.2-5.5,0.7-8.3,1c-2.6,0.3-5.1,0.4-7.7,0.3
			c-4.4-0.2-8.7-1-12.8-2.6c-1.6-0.6-3-1.6-4.2-2.8c-0.4-0.4-0.9-0.8-1.5-1.1c0.3-1,0.7-0.3,1.1-0.1c3.8,1.8,7.8,3.3,12,4
			c5,0.8,9.9,0.5,14.9-0.1c6-0.7,12.1-1,18.1-0.2c2.4,0.3,4.6,1.1,6.5,2.6c0.2,0.2,0.5,0.7,0.9,0.3l0,0
			C279.3,38.2,279.6,38.2,280,38.3z" />
      <path fill-rule="evenodd" clip-rule="evenodd" fill="#D79C2B" d="M75,208.7c0,0.7-0.5,1-0.9,1.4c-3.4,3.4-6.5,7-9.4,10.9
			c-2.8,3.9-4.6,8.2-6,12.7c-1.2,3.9-2.2,8-2.6,12.1c-0.7,6.1-0.9,12.2,1.7,18.1c0.2,0.4,0.5,0.8,0.2,1.3c-2.9-3.8-4.2-8.1-4.1-12.7
			c0.2-10.6,1.9-20.8,7.3-30.1c2.8-4.8,6.9-8.2,11.1-11.6C73.2,210,74.1,209.4,75,208.7z" />
      <path fill-rule="evenodd" clip-rule="evenodd" fill="#D79C2B" d="M348.4,52.4c3.1-1.9,5.8-4.2,8-7.1c1.5-2,2.6-4.3,2.9-6.8
			c0.5-4.3,3-7,6.6-9c1-0.5,1.9-1,2.9-1.5c0.1,0.1,0.1,0.2,0.2,0.3c-0.6,0.7-1.1,1.4-1.7,2c-3,3-4.5,6.7-4.8,10.9
			c-0.1,1.2-0.4,2.4-0.6,3.6c-0.3,2.3-1.6,4-3.7,5.1C355.2,51.5,351.9,52.3,348.4,52.4z" />
      <path fill-rule="evenodd" clip-rule="evenodd" fill="#D79C2B" d="M212.9,33.1c-1.2-0.4-2.5-0.1-3.8-0.3c-5.3-1-9.3-3.9-12.5-8
			c-2.5-3.2-4.7-6.7-7.2-9.9c-3-3.9-6.9-6.4-11.8-7.1c-0.1,0-0.2-0.1-0.3-0.2c1.7-0.5,3.3,0.2,4.9,0.5c4.7,0.9,8.1,3.9,11,7.5
			c1.6,2,3.1,4,4.6,6.1c1.6,2.2,3.5,4.1,5.9,5.6c2.9,1.9,5.8,3.8,8.9,5.3C212.9,32.5,213.5,32.6,212.9,33.1z" />
      <path fill-rule="evenodd" clip-rule="evenodd" fill="#D79C2B" d="M180.1,17.9c-0.3,0.3-0.6,0.3-1,0.3c-4.5-0.7-9-1.2-13.5-1
			c-3.5,0.2-7,0.9-10.5,1.5c-3.5,0.6-7,1-10.5,1.2c-1.5,0.1-3.1,0.2-4.6,0.3c-6.1,0.4-11.2-1.7-15.8-5.5c-1.5-1.2-3-2.5-4.5-3.7
			c-0.3-0.2-0.4-0.5-0.4-0.8c1,0.6,2,1.2,3,1.8c0.1,0.1,0.2,0.1,0.3,0.2l0,0c0.1,0.3,0.3,0.3,0.5,0.3l0,0c0.2,0.4,0.4,0.6,0.9,0.5
			c0,0,0,0,0,0c0.7,1.1,2,1.6,3.1,2.2c2.7,1.6,5.4,3.2,8.6,3.2c3.2,0,6.4,0.1,9.6-0.2c4-0.4,8-1,11.9-1.8c5.7-1.2,11.5-1.8,17.2-0.1
			c1.8,0.5,3.6,1,5.3,1.6c0.1,0,0.1,0,0.2,0.1C179.8,17.8,179.9,17.8,180.1,17.9L180.1,17.9z" />
      <path fill-rule="evenodd" clip-rule="evenodd" fill="#D79C2B" d="M119.3,49.1c3.5,1.2,7,1.5,10.6,1.3c1.3,0,2.7,0.2,4,0.2
			c2.9,0.2,4.9,1.7,6.5,3.9c1.2,1.6,0.8,3.5,1.3,5.5c-1.1-0.8-2.1-1.5-3-2.2c-2.2-1.6-4.6-2.6-7.5-2.1c-4.3,0.7-7.7-0.6-10.1-4.3
			C120.7,50.6,120,49.8,119.3,49.1z" />
      <path fill-rule="evenodd" clip-rule="evenodd" fill="#069449" d="M296.2,62.1c-1.9,0.8-3.7,1.7-5.6,2.5c-4.7,1.9-8.6,4.9-12.3,8.2
			c-1.9,1.7-3.7,3.6-5.6,5.4c-0.2,0.2-0.4,0.6-0.8,0.5c-2.9-0.8-5.9-0.2-8.9-0.3C266.2,73.9,285.5,64.4,296.2,62.1z" />
      <path fill-rule="evenodd" clip-rule="evenodd" fill="#D79C2B" d="M74.3,256.2c-0.2,0-0.5,0-0.5-0.3c-1.2-5.7-0.6-10,4.7-14.4
			c3.5-2.9,7.1-5.7,10.2-8.9c2.4-2.5,3.9-5.7,5.4-8.8c0.8-1.6,1.2-3.4,2.5-4.8c-0.9,8.2-4.5,15-11.2,20c-1.6,1.2-3.2,2.6-4.8,3.9
			c-3,2.6-5.5,5.5-6,9.6c-0.6,0.5-0.4,1-0.2,1.6C74.5,254.8,74.5,255.5,74.3,256.2z" />
      <path fill-rule="evenodd" clip-rule="evenodd" fill="#D79C2B" d="M362.5,53.2c-0.3,1.9-1.6,3.2-2.7,4.6c-2.2,2.7-5.3,3.5-8.6,4.1
			c-4.9,0.8-9.9,1.6-14.6,3.3c-4.4,1.5-8.6,3.4-12.3,6.3c-0.4,0.3-0.8,0.8-1-0.1l0,0c0.2,0,0.4-0.1,0.5-0.4c0,0,0,0,0,0
			c0.2,0,0.3-0.1,0.3-0.3l0,0c0.1-0.1,0.2-0.2,0.3-0.3c3.1-2.8,6.8-4.5,10.5-6.3c5-2.4,10.3-3.8,15.7-4.7
			C355.1,58.5,359.3,56.8,362.5,53.2z" />
      <path fill-rule="evenodd" clip-rule="evenodd" fill="#D79C2B" d="M70,50.3c-2.7-0.3-5.2-0.6-7.8-0.9c-0.4,0-0.7-0.1-1.1-0.1
			c-4.2,0.4-7.4-1.5-9.9-4.8c-0.6-0.8-1.4-1.5-2.2-2.4c1.6,0.1,2.9,0.5,4.1,1.2c2.1,1.2,4.4,1.4,6.7,1.4
			C64.9,44.6,67.2,45.9,70,50.3z" />
      <path fill-rule="evenodd" clip-rule="evenodd" fill="#D79C2B" d="M201.9,87c0.3-1.2,1.3-1.8,2.1-2.5c5.9-5.3,13.2-7.6,20.8-9.4
			c1.6-0.4,3.3-0.3,5-0.7c0.8,0.2,1.7,0.4,2.5,0.6c0,0.1,0,0.1,0,0.2c-1.7,0.4-3.4,0.8-5.1,1.3c-8.4,2.2-16.2,5.8-23.8,10
			C202.9,86.8,202.5,87.1,201.9,87z" />
      <path fill-rule="evenodd" clip-rule="evenodd" fill="#D79C2B" d="M97.8,240.4c-1.2-0.1-2,1-3.3,1.3c0.3-0.9,1-1.1,1.5-1.6
			c4.1-4.1,6.9-9,9-14.3c1.4-3.6,2.2-7.3,3.7-10.8c0.3-0.7,0.7-1.4,1.3-2c-0.5,2.4-0.9,4.8-1.4,7.1c-0.1,0.5-0.2,0.9-0.1,1.4
			c0,0,0,0,0,0c-0.5,0.3-0.4,0.7-0.3,1.2c0,0,0,0,0,0c-0.4,0.2-0.3,0.6-0.3,1c0,0,0,0.1,0,0.1c-0.4,0.2-0.3,0.6-0.3,1
			c-1.1,4.1-2.6,8-5.3,11.4c-0.1,0.1-0.2,0.2-0.3,0.3l0,0c-0.3,0.1-0.3,0.3-0.3,0.5c-0.5,0.8-1.1,1.4-1.8,1.9c-0.3,0-0.5,0-0.5,0.4
			l0,0c-0.2,0-0.3,0.1-0.3,0.3c0,0,0,0,0,0c-0.2,0-0.3,0.1-0.3,0.3l0,0c-0.1,0.1-0.2,0.2-0.3,0.3l0,0
			C98.2,239.8,97.8,239.8,97.8,240.4L97.8,240.4z" />
      <path fill-rule="evenodd" clip-rule="evenodd" fill="#069449" d="M385,211c-1-1.2-1.2-2.8-1.9-4.1c-1.3-2.4-2.9-4.4-5.7-5
			c-0.9-0.2-1.7-0.8-2.4-1.5c-1.8-1.8-1.8-3.8,0.1-5.5c2-1.8,5.9-1.2,7.4,1c-0.8-0.2-1.6-0.4-2.4-0.3c-1.8,0.3-2.4,1.7-1.4,3.2
			c0.1,0.2,0.3,0.5,0.5,0.6c2.6,1.6,3.8,4,4.3,6.9C384,207.9,384.9,209.4,385,211z" />
      <path fill-rule="evenodd" clip-rule="evenodd" fill="#D79C2B" d="M223.6,73.6c-0.8,0.1-1.6,0.2-2.7,0.4c4.9-4.1,10.2-6.7,16.2-7.9
			c0.9-0.2,1.7-0.3,2.6-0.5c1.8,0.1,3.4,0.5,4.9,1.4c-0.1,0.4-0.5,0.4-0.8,0.4c-6.8,0.9-13.3,3-19.6,5.6
			C224,73.2,223.6,73.2,223.6,73.6z" />
      <path fill-rule="evenodd" clip-rule="evenodd" fill="#F0B11E" d="M179.5,17.6c-1.8-0.5-3.6-1-5.3-1.6c-5.7-1.7-11.5-1.1-17.2,0.1
			c-3.9,0.8-7.9,1.5-11.9,1.8c-3.2,0.3-6.4,0.2-9.6,0.2c-3.2,0-6-1.6-8.6-3.2c-1.1-0.7-2.3-1.1-3.1-2.2c2,1,3.9,1.9,5.9,2.9
			c3.2,1.7,6.7,2.2,10.3,2.2c6-0.1,11.9-0.9,17.7-2.4c4.9-1.2,9.9-1,14.9-0.3C175,15.5,177.4,16.4,179.5,17.6z" />
      <path fill-rule="evenodd" clip-rule="evenodd" fill="#D79C2B" d="M70,240.9c0.7,1.7,1.1,3.6,1,5.4c-0.1,2.9,0.6,5.6,1.2,8.4
			c0.1,0.3,0.2,0.5-0.1,0.7c-1.5-2.2-2.2-4.6-2.3-7.3C69.7,245.7,69.8,243.3,70,240.9z" />
      <path fill-rule="evenodd" clip-rule="evenodd" fill="#069449" d="M338.9,156c-0.1,0.1-0.2,0.2-0.3,0.3c-1.1-1.3-2.2-2.6-3.3-3.9
			c0.1-0.1,0.2-0.1,0.2-0.2C336.7,153.5,337.8,154.8,338.9,156z" />
      <path fill-rule="evenodd" clip-rule="evenodd" fill="#069449" d="M320,205.3c0-0.5-0.4-0.7-0.5-1.1c1,0.8,2.2,1.4,3.4,2.6
			C321.7,206.2,320.9,205.8,320,205.3z" />
      <path fill-rule="evenodd" clip-rule="evenodd" fill="#F0B11E" d="M58.4,164c-0.9,0.9-1.9,1.5-3.3,1.6
			C56.1,164.8,57.2,164.3,58.4,164z" />
      <path fill-rule="evenodd" clip-rule="evenodd" fill="#D79C2B" d="M248.8,78.4c0-0.1-0.1-0.2-0.1-0.3c0.5-0.3,1.1,0,1.6-0.1
			C249.8,78.2,249.3,78.4,248.8,78.4z" />
      <path fill-rule="evenodd" clip-rule="evenodd" fill="#069449" d="M239.2,195.9c-0.9-0.5-1.6-1.1-2-2.1
			C238.1,194.3,238.7,195.1,239.2,195.9z" />
      <path fill-rule="evenodd" clip-rule="evenodd" fill="#F0B11E" d="M233.5,64.6c-1.7,0.3-3.4,0.3-5.1,0
			C230.1,64.5,231.8,64.5,233.5,64.6z" />
      <path fill-rule="evenodd" clip-rule="evenodd" fill="#F0B11E" d="M119.5,104.7c-0.9,0.3-1.8,0.4-2.7,0
			C117.7,104.7,118.6,104.7,119.5,104.7z" />
      <path fill-rule="evenodd" clip-rule="evenodd" fill="#069449" d="M314.9,203.3c0.5,0.1,0.9,0.1,1.3,0.5
			C315.7,203.7,315.3,203.6,314.9,203.3z" />
      <path fill-rule="evenodd" clip-rule="evenodd" fill="#F0B11E" d="M54.4,165.9c-0.1,0.7-0.5,0.9-1.2,0.7
			C53.6,166.2,54,166.1,54.4,165.9z" />
      <path fill-rule="evenodd" clip-rule="evenodd" fill="#F0B11E" d="M53.2,166.6c0,0.8-0.5,0.7-1,0.6
			C52.5,166.9,52.8,166.7,53.2,166.6z" />
      <path fill-rule="evenodd" clip-rule="evenodd" fill="#F0B11E" d="M74.4,254c-0.2-0.6-0.4-1.1,0.2-1.6
			C74.6,253,74.5,253.5,74.4,254z" />
      <path fill-rule="evenodd" clip-rule="evenodd" fill="#F0B11E" d="M232.6,9.2c-0.2-0.2-0.4-0.4-0.3-0.7c0.3,0.1,0.4,0.3,0.5,0.5
			C232.7,9.1,232.6,9.2,232.6,9.2z" />
      <path fill-rule="evenodd" clip-rule="evenodd" fill="#D79C2B" d="M58,265.1c0.6,0.1,0.6,0.6,0.7,1C58.4,265.9,58.2,265.5,58,265.1
			z" />
      <path fill-rule="evenodd" clip-rule="evenodd" fill="#F0B11E" d="M97.8,240.4c0-0.6,0.4-0.6,0.8-0.5
			C98.4,240.2,98.2,240.4,97.8,240.4z" />
      <path fill-rule="evenodd" clip-rule="evenodd" fill="#F0B11E" d="M123.8,12.8c-0.4,0.1-0.7-0.1-0.9-0.5
			C123.3,12.4,123.6,12.5,123.8,12.8z" />
      <path fill-rule="evenodd" clip-rule="evenodd" fill="#F0B11E" d="M108.3,222.8c0-0.4-0.2-0.9,0.3-1.2
			C108.6,222,108.6,222.4,108.3,222.8z" />
      <path fill-rule="evenodd" clip-rule="evenodd" fill="#D79C2B" d="M201.4,87.5c0-0.4,0.2-0.5,0.6-0.5
			C201.9,87.3,201.7,87.5,201.4,87.5z" />
      <path fill-rule="evenodd" clip-rule="evenodd" fill="#F0B11E" d="M52.3,167.3c0,0.4-0.2,0.6-0.6,0.4
			C51.8,167.4,52,167.3,52.3,167.3z" />
      <path fill-rule="evenodd" clip-rule="evenodd" fill="#069449" d="M318.4,204.6c0.2-0.1,0.4,0,0.5,0.2
			C318.6,204.9,318.5,204.8,318.4,204.6z" />
      <path fill-rule="evenodd" clip-rule="evenodd" fill="#069449" d="M240,196.7c-0.3,0-0.5-0.2-0.6-0.6
			C239.8,196.2,239.9,196.4,240,196.7z" />
      <path fill-rule="evenodd" clip-rule="evenodd" fill="#F0B11E" d="M107.7,224.8c0-0.4-0.1-0.8,0.3-1
			C108,224.1,108,224.5,107.7,224.8z" />
      <path fill-rule="evenodd" clip-rule="evenodd" fill="#F0B11E" d="M108,223.7c0-0.4-0.1-0.7,0.3-1
			C108.3,223.1,108.3,223.4,108,223.7z" />
      <path fill-rule="evenodd" clip-rule="evenodd" fill="#F0B11E" d="M99.5,239.2c0-0.3,0.2-0.4,0.5-0.4
			C99.9,239,99.7,239.1,99.5,239.2z" />
      <path fill-rule="evenodd" clip-rule="evenodd" fill="#F0B11E" d="M101.8,236.9c0-0.2,0.1-0.4,0.3-0.5
			C102.1,236.6,102,236.8,101.8,236.9z" />
      <path fill-rule="evenodd" clip-rule="evenodd" fill="#D79C2B" d="M75.8,208.2c-0.1,0.3-0.3,0.3-0.5,0.3
			C75.4,208.3,75.6,208.2,75.8,208.2z" />
      <path fill-rule="evenodd" clip-rule="evenodd" fill="#F0B11E" d="M323.7,70.8c0,0.3-0.2,0.4-0.5,0.4
			C323.3,71,323.4,70.9,323.7,70.8z" />
      <path fill-rule="evenodd" clip-rule="evenodd" fill="#069449" d="M300,325.3c0.4,0,0.4,0.3,0.4,0.5
			C300.2,325.8,300.1,325.6,300,325.3z" />
      <path fill-rule="evenodd" clip-rule="evenodd" fill="#069449" d="M299.5,324.6c0.4-0.1,0.4,0.2,0.4,0.5
			C299.6,325,299.5,324.8,299.5,324.6z" />
      <path fill-rule="evenodd" clip-rule="evenodd" fill="#069449" d="M334.4,129c-0.2,0-0.4-0.1-0.5-0.3
			C334.2,128.7,334.3,128.8,334.4,129z" />
      <path fill-rule="evenodd" clip-rule="evenodd" fill="#F0B11E" d="M123,12.3c-0.2,0-0.5,0-0.5-0.3C122.7,12,122.9,12.1,123,12.3z" />
      <path fill-rule="evenodd" clip-rule="evenodd" fill="#069449" d="M281.2,116.7c0.2,0,0.5,0.1,0.5,0.3
			C281.4,117,281.3,116.9,281.2,116.7z" />
      <path fill-rule="evenodd" clip-rule="evenodd" fill="#F0B11E" d="M98.6,239.9c0.1-0.1,0.2-0.2,0.3-0.3
			C98.8,239.7,98.7,239.8,98.6,239.9z" />
      <path fill-rule="evenodd" clip-rule="evenodd" fill="#F0B11E" d="M98.9,239.6c0-0.2,0.1-0.3,0.3-0.3
			C99.1,239.5,99,239.6,98.9,239.6z" />
      <path fill-rule="evenodd" clip-rule="evenodd" fill="#F0B11E" d="M99.2,239.4c0-0.2,0.1-0.3,0.3-0.3
			C99.4,239.2,99.3,239.3,99.2,239.4z" />
      <path fill-rule="evenodd" clip-rule="evenodd" fill="#F0B11E" d="M102.1,236.4c0.1-0.1,0.2-0.2,0.3-0.3
			C102.3,236.2,102.2,236.3,102.1,236.4z" />
      <path fill-rule="evenodd" clip-rule="evenodd" fill="#F0B11E" d="M324.2,70.3c-0.1,0.1-0.2,0.2-0.3,0.3
			C324,70.5,324.1,70.4,324.2,70.3z" />
      <path fill-rule="evenodd" clip-rule="evenodd" fill="#D79C2B" d="M300.9,48.7C300.9,48.7,300.8,48.6,300.9,48.7
			c-0.1-0.1,0-0.1,0-0.1C300.9,48.6,300.9,48.6,300.9,48.7C300.9,48.6,300.9,48.7,300.9,48.7z" />
      <path fill-rule="evenodd" clip-rule="evenodd" fill="#F0B11E" d="M114.9,7.8c0,0-0.1,0-0.1,0c0,0,0-0.1,0-0.1
			C114.9,7.7,114.9,7.7,114.9,7.8L114.9,7.8z" />
      <path fill-rule="evenodd" clip-rule="evenodd" fill="#069449" d="M299.8,325c0.2,0,0.3,0.1,0.2,0.3
			C299.9,325.3,299.8,325.2,299.8,325z" />
      <path fill-rule="evenodd" clip-rule="evenodd" fill="#D79C2B" d="M69.9,240.2L69.9,240.2L69.9,240.2z" />
      <path fill-rule="evenodd" clip-rule="evenodd" fill="#F0B11E" d="M58.7,163.8c-0.1,0.1-0.2,0.1-0.4,0.2
			C58.5,164,58.6,163.9,58.7,163.8z" />
      <path fill-rule="evenodd" clip-rule="evenodd" fill="#F0B11E" d="M55,165.6c0,0.1,0,0.1,0.1,0.2c-0.1-0.1-0.1-0.1-0.2-0.2
			L55,165.6z" />
      <path fill-rule="evenodd" clip-rule="evenodd" fill="#F0B11E" d="M180,17.9c-0.1-0.1-0.2-0.1-0.3-0.2
			C179.8,17.8,179.9,17.8,180,17.9z" />
      <path fill-rule="evenodd" clip-rule="evenodd" fill="#069449" d="M334,128.7c-0.2,0-0.3-0.1-0.3-0.3
			C333.8,128.5,333.9,128.6,334,128.7z" />
      <path fill-rule="evenodd" clip-rule="evenodd" fill="#D79C2B" d="M149.2,34C149.2,34,149.1,34,149.2,34c-0.1-0.1-0.1-0.1-0.1-0.1
			C149.1,33.9,149.2,34,149.2,34C149.2,34,149.2,34,149.2,34z" />
      <path fill-rule="evenodd" clip-rule="evenodd" fill="#F0B11E" d="M122.5,12c-0.1-0.1-0.2-0.1-0.3-0.2
			C122.3,11.9,122.4,12,122.5,12z" />
      <path fill-rule="evenodd" clip-rule="evenodd" fill="#069449" d="M239.5,196.1c-0.2,0-0.3-0.1-0.3-0.3
			C239.3,195.9,239.4,196,239.5,196.1z" />
      <path fill-rule="evenodd" clip-rule="evenodd" fill="#069449" d="M240.4,197c-0.1,0-0.1-0.1-0.2-0.2
			C240.3,196.9,240.3,197,240.4,197z" />
      <path fill-rule="evenodd" clip-rule="evenodd" fill="#069449" d="M319.5,204.2c-0.2,0-0.3-0.1-0.3-0.3
			C319.4,203.9,319.5,204,319.5,204.2z" />
      <path fill-rule="evenodd" clip-rule="evenodd" fill="#D79C2B" d="M76.1,208c-0.1,0.1-0.2,0.2-0.3,0.3
			C75.9,208.1,76,208.1,76.1,208z" />
      <path fill-rule="evenodd" clip-rule="evenodd" fill="#D79C2B" d="M96.8,218.8c0.1,0.1,0.1,0.1,0.2,0.2
			C96.9,218.9,96.8,218.9,96.8,218.8z" />
      <path fill-rule="evenodd" clip-rule="evenodd" fill="#F0B11E" d="M323.9,70.6c0,0.2-0.1,0.3-0.3,0.3
			C323.7,70.8,323.8,70.7,323.9,70.6z" />
      <path fill-rule="evenodd" clip-rule="evenodd" fill="#069449" d="M170.6,146.2C170.6,146.1,170.6,146.1,170.6,146.2
			c0.1-0.1,0.1-0.1,0.1-0.1C170.7,146.1,170.6,146.1,170.6,146.2L170.6,146.2z" />
      <path fill-rule="evenodd" clip-rule="evenodd" fill="none" d="M165.5,79.8c0,0-0.1,0-0.1-0.1C165.4,79.7,165.5,79.7,165.5,79.8
			C165.5,79.7,165.5,79.8,165.5,79.8L165.5,79.8z" />
      <path fill-rule="evenodd" clip-rule="evenodd" fill="#D79C2B" d="M50.9,168.3c0.2,0.1,0.4,0.1,0.5,0.3c0,0-0.1,0.1-0.1,0.1
			C50.9,168.8,51,168.5,50.9,168.3C50.9,168.3,50.9,168.3,50.9,168.3z" />
      <path fill-rule="evenodd" clip-rule="evenodd" fill="none" d="M53.8,206.7c0,0.1,0.1,0.1,0.1,0.2c0,0-0.1,0-0.1,0.1
			C53.7,206.8,53.7,206.8,53.8,206.7C53.7,206.7,53.7,206.7,53.8,206.7z" />
      <path fill-rule="evenodd" clip-rule="evenodd" fill="none" d="M53.1,207.2c0.1-0.2,0.1-0.3,0.3-0.1c0,0-0.1,0.2-0.2,0.2
			C53.2,207.2,53.1,207.2,53.1,207.2z" />
      <path fill-rule="evenodd" clip-rule="evenodd" fill="none" d="M53.2,207.3c-0.1,0-0.2,0.1-0.3,0.1c-0.1-0.2,0-0.2,0.2-0.2
			C53.1,207.2,53.2,207.2,53.2,207.3z" />
      <path fill-rule="evenodd" clip-rule="evenodd" fill="none" d="M83.6,213.9c0,0.1,0,0.1,0,0.2C83.4,214,83.6,213.9,83.6,213.9
			L83.6,213.9z" />
      <path fill-rule="evenodd" clip-rule="evenodd" fill="#116636" d="M266.1,171.4c-0.2,0-0.4-0.1-0.5-0.3l0,0
			C265.9,171,266.1,171.1,266.1,171.4L266.1,171.4z" />
      <path fill-rule="evenodd" clip-rule="evenodd" fill="#116636" d="M265.6,171.1C265.6,171,265.6,171,265.6,171.1
			c-0.1-0.1-0.1-0.1-0.1-0.1C265.6,171,265.6,171,265.6,171.1L265.6,171.1z" />
      <path fill-rule="evenodd" clip-rule="evenodd" fill="none" d="M280,38.3c-0.3-0.1-0.7-0.1-0.4-0.6C279.7,37.9,279.8,38.1,280,38.3
			z" />
      <path fill-rule="evenodd" clip-rule="evenodd" fill="none" d="M242.5,42.1c0-0.1-0.1-0.2-0.1-0.3c0.1,0,0.2,0.1,0.3,0.1
			C242.6,42,242.6,42.1,242.5,42.1z" />
      <path fill-rule="evenodd" clip-rule="evenodd" fill="#069449" d="M368.4,229.7c-2.2-0.6-4.5-1.1-6.6-1.8
			c-3.5-1.1-7.1-1.6-10.7-1.7c-0.6,0-1.5,0.1-1.6-0.8c0-0.9,0.5-1.3,1.4-1.3c2.8-0.3,5.6-0.6,8.5-1c0.4,0,0.7,0,1,0.3
			c2.2,2.5,5.3,3.9,7.9,5.9c0.1,0.1,0.2,0.2,0.3,0.3C368.5,229.6,368.4,229.7,368.4,229.7z" />
      <path fill-rule="evenodd" clip-rule="evenodd" fill="none" d="M305.7,55.6c0.1-0.1,0.3-0.2,0.4,0c0,0-0.1,0.1-0.2,0.2
			C305.8,55.7,305.7,55.6,305.7,55.6z" />
      <path fill-rule="evenodd" clip-rule="evenodd" fill="#D79C2B" d="M322.3,72.2c0,0.1,0.3,0.1,0.1,0.2
			C322.4,72.3,322.3,72.3,322.3,72.2L322.3,72.2z" />
      <path fill-rule="evenodd" clip-rule="evenodd" fill="none" d="M34.6,161.5C34.6,161.6,34.6,161.6,34.6,161.5
			c0,0.1-0.1,0.1-0.1,0.1C34.4,161.6,34.4,161.6,34.6,161.5C34.5,161.5,34.6,161.5,34.6,161.5z" />
      <path fill-rule="evenodd" clip-rule="evenodd" fill="#F0B11E" d="M316,137.1c-9.6,1.7-14.3-1.4-18.8-11.3
			C304.2,128.6,310,132.9,316,137.1z" />
      <path fill-rule="evenodd" clip-rule="evenodd" fill="none" d="M311.3,64.7c0.1-0.3,0.2-0.6,0.5-0.3c0.3,0.2-0.1,0.4-0.2,0.6
			C311.5,64.9,311.4,64.8,311.3,64.7z" />
    </g>
    <g>
      <path fill="none" d="M106.4,365c0.2,0.2,0.5,0.4,0.7,0.5c4,3,8,5.9,12,8.9c0.7,0.5,1.4,0.8,2.3,0.7c17.1,0,34.3,0,51.4,0
			c0.4,0,0.7,0,1.2,0c3.3-8.5,6.7-17.1,10-25.6c-0.3-0.2-0.5-0.4-0.7-0.6c-2.9-2.1-5.8-4.3-8.8-6.4c-0.9-0.6-0.9-0.6-0.5-1.6
			c4.2-10.9,8.4-21.9,12.6-32.8c3.6-9.5,7.3-18.9,10.9-28.4c0.1-0.2,0.2-0.4,0.3-0.7c0.3,0.2,0.6,0.4,0.8,0.6
			c2.8,2.2,5.7,4.4,8.5,6.6c0.4,0.3,0.8,0.4,1.3,0.4c8.5,0,17,0,25.5,0c0.3,0,0.5,0,0.8,0c5.1-13,10.1-25.8,15.2-38.8
			c-0.2-0.2-0.5-0.4-0.7-0.5c-4.2-3-8.3-6-12.4-9.1c-0.5-0.4-1-0.5-1.6-0.5c-35.2,0-70.3,0-105.5,0c-0.3,0-0.6,0-0.9,0
			c-4.8,12.6-9.7,25.1-14.5,37.6c-2.6,0-5.2,0-7.8,0c0.2-0.5,0.3-1,0.5-1.5c1.3-3.3,2.6-6.6,3.8-9.9c5.5-14.4,11.1-28.9,16.6-43.3
			c1.1-3,2.3-5.9,3.4-8.9c0.1-0.4,0.3-0.7,0.8-0.7c4,0,8,0,12,0.1c0.2,0,0.4,0,0.7,0c3.4-8.7,6.9-17.4,10.3-26.1
			c-1.8-1.3-3.4-2.6-5.1-3.8c-2.5-1.9-5.1-3.7-7.6-5.6c-0.5-0.4-1-0.6-1.6-0.6c-17.7,0-35.3,0-53,0c-0.3,0-0.6,0-0.9,0
			c-3.3,8.8-6.6,17.4-9.9,26.2c2.2,1.7,4.4,3.4,6.5,5.1c1,0.8,2,1.5,2.9,2.3c0.7,0.6,0.7,0.6,0.4,1.5c0,0.1,0,0.1-0.1,0.2
			c-2.1,5.4-4.2,10.8-6.3,16.3c-5.4,14-10.8,28.1-16.2,42.1c-0.9,2.3-1.8,4.6-2.6,6.9c-0.4,0-0.8,0.1-1.1,0.1c-1.2,0-2.4,0-3.6,0
			c-2.7,0-5.3,0-8,0c-0.5,0-0.8,0.2-1,0.7c-0.2,0.5-0.4,1-0.6,1.5c-2.8,7.4-5.6,14.8-8.4,22.2c-0.3,0.7-0.5,1.4-0.8,2.1
			c0.4,0.3,0.7,0.5,1,0.8c4.1,3,8.3,6,12.4,9c0.6,0.5,1.3,0.7,2,0.7c28.6,0,57.2,0,85.8,0c0.3,0,0.7,0,1.2,0
			c-3.3,8.6-6.6,17.2-9.9,25.8c-4.4,0-8.9,0-13.3,0C113.3,347.1,109.9,356,106.4,365z" />
      <path fill-rule="evenodd" clip-rule="evenodd" fill="#0C6635" d="M106.4,365c3.4-9,6.9-17.9,10.4-26.9c4.4,0,8.8,0,13.3,0
			c3.3-8.6,6.6-17.1,9.9-25.8c-0.5,0-0.8,0-1.2,0c-28.6,0-57.2,0-85.8,0c-0.8,0-1.4-0.2-2-0.7c-4.1-3-8.2-6-12.4-9
			c-0.3-0.2-0.6-0.5-1-0.8c0.3-0.7,0.5-1.4,0.8-2.1c2.8-7.4,5.6-14.8,8.4-22.2c0.2-0.5,0.4-1,0.6-1.5c0.2-0.5,0.4-0.7,1-0.7
			c2.7,0,5.3,0,8,0c1.2,0,2.4,0,3.6,0c0.4,0,0.7,0,1.1-0.1c0.9-2.3,1.8-4.6,2.6-6.9c5.4-14,10.8-28.1,16.2-42.1
			c2.1-5.4,4.2-10.8,6.3-16.3c0-0.1,0-0.1,0.1-0.2c0.3-0.9,0.3-0.9-0.4-1.5c-1-0.8-2-1.5-2.9-2.3c-2.2-1.7-4.3-3.4-6.5-5.1
			c3.3-8.7,6.6-17.4,9.9-26.2c0.3,0,0.6,0,0.9,0c17.7,0,35.3,0,53,0c0.6,0,1.1,0.2,1.6,0.6c2.5,1.9,5.1,3.8,7.6,5.6
			c1.7,1.3,3.4,2.5,5.1,3.8c-3.4,8.7-6.9,17.4-10.3,26.1c-0.3,0-0.5,0-0.7,0c-4,0-8,0-12-0.1c-0.5,0-0.7,0.3-0.8,0.7
			c-1.1,3-2.3,5.9-3.4,8.9c-5.5,14.4-11.1,28.9-16.6,43.3c-1.3,3.3-2.6,6.6-3.8,9.9c-0.2,0.5-0.3,0.9-0.5,1.5c2.6,0,5.2,0,7.8,0
			c4.8-12.5,9.6-25,14.5-37.6c0.3,0,0.6,0,0.9,0c35.2,0,70.3,0,105.5,0c0.6,0,1.1,0.2,1.6,0.5c4.1,3,8.3,6,12.4,9.1
			c0.2,0.2,0.4,0.3,0.7,0.5c-5.1,12.9-10.1,25.8-15.2,38.8c-0.3,0-0.5,0-0.8,0c-8.5,0-17,0-25.5,0c-0.5,0-0.9-0.1-1.3-0.4
			c-2.8-2.2-5.7-4.4-8.5-6.6c-0.2-0.2-0.5-0.4-0.8-0.6c-0.1,0.3-0.2,0.5-0.3,0.7c-3.6,9.5-7.3,18.9-10.9,28.4
			c-4.2,10.9-8.4,21.9-12.6,32.8c-0.4,0.9-0.4,0.9,0.5,1.6c2.9,2.1,5.8,4.3,8.8,6.4c0.2,0.2,0.4,0.3,0.7,0.6
			c-3.3,8.5-6.7,17.1-10,25.6c-0.4,0-0.8,0-1.2,0c-17.1,0-34.3,0-51.4,0c-0.9,0-1.6-0.2-2.3-0.7c-4-3-8-5.9-12-8.9
			C106.9,365.4,106.7,365.2,106.4,365z M196.1,275.8c1.3,0,2.5,0,3.7,0c6.5,0,12.9,0,19.4,0c1,0,1,0,1.3-0.7c1.8-4.7,3.6-9.3,5.4-14
			c2.2-5.8,4.5-11.6,6.7-17.4c0.4-1,0.8-2.1,1.2-3.2c-0.5,0-0.8,0-1.1,0c-33.6,0-67.2,0-100.7,0c-0.3,0-0.6,0-0.9,0
			c-0.5-0.1-0.8,0.2-0.9,0.7c-0.3,1-0.7,1.9-1.1,2.9c-1.8,4.6-3.5,9.1-5.2,13.7c-1.6,4.2-3.2,8.4-4.9,12.6c-0.9,2.2-1.7,4.4-2.6,6.7
			c-0.3,0.8-0.3,0.8-1.1,0.8c-0.6,0-1.2,0-1.8,0c-8.3,0-16.7,0-25,0c-0.3,0-0.7,0-1.1-0.1c0.1-0.3,0.1-0.5,0.2-0.7
			c1.7-4.5,3.5-9,5.2-13.5c1.7-4.3,3.3-8.7,4.9-13c2.3-5.9,4.6-11.7,6.8-17.6c1.7-4.4,3.3-8.7,5-13.1c2.4-6.2,4.8-12.3,7.2-18.5
			c0.4-0.9,0.4-0.9,1.4-0.9c3.8,0,7.6,0,11.4,0c0.5,0,0.8-0.1,1-0.6c1.1-2.9,2.2-5.8,3.4-8.7c1.4-3.6,2.8-7.2,4.1-10.8
			c0.3-0.9,0.7-1.7,1-2.6c-16.9,0-33.7,0-50.5,0c-1,2.5-1.9,5-2.9,7.5c-1,2.5-2,5.1-2.9,7.6c-0.9,2.5-2,5-2.9,7.6c1,0,1.9,0,2.7,0
			c0.9,0,1.7,0,2.6,0c0.8,0,1.7,0,2.5,0c0.9,0,1.7,0,2.6,0c0.9,0,1.7,0,2.7,0c-0.1,0.4-0.1,0.6-0.2,0.8c-1.6,4.1-3.1,8.2-4.7,12.3
			c-1.6,4.1-3.2,8.2-4.8,12.3c-1.9,5-3.8,9.9-5.7,14.9c-1.8,4.8-3.7,9.6-5.5,14.4c-1.4,3.7-2.9,7.4-4.3,11.2
			c-1.4,3.5-2.7,7.1-4.1,10.6c-0.3,0.9-0.4,0.9-1.3,0.9c-3.5,0-7,0-10.5,0c-0.3,0-0.7,0-1,0c-0.6,0-0.9,0.1-1.1,0.7
			c-0.4,1.2-0.9,2.4-1.3,3.6c-2.2,5.6-4.3,11.2-6.5,16.8c-0.2,0.5-0.4,1.1-0.6,1.7c30.1,0,60.2,0,90.2,0c0.1-0.3,0.3-0.6,0.4-1
			c2.3-5.8,4.5-11.7,6.8-17.5c2.3-6,4.6-11.9,6.9-17.9c0.3-0.8,0.3-0.8,1.1-0.8c4.6,0,9.3,0,13.9,0c0.2,0,0.4,0.1,0.7,0.1
			c-0.1,0.4-0.2,0.7-0.3,0.9c-1.8,4.7-3.6,9.4-5.5,14.2c-2,5.1-4,10.3-5.9,15.4c-1.8,4.6-3.5,9.1-5.2,13.7
			c-1.4,3.6-2.8,7.3-4.2,10.9c-1.7,4.5-3.4,8.9-5.2,13.4c-1,2.5-1.9,5.1-2.9,7.6c-0.4,1.1-0.5,1.1-1.6,1.1c-3.7,0-7.4,0-11,0
			c-0.3,0-0.7,0-1,0c-1,2.6-1.9,5.1-2.9,7.6c-1,2.5-2,5.1-2.9,7.6c-0.9,2.5-2,4.9-2.9,7.6c0.5,0,0.9,0,1.3,0c12.5,0,25.1,0,37.6,0
			c3.5,0,7.1,0,10.6,0c1,0,1.1,0,1.4-0.9c1.4-3.5,2.7-7,4.1-10.4c1.2-3,2.3-6,3.5-9c0.3-0.8,0.6-1.5,0.9-2.4c-0.5,0-0.8,0-1.1,0
			c-3.7,0-7.3,0-11,0c-0.3,0-0.6,0-1-0.1c0.1-0.3,0.1-0.5,0.1-0.6c1.4-3.6,2.8-7.2,4.1-10.8c1.9-4.9,3.8-9.8,5.7-14.7
			c2.8-7.2,5.5-14.3,8.3-21.5c2.2-5.6,4.4-11.2,6.5-16.8c1.5-4,3.1-8,4.6-11.9c0.3-0.7,0.3-0.7,1.1-0.7c4.7,0,9.3,0,14,0
			c0.2,0,0.4,0.1,0.7,0.1C199.3,267.5,197.6,271.6,196.1,275.8z" />
      <path fill-rule="evenodd" clip-rule="evenodd" fill="#FFFFFF" d="M196.1,275.8c1.6-4.2,3.2-8.3,4.7-12.4c-0.3-0.1-0.5-0.1-0.7-0.1
			c-4.7,0-9.3,0-14,0c-0.8,0-0.8,0-1.1,0.7c-1.5,4-3,8-4.6,11.9c-2.2,5.6-4.4,11.2-6.5,16.8c-2.8,7.2-5.5,14.3-8.3,21.5
			c-1.9,4.9-3.8,9.8-5.7,14.7c-1.4,3.6-2.8,7.2-4.1,10.8c-0.1,0.2-0.1,0.3-0.1,0.6c0.4,0,0.7,0.1,1,0.1c3.7,0,7.3,0,11,0
			c0.3,0,0.7,0,1.1,0c-0.3,0.9-0.6,1.7-0.9,2.4c-1.2,3-2.3,6-3.5,9c-1.4,3.5-2.7,7-4.1,10.4c-0.4,0.9-0.4,0.9-1.4,0.9
			c-3.5,0-7.1,0-10.6,0c-12.5,0-25.1,0-37.6,0c-0.4,0-0.7,0-1.3,0c0.9-2.6,2-5.1,2.9-7.6c0.9-2.6,2-5.1,2.9-7.6c1-2.5,1.9-5,2.9-7.6
			c0.4,0,0.7,0,1,0c3.7,0,7.4,0,11,0c1.1,0,1.2,0,1.6-1.1c1-2.5,2-5.1,2.9-7.6c1.7-4.5,3.4-8.9,5.2-13.4c1.4-3.6,2.8-7.3,4.2-10.9
			c1.8-4.6,3.5-9.1,5.2-13.7c2-5.1,4-10.3,5.9-15.4c1.8-4.7,3.6-9.4,5.5-14.2c0.1-0.3,0.2-0.6,0.3-0.9c-0.3-0.1-0.5-0.1-0.7-0.1
			c-4.6,0-9.3,0-13.9,0c-0.8,0-0.8,0-1.1,0.8c-2.3,6-4.6,11.9-6.9,17.9c-2.2,5.9-4.5,11.7-6.8,17.5c-0.1,0.3-0.3,0.6-0.4,1
			c-30.1,0-60.1,0-90.2,0c0.2-0.6,0.4-1.1,0.6-1.7c2.2-5.6,4.3-11.2,6.5-16.8c0.5-1.2,1-2.4,1.3-3.6c0.2-0.6,0.5-0.8,1.1-0.7
			c0.3,0,0.7,0,1,0c3.5,0,7,0,10.5,0c0.9,0,0.9,0,1.3-0.9c1.4-3.5,2.7-7.1,4.1-10.6c1.4-3.7,2.9-7.4,4.3-11.2
			c1.8-4.8,3.7-9.6,5.5-14.4c1.9-5,3.8-9.9,5.7-14.9c1.6-4.1,3.2-8.2,4.8-12.3c1.6-4.1,3.2-8.2,4.7-12.3c0.1-0.2,0.1-0.5,0.2-0.8
			c-0.9-0.1-1.8,0-2.7,0c-0.9,0-1.7,0-2.6,0c-0.8,0-1.7,0-2.5,0c-0.9,0-1.7,0-2.6,0c-0.9,0-1.7,0-2.7,0c0.9-2.6,2-5.1,2.9-7.6
			c0.9-2.5,2-5.1,2.9-7.6c1-2.5,1.9-5,2.9-7.5c16.8,0,33.6,0,50.5,0c-0.4,0.9-0.7,1.8-1,2.6c-1.4,3.6-2.8,7.2-4.1,10.8
			c-1.1,2.9-2.3,5.8-3.4,8.7c-0.2,0.5-0.5,0.6-1,0.6c-3.8,0-7.6,0-11.4,0c-1,0-1,0-1.4,0.9c-2.4,6.2-4.8,12.3-7.2,18.5
			c-1.7,4.4-3.3,8.7-5,13.1c-2.3,5.9-4.6,11.7-6.8,17.6c-1.7,4.3-3.3,8.7-4.9,13c-1.7,4.5-3.5,9-5.2,13.5c-0.1,0.2-0.1,0.3-0.2,0.7
			c0.4,0,0.8,0.1,1.1,0.1c8.3,0,16.7,0,25,0c0.6,0,1.2,0,1.8,0c0.8,0,0.8,0,1.1-0.8c0.9-2.2,1.7-4.4,2.6-6.7
			c1.6-4.2,3.2-8.4,4.9-12.6c1.8-4.6,3.5-9.1,5.2-13.7c0.4-1,0.8-1.9,1.1-2.9c0.2-0.5,0.4-0.7,0.9-0.7c0.3,0,0.6,0,0.9,0
			c33.6,0,67.2,0,100.7,0c0.3,0,0.7,0,1.1,0c-0.4,1.1-0.8,2.2-1.2,3.2c-2.2,5.8-4.4,11.6-6.7,17.4c-1.8,4.7-3.6,9.3-5.4,14
			c-0.3,0.7-0.3,0.7-1.3,0.7c-6.5,0-12.9,0-19.4,0C198.6,275.8,197.4,275.8,196.1,275.8z M71.7,287.6c0.2-0.5,0.3-0.8,0.4-1.2
			c3.7-9.7,7.5-19.4,11.2-29.1c4.8-12.4,9.5-24.8,14.3-37.2c3.8-10,7.7-20,11.6-30c0.3-0.8,0.3-0.8,1.2-0.8c3.8,0,7.6,0,11.3,0
			c0.2,0,0.4,0,0.6,0c0.2,0,0.4-0.1,0.5-0.2c0.3-0.7,0.7-1.4,0.9-2.3c-0.4,0-0.7,0-1,0c-9,0-17.9,0-26.9,0c-0.3,0-0.6,0-0.9,0
			c-0.2,0-0.4,0.1-0.5,0.2c-0.3,0.7-0.7,1.4-0.8,2.3c1.2,0,2.3,0,3.4,0c1.1,0,2.2,0,3.2,0c1.1,0,2.2,0,3.2,0c1.1,0,2.1-0.1,3.3,0.1
			c-0.1,0.3-0.1,0.5-0.2,0.7c-0.5,1.4-1.1,2.9-1.7,4.3c-3.3,8.6-6.6,17.2-9.9,25.8c-2.8,7.3-5.6,14.6-8.4,21.9
			c-3.8,10-7.7,19.9-11.5,29.9c-1.9,4.8-3.7,9.6-5.6,14.5c-0.4,1-0.1,1-1.4,1c-1.9,0-3.8,0-5.8,0c-1.9,0-3.8,0-5.8,0
			c-0.3,0-0.7,0.1-0.8,0.3c-0.3,0.7-0.7,1.4-0.8,2.3c0.4,0,0.7,0,1,0c16.3,0,32.7,0,49,0c6.1,0,12.3,0,18.4,0c0.8,0,0.8,0,1.1-0.8
			c0.4-1,0.8-2.1,1.2-3.1c2.9-7.4,5.7-14.8,8.6-22.3c1.4-3.5,2.7-7.1,4-10.6c0.3-0.7,0.3-0.8,1.1-0.8c0.3,0,0.6,0,0.9,0
			c11.5,0,23,0,34.4,0c0.3,0,0.6,0,1,0.1c-0.1,0.3-0.1,0.5-0.2,0.7c-1.7,4.4-3.4,8.8-5.1,13.2c-2.5,6.6-5.1,13.1-7.6,19.7
			c-2.5,6.6-5.1,13.2-7.6,19.7c-2.8,7.3-5.6,14.5-8.4,21.8c-2.9,7.4-5.7,14.8-8.6,22.3c-0.3,0.8-0.3,0.8-1.2,0.8c-3.2,0-6.4,0-9.6,0
			c-0.7,0-1.5,0-2.2,0c-0.2,0-0.6,0.1-0.7,0.2c-0.4,0.7-0.7,1.4-0.9,2.3c0.4,0,0.7,0,0.9,0c9.1,0,18.2,0,27.3,0c0.2,0,0.4,0,0.6,0
			c0.2-0.1,0.4-0.2,0.5-0.3c0.3-0.7,0.5-1.3,0.9-2.2c-4.5,0-8.9,0-13.3,0c0.1-0.3,0.1-0.5,0.2-0.7c2.3-5.9,4.5-11.7,6.8-17.6
			c3.6-9.4,7.2-18.8,10.8-28.1c3.1-8,6.1-15.9,9.2-23.9c2.4-6.1,4.7-12.3,7.1-18.4c1.1-2.9,2.2-5.8,3.3-8.7c0.3-0.9,0.3-0.9,1.3-0.9
			c0.4,0,0.8,0,1.2,0c11.3,0,22.7,0,34,0c0.3,0,0.6,0,1.1,0.1c-1.5,4.2-3.2,8.3-4.8,12.5c0.9,0,1.6,0,2.3,0c0.2,0,0.4-0.2,0.5-0.3
			c0.1-0.2,0.2-0.4,0.3-0.7c1.6-4.3,3.3-8.5,4.9-12.8c0.1-0.4,0.3-0.7,0.4-1.2c-0.4,0-0.8,0-1.1,0c-26.8,0-53.6,0-80.4,0
			c-1.1,0-1.1,0-1.5,1c-3.5,9.1-7,18.2-10.4,27.3c-1.1,2.8-2.1,5.5-3.2,8.3c-0.3,0.8-0.3,0.8-1.3,0.8c-16.2,0-32.4,0-48.6,0
			C72.5,287.6,72.2,287.6,71.7,287.6z" />
      <path fill-rule="evenodd" clip-rule="evenodd" fill="#F1B224" d="M71.7,287.6c0.5,0,0.8,0,1.1,0c16.2,0,32.4,0,48.6,0
			c0.9,0,0.9,0,1.3-0.8c1.1-2.8,2.1-5.5,3.2-8.3c3.5-9.1,7-18.2,10.4-27.3c0.4-1.1,0.4-1,1.5-1c26.8,0,53.6,0,80.4,0
			c0.3,0,0.7,0,1.1,0c-0.2,0.5-0.3,0.9-0.4,1.2c-1.6,4.3-3.3,8.5-4.9,12.8c-0.1,0.2-0.2,0.5-0.3,0.7c-0.1,0.2-0.3,0.3-0.5,0.3
			c-0.7,0-1.4,0-2.3,0c1.5-4.3,3.2-8.3,4.8-12.5c-0.4,0-0.8-0.1-1.1-0.1c-11.3,0-22.7,0-34,0c-0.4,0-0.8,0-1.2,0c-1,0-0.9,0-1.3,0.9
			c-1.1,2.9-2.2,5.8-3.3,8.7c-2.4,6.1-4.7,12.3-7.1,18.4c-3.1,8-6.1,15.9-9.2,23.9c-3.6,9.4-7.2,18.8-10.8,28.1
			c-2.3,5.9-4.5,11.7-6.8,17.6c-0.1,0.2-0.1,0.3-0.2,0.7c4.4,0,8.8,0,13.3,0c-0.3,0.9-0.6,1.5-0.9,2.2c-0.1,0.2-0.3,0.3-0.5,0.3
			c-0.2,0.1-0.4,0-0.6,0c-9.1,0-18.2,0-27.3,0c-0.3,0-0.5,0-0.9,0c0.2-0.9,0.5-1.6,0.9-2.3c0.1-0.2,0.4-0.2,0.7-0.2
			c0.7,0,1.5,0,2.2,0c3.2,0,6.4,0,9.6,0c0.9,0,0.9,0,1.2-0.8c2.9-7.4,5.7-14.8,8.6-22.3c2.8-7.3,5.6-14.5,8.4-21.8
			c2.5-6.6,5.1-13.2,7.6-19.7c2.5-6.6,5.1-13.1,7.6-19.7c1.7-4.4,3.4-8.8,5.1-13.2c0.1-0.2,0.1-0.4,0.2-0.7c-0.4,0-0.7,0-1-0.1
			c-11.5,0-23,0-34.4,0c-0.3,0-0.6,0-0.9,0c-0.8,0-0.8,0-1.1,0.8c-1.3,3.5-2.7,7.1-4,10.6c-2.8,7.4-5.7,14.8-8.6,22.3
			c-0.4,1-0.8,2.1-1.2,3.1c-0.3,0.8-0.3,0.8-1.1,0.8c-6.1,0-12.3,0-18.4,0c-16.3,0-32.7,0-49,0c-0.3,0-0.6,0-1,0
			c0.2-0.9,0.5-1.6,0.8-2.3c0.1-0.2,0.5-0.3,0.8-0.3c1.9,0,3.8,0,5.8,0c1.9,0,3.8,0,5.8,0c1.3,0,1,0,1.4-1c1.9-4.8,3.7-9.6,5.6-14.5
			c3.8-10,7.7-19.9,11.5-29.9c2.8-7.3,5.6-14.6,8.4-21.9c3.3-8.6,6.6-17.2,9.9-25.8c0.6-1.4,1.1-2.9,1.7-4.3
			c0.1-0.2,0.1-0.4,0.2-0.7c-1.1-0.2-2.2-0.1-3.3-0.1c-1.1,0-2.2,0-3.2,0c-1.1,0-2.2,0-3.2,0c-1.1,0-2.2,0-3.4,0
			c0.2-0.9,0.5-1.6,0.8-2.3c0.1-0.1,0.3-0.2,0.5-0.2c0.3,0,0.6,0,0.9,0c9,0,17.9,0,26.9,0c0.3,0,0.6,0,1,0c-0.2,0.9-0.6,1.6-0.9,2.3
			c-0.1,0.1-0.3,0.2-0.5,0.2c-0.2,0-0.4,0-0.6,0c-3.8,0-7.6,0-11.3,0c-0.9,0-0.9,0-1.2,0.8c-3.9,10-7.7,20-11.6,30
			c-4.8,12.4-9.5,24.8-14.3,37.2c-3.7,9.7-7.5,19.4-11.2,29.1C72,286.7,71.9,287.1,71.7,287.6z" />
    </g>
  </g>
  <g></g>
  <g></g>
  <g></g>
  <g></g>
  <g></g>
  <g></g>
  <g></g>
  <g></g>
  <g></g>
  <g></g>
  <g></g>
  <g></g>
  <g></g>
  <g></g>
  <g></g>
</svg>