<?xml version="1.0" encoding="iso-8859-1"?>
<!-- Generator: Adobe Illustrator 23.0.1, SVG Export Plug-In . SVG Version: 6.00 Build 0)  -->
<svg version="1.1" id="Layer_1" xmlns="http://www.w3.org/2000/svg" xmlns:xlink="http://www.w3.org/1999/xlink" x="0px" y="0px" width="365.2px" height="365.2px" viewBox="0 0 365.2 365.2" enable-background="new 0 0 365.2 365.2" xml:space="preserve">
  <g>
    <g>
      <path fill-rule="evenodd" clip-rule="evenodd" fill="#FFFFFF" d="M2.3,182.6C2.3,83,83,2.3,182.6,2.3
			c99.6,0,180.3,80.7,180.3,180.3c0,99.6-80.7,180.3-180.3,180.3C83,362.9,2.3,282.2,2.3,182.6z M182.6,320.9
			c76.4,0,138.3-61.9,138.3-138.3c0-76.4-61.9-138.3-138.3-138.3c-76.4,0-138.3,61.9-138.3,138.3C44.3,259,106.2,320.9,182.6,320.9z
			" />
      <path fill="#FFFFFF" d="M182.6,365.2C81.9,365.2,0,283.3,0,182.6C0,81.9,81.9,0,182.6,0c100.7,0,182.6,81.9,182.6,182.6
			C365.2,283.3,283.3,365.2,182.6,365.2z M182.6,4.5C84.4,4.5,4.5,84.4,4.5,182.6c0,98.2,79.9,178.1,178.1,178.1
			c98.2,0,178.1-79.9,178.1-178.1C360.7,84.4,280.8,4.5,182.6,4.5z M182.6,323.2C105.1,323.2,42,260.1,42,182.6
			C42,105.1,105.1,42,182.6,42c77.5,0,140.6,63.1,140.6,140.6C323.2,260.1,260.1,323.2,182.6,323.2z M182.6,46.6
			c-75,0-136,61-136,136c0,75,61,136,136,136c75,0,136-61,136-136C318.6,107.6,257.6,46.6,182.6,46.6z" />
    </g>
    <g id="XMLID_4_">
      <g>
        <path d="M156.2,147.3H73.3l67.1,48.7c0.3,0.2,0.4,0.6,0.3,0.9L115,275.9l67.1-48.8c0.2-0.1,0.3-0.2,0.5-0.2
				c0.2,0,0.3,0.1,0.5,0.2l67.1,48.8L224.6,197c-0.1-0.3,0-0.7,0.3-0.9l67.1-48.7h-83c-0.3,0-0.7-0.2-0.8-0.6l-25.7-78.9L157,146.8
				C156.9,147.1,156.6,147.3,156.2,147.3z M140.2,196.3l-67.7-49.2h83.7c0.2,0,0.5-0.2,0.5-0.4l25.9-79.6l25.9,79.6
				c0.1,0.2,0.3,0.4,0.5,0.4h83.7L225,196.3c-0.2,0.2-0.3,0.4-0.2,0.6l25.9,79.6l-67.7-49.2c-0.1-0.1-0.2-0.1-0.3-0.1
				s-0.2,0-0.3,0.1l-67.7,49.2l25.9-79.6C140.5,196.7,140.4,196.5,140.2,196.3z" />
        <path d="M72.3,147.3c-0.1-0.1-0.1-0.2-0.1-0.3c0-0.1,0.1-0.2,0.2-0.2h83.7c0.1,0,0.2-0.1,0.3-0.2L182.4,67c0.1-0.2,0.4-0.2,0.5,0
				l25.9,79.6c0,0.1,0.2,0.2,0.3,0.2h83.7c0.1,0,0.2,0.1,0.2,0.2c0,0.1,0,0.2-0.1,0.3l-67.7,49.2c-0.1,0.1-0.2,0.2-0.1,0.3
				l25.9,79.6c0,0.1,0,0.2-0.1,0.3c0,0-0.1,0-0.2,0c0,0-0.1,0-0.1,0l-67.7-49.2c-0.1-0.1-0.3-0.1-0.4,0l-67.7,49.2
				c-0.1,0.1-0.2,0.1-0.3,0c-0.1-0.1-0.1-0.2-0.1-0.3l25.9-79.6c0-0.1,0-0.3-0.1-0.3L72.3,147.3z M72.5,147.1l67.7,49.2
				c0.2,0.2,0.3,0.4,0.2,0.6l-25.9,79.6l67.7-49.2c0.1-0.1,0.2-0.1,0.3-0.1s0.2,0,0.3,0.1l67.7,49.2l-25.9-79.6
				c-0.1-0.2,0-0.5,0.2-0.6l67.7-49.2H209c-0.2,0-0.5-0.2-0.5-0.4l-25.9-79.6l-25.9,79.6c-0.1,0.2-0.3,0.4-0.5,0.4H72.5z" />
        <path d="M72.5,146.8c-0.1,0-0.2,0.1-0.2,0.2c0,0.1,0,0.2,0.1,0.3l67.7,49.2c0.1,0.1,0.2,0.2,0.1,0.3l-25.9,79.6
				c0,0.1,0,0.2,0.1,0.3c0.1,0.1,0.2,0.1,0.3,0l67.7-49.2c0.1-0.1,0.2-0.1,0.4,0l67.7,49.2c0,0,0.1,0,0.1,0c0.1,0,0.1,0,0.2,0
				c0.1-0.1,0.1-0.2,0.1-0.3L225,196.8c0-0.1,0-0.3,0.1-0.3l67.7-49.2c0.1-0.1,0.1-0.2,0.1-0.3c0-0.1-0.1-0.2-0.2-0.2H209
				c-0.1,0-0.2-0.1-0.3-0.2L182.8,67c-0.1-0.2-0.4-0.2-0.5,0l-25.9,79.6c-0.1,0.1-0.2,0.2-0.3,0.2H72.5z M70.6,146.8
				c-0.1-0.1-0.2-0.2-0.1-0.3c0-0.1,0.2-0.2,0.3-0.2h85c0.1,0,0.2-0.1,0.2-0.2l26.3-80.9c0.1-0.2,0.5-0.2,0.6,0l26.3,80.9
				c0,0.1,0.1,0.2,0.2,0.2h85c0.1,0,0.3,0.1,0.3,0.2c0,0.1,0,0.3-0.1,0.3l-68.8,50c-0.1,0.1-0.1,0.2-0.1,0.3l26.3,80.9
				c0,0.1,0,0.3-0.1,0.3c-0.1,0.1-0.3,0.1-0.4,0l-68.8-50c0,0-0.1,0-0.2,0c-0.1,0-0.1,0-0.2,0l-68.8,50c-0.1,0.1-0.3,0.1-0.4,0
				c-0.1-0.1-0.2-0.2-0.1-0.3l26.3-80.9c0-0.1,0-0.2-0.1-0.3L70.6,146.8z" />
        <path d="M139.3,197l-68.8-50c-0.2-0.2-0.3-0.4-0.2-0.6s0.3-0.4,0.5-0.4h85l26.3-80.8c0.2-0.5,0.9-0.5,1.1,0l26.3,80.8h85
				c0.2,0,0.5,0.2,0.5,0.4s0,0.5-0.2,0.6L226,197l26.3,80.9c0.1,0.2,0,0.5-0.2,0.6c-0.1,0.1-0.2,0.1-0.3,0.1s-0.2,0-0.3-0.1
				l-68.8-50l-68.8,50c-0.2,0.1-0.5,0.1-0.7,0c-0.2-0.2-0.3-0.4-0.2-0.6L139.3,197z M70.5,146.4c0,0.1,0,0.3,0.1,0.3l68.8,50
				c0.1,0.1,0.1,0.2,0.1,0.3l-26.3,80.9c0,0.1,0,0.3,0.1,0.3c0.1,0.1,0.2,0.1,0.4,0l68.8-50c0.1,0,0.1,0,0.2,0c0.1,0,0.1,0,0.2,0
				l68.8,50c0.1,0.1,0.2,0.1,0.4,0c0.1-0.1,0.2-0.2,0.1-0.3L225.7,197c0-0.1,0-0.2,0.1-0.3l68.8-50c0.1-0.1,0.2-0.2,0.1-0.3
				c0-0.1-0.2-0.2-0.3-0.2h-85c-0.1,0-0.2-0.1-0.2-0.2l-26.3-80.9c-0.1-0.2-0.5-0.2-0.6,0L156,146.1c0,0.1-0.1,0.2-0.2,0.2h-85
				C70.6,146.2,70.5,146.3,70.5,146.4z" />
        <path d="M70.3,147.2c-0.3-0.2-0.4-0.6-0.3-0.9c0.1-0.3,0.4-0.6,0.8-0.6h84.8l26.2-80.7c0.1-0.3,0.4-0.5,0.8-0.5
				c0.4,0,0.7,0.2,0.8,0.5l26.2,80.7h84.8c0.4,0,0.7,0.2,0.8,0.6c0.1,0.3,0,0.7-0.3,0.9l-68.6,49.9l26.2,80.7c0.1,0.3,0,0.7-0.3,0.9
				c-0.3,0.2-0.7,0.2-0.9,0l-68.6-49.9L114,278.6c-0.1,0.1-0.3,0.2-0.5,0.2s-0.3-0.1-0.5-0.2c-0.3-0.2-0.4-0.6-0.3-0.9l26.2-80.7
				L70.3,147.2z M70.5,147l68.8,50L113,277.8c-0.1,0.2,0,0.5,0.2,0.6c0.2,0.1,0.5,0.1,0.7,0l68.8-50l68.8,50
				c0.1,0.1,0.2,0.1,0.3,0.1s0.2,0,0.3-0.1c0.2-0.2,0.3-0.4,0.2-0.6L226,197l68.8-50c0.2-0.2,0.3-0.4,0.2-0.6s-0.3-0.4-0.5-0.4h-85
				l-26.3-80.8c-0.2-0.5-0.9-0.5-1.1,0L155.8,146h-85c-0.2,0-0.5,0.2-0.5,0.4S70.3,146.8,70.5,147z" />
      </g>
      <g></g>
    </g>
  </g>
  <path fill-rule="evenodd" clip-rule="evenodd" fill="#0C2340" d="M2.7,182.6C2.7,83,83.4,2.3,183,2.3c99.6,0,180.3,80.7,180.3,180.3
	c0,99.6-80.7,180.3-180.3,180.3C83.4,362.9,2.7,282.2,2.7,182.6z M183,320.9c76.4,0,138.3-61.9,138.3-138.3
	c0-76.4-61.9-138.3-138.3-138.3c-76.4,0-138.3,61.9-138.3,138.3C44.7,259,106.6,320.9,183,320.9z" />
  <g id="XMLID_3_">
    <g>
      <polygon fill="#869397" points="294.8,146.5 225.7,196.8 252.1,278 183,227.8 113.9,278 140.3,196.8 71.2,146.5 156.6,146.5 
			183,65.3 209.4,146.5 		" />
    </g>
    <g>
      <path fill="#0C2340" d="M264.8,295.4L183,236l-81.7,59.4l31.2-96.1l-81.7-59.4h101L183,43.8l31.2,96.1h101l-81.7,59.4L264.8,295.4
			z M91.6,153.2l56.5,41l-21.6,66.4l56.5-41l56.5,41l-21.6-66.4l56.5-41h-69.8L183,86.8l-21.6,66.4H91.6z" />
    </g>
  </g>
  <g>
    <path fill="#FFFFFF" d="M80.3,322.1c-0.6-0.5-1-1.2-1.3-2.4c-0.3-1.1-0.2-1.9,0.3-2.5l2.4-3.1c0.3-0.4,0.4-1,0.2-1.7
		c-0.2-0.7-0.5-1.3-0.9-1.6l-3.1-2.4l-2.2,2.7c-0.6,0.7-0.7,1.4-0.4,1.9c0.1,0.1,0.6,0.6,1.7,1.5l-2.4,3.1l-13.4-10.6l2.4-3.1
		c1.7,1.5,2.9,2,3.7,1.7c0.3-0.1,1-0.8,2-2.1c0.9-1.1,1.4-1.9,1.6-2.2c0.3-0.8,0.2-1.7-0.3-2.5c0.9,0.4,1.8,0.3,2.7-0.4
		c0.1-0.1,0.6-0.7,1.5-1.8c1-1.2,1.5-2,1.6-2.2c0.2-0.6-0.3-1.3-1.4-2.2c-0.2-0.2-0.4-0.3-0.6-0.5c-0.2-0.2-0.5-0.3-0.7-0.5l2.4-3.1
		l17.5,13.8c1.4,1.1,2.5,2.5,3.3,4.2c1,2.2,1.1,4.3,0.3,6.2c-0.1,0.2-0.1,0.7,0.1,1.4c-0.7,0.2-1.3,0.3-2,0.5
		c-0.6,0.2-1.2,0.3-1.8,0.4c-1.9,0.4-3.4,0.2-4.5-0.6c0.6,0.7,1,1.5,1.4,2.4c0.6,1.4,0.6,2.5,0,3.3l-2,2.5c-0.2,0.3-0.2,0.8,0.2,1.4
		c0.3,0.4,0.5,0.7,0.7,0.9c0.1,0.1,0.2,0.2,0.3,0.2l-2.4,3.1L80.3,322.1z M89,304.6c0-0.8-0.3-1.4-0.9-1.8l-3.3-2.6l-3.6,4.6
		l3.4,2.7c0.5,0.4,1.2,0.5,2,0.3c0.7-0.2,1.3-0.5,1.8-1.1C88.8,306,89,305.4,89,304.6z" />
    <path fill="#FFFFFF" d="M108.6,338.6l1.7-3.6c0.4,0.2,0.8,0.4,1.1,0.5c0.3,0.1,0.5,0.2,0.6,0.2c0.8,0.2,1.4-0.1,1.7-0.8
		c0.2-0.4,0.2-0.9,0.1-1.6l-8.5-3.9c-0.6,0.5-1,0.9-1.2,1.2c-0.4,0.8-0.1,1.5,1,1.9l1.9,0.9l-1.7,3.6l-12.9-6l1.7-3.6
		c0.1,0.1,0.3,0.1,0.5,0.3c0.3,0.1,0.5,0.3,0.9,0.5c0.8,0.4,1.7,0.3,2.7-0.2c0.3-0.1,0.6-0.4,1-0.7c0.4-0.3,0.8-0.7,1.3-1.1
		c1.3-1.1,2-1.9,2.2-2.4c0.2-0.5,0.2-1-0.1-1.6c1.2,0.4,2.7-0.1,4.5-1.5c1.6-1.2,2.6-2.2,3-3.1c-0.3-0.6-0.7-0.9-1.1-1.1l-2.4-1.1
		l1.7-3.6l20.7,9.6l-1.7,3.6c-0.4-0.2-0.7-0.4-1-0.5c-0.3-0.1-0.4-0.2-0.5-0.3c-0.6-0.2-1.3-0.3-1.8-0.2c-0.4,1.5-0.6,3-0.5,4.6
		c0.1,2.2,0.7,3.5,1.7,4c-0.6,0.2-1,0.7-1.4,1.5c-0.3,0.6-0.4,1.8-0.5,3.6c-0.1,1.9,0.1,3,0.4,3.4c0.3,0.3,1.1,0.7,2.4,1.3l-1.7,3.6
		L108.6,338.6z M114.2,321.8l-5.2,4.4l5.2,2.4L114.2,321.8z" />
    <path fill="#FFFFFF" d="M162.5,334.5c-0.2,0.2-0.5,1.1-0.8,2.8c-0.2,1.2-0.4,1.9-0.4,2.3c0,0.9,0.5,1.6,1.3,2.2
		c-0.2,0-0.7,0.2-1.3,0.6c-0.5,0.4-0.8,0.8-0.9,1.1l-2,10.1l-11.1-2.2l-3.9-17.8l-2.2,11.1c-0.1,0.8,0.3,1.3,1.4,1.7
		c0.6,0.2,1.1,0.3,1.8,0.4l-0.8,3.9l-12.2-2.4l0.8-3.9c0.2,0.1,0.4,0.1,0.5,0.2c0.2,0,0.3,0.1,0.5,0.1c1.2,0.2,2.1,0,2.5-0.7
		c0.1-0.2,0.3-1.1,0.6-2.6c0.1-0.7,0.2-1.3,0.3-1.7c0.1-0.4,0.1-0.7,0.1-0.9c0-1.1-0.5-1.8-1.4-2.3c1.1-0.3,1.8-0.8,2.2-1.6
		c0-0.1,0.2-0.9,0.5-2.3c0.3-1.7,0.5-2.6,0.4-2.8c-0.2-0.6-1.3-1-3.1-1.3l0.8-3.9l15.3,3l3.7,16.5l2-10c0.2-1-0.7-1.7-2.7-1.9
		l0.8-3.9l11.8,2.4l-0.8,3.9C164.3,334,163,334,162.5,334.5z" />
    <path fill="#FFFFFF" d="M198.2,345.7c-0.9,0.2-1.3,0.5-1.3,1.1l0.1,7.8l-6.1,0.1c-0.1-0.5-0.5-0.9-1-1.3c-2.5,1.2-4.8,1.8-6.9,1.9
		c-4.8,0.1-8.3-1.3-10.7-4.1c-0.6-0.7-1.2-2.2-1.9-4.6c-0.7-2.1-1.5-3.5-2.5-4.2c1.3-0.8,2.1-2.2,2.5-4.2c1.1-5.6,5.1-8.4,12.2-8.5
		c3.2-0.1,5.7,0.5,7.5,1.6c0.1-0.2,0.1-0.6,0.1-1l6.5-0.1l0.2,9.2l-7.6,0.1c-0.1-3.5-1.7-5.3-4.8-5.2c-2.9,0-4.3,1.6-4.3,4.6
		c0,1.7,0.5,2.8,1.5,3.2c-1.1,1-1.6,2.3-1.6,3.9c0,1.4,0.4,2.5,1.1,3.4c0.7,0.8,1.8,1.3,3.2,1.2c2.5,0,3.7-1.1,3.7-3.2
		c0-1.1-0.7-1.6-2.2-1.6c-0.2,0-0.3,0-0.5,0c-0.2,0-0.3,0-0.5,0.1l-0.1-3.9l15.1-0.2l0.1,3.9L198.2,345.7z" />
    <path fill="#FFFFFF" d="M224.2,334.2l-0.8-3.2c-0.2-0.6-0.8-1-2-1.2c-0.9-0.1-1.6-0.1-2.1,0l-3.1,0.7l1.4,5.6l5.3-1.3l1.1,4.5
		l-5.3,1.3l1.3,5.5l4.5-1.1c1.6-0.4,2.1-1.9,1.5-4.6c0-0.1,0-0.2-0.1-0.4c-0.1-0.2-0.1-0.5-0.3-0.9l6.5-1.6l2.2,9.2l-27.6,6.7
		l-0.9-3.8l3.2-0.8c0.8-0.2,1.1-0.9,0.9-2l-0.5-2c-0.4-1.5-0.6-2.3-0.6-2.4c-0.4-0.9-1.1-1.4-2.2-1.6c0.8-0.6,1.2-1.3,1.2-2.2
		c0-0.3-0.2-1.1-0.4-2.2c-0.4-1.6-0.8-2.5-1.1-2.7c-0.7-0.5-2.1-0.4-4.3,0.2l-0.9-3.8l27.8-6.7l2.2,9.3L224.2,334.2z" />
    <path fill="#FFFFFF" d="M265.3,332.9c-0.7,0.3-1.6,0.4-2.7,0.2c-1.1-0.2-1.8-0.7-2.1-1.3l-1.8-3.5c-0.2-0.4-0.7-0.7-1.5-0.9
		c-0.8-0.1-1.4-0.1-1.8,0.1l-3.5,1.8l1.6,3.1c0.4,0.8,0.9,1.2,1.5,1.2c0.1,0,0.8-0.3,2.1-0.9l1.8,3.5l-15.2,7.8l-1.8-3.5
		c2-0.9,3.1-1.8,3.1-2.6c0.1-0.3-0.3-1.2-1.1-2.7c-0.7-1.3-1.1-2.1-1.3-2.3c-0.6-0.6-1.4-0.9-2.4-0.8c0.8-0.6,1-1.5,0.7-2.6
		c0-0.1-0.4-0.8-1-2.1c-0.7-1.4-1.2-2.2-1.4-2.4c-0.5-0.4-1.3-0.3-2.6,0.4c-0.2,0.1-0.4,0.2-0.7,0.4c-0.2,0.1-0.5,0.3-0.7,0.5
		l-1.8-3.5l19.9-10.1c1.6-0.8,3.3-1.2,5.2-1.2c2.5,0,4.4,0.8,5.8,2.3c0.1,0.2,0.6,0.4,1.3,0.5c-0.1,0.7-0.3,1.4-0.4,2
		c-0.1,0.6-0.3,1.2-0.4,1.8c-0.5,1.9-1.3,3.2-2.4,3.8c0.9-0.2,1.8-0.3,2.7-0.2c1.5,0.1,2.5,0.6,3,1.4l1.4,2.8
		c0.2,0.4,0.6,0.5,1.3,0.4c0.5-0.1,0.8-0.2,1.1-0.3c0.1-0.1,0.2-0.1,0.3-0.2l1.8,3.5L265.3,332.9z M253,317.7c-0.7-0.3-1.4-0.3-2,0
		l-3.7,1.9l2.7,5.2l3.9-2c0.6-0.3,0.9-0.9,1.1-1.8c0.1-0.7,0.1-1.4-0.3-2.1C254.3,318.4,253.8,317.9,253,317.7z" />
    <path fill="#FFFFFF" d="M295.6,309.6c-0.9,2.2-2.4,4.2-4.5,5.9c-2.4,2-5.1,3.1-8,3.5c0.1,0.3,0.2,0.5,0.4,0.7
		c0.2,0.2,0.4,0.4,0.7,0.6l-5.4,4.4l-4.6-5.7l6.2-5c1.6,1.5,3.7,1.2,6.4-1.1c2.1-1.7,2.8-3,2.1-3.9c-0.8-1-2-0.8-3.5,0.5
		c-1.3,1.1-1.8,2-1.5,2.9c-1.1-0.4-2.1-0.4-2.9-0.1c-0.6,0.2-1.3,0.6-2.2,1.3c-0.5,0.4-0.9,0.7-1.3,0.9c-0.4,0.2-0.7,0.4-0.9,0.5
		c-3.1,1.2-5.7,0.5-7.8-2c-2-2.4-2.4-5.2-1.2-8.3c0.9-2.5,2.5-4.6,4.7-6.4c2.3-1.8,4.7-2.9,7.3-3.1c-0.1-0.3-0.3-0.7-0.8-1.2
		l4.7-3.8l5,6.1l-5.2,4.2c-1.2-1.2-2.3-1.7-3.4-1.6c-1,0.1-2.1,0.7-3.5,1.8c-2,1.6-2.5,2.9-1.7,4c0.9,1.2,2.3,1,4.1-0.5
		c0.8-0.6,1.3-1.5,1.4-2.4c1,0.5,2.2,0.4,3.6-0.4c0.3-0.2,0.7-0.4,1.2-0.7c0.5-0.3,1.1-0.6,1.8-1c1.8-0.5,3.2-0.6,4.3-0.4
		c1.2,0.3,2.4,1.1,3.5,2.5C296.4,304.1,296.8,306.7,295.6,309.6z" />
  </g>
  <ellipse transform="matrix(0.2246 -0.9745 0.9745 0.2246 -36.3433 319.5439)" fill-rule="evenodd" clip-rule="evenodd" fill="none" cx="182.6" cy="182.6" rx="138.3" ry="138.3" />
  <circle fill-rule="evenodd" clip-rule="evenodd" fill="none" cx="181.2" cy="182.6" r="178.4" />
  <g>
    <path fill="#FFFFFF" d="M60.2,98.6l-3-2.6l2.2-2.6c0.6-0.8,0.3-1.7-0.9-2.8l-0.6-0.5l-0.4-0.3c-1-0.8-1.6-1.3-1.9-1.5
		c-0.9-0.6-1.9-0.6-2.7-0.1c0.2-1.4-0.1-2.5-1.1-3.4c-0.1-0.1-0.3-0.2-0.5-0.4c-0.2-0.2-0.4-0.3-0.5-0.4l-0.5-0.4
		c-0.1-0.1-0.2-0.2-0.3-0.3c-0.1-0.1-0.2-0.2-0.2-0.2c-1.1-0.9-2-1-2.8-0.1l-2,2.4l-3-2.6l12.5-14.7l3,2.6c-0.2,0.2-0.4,0.4-0.6,0.6
		c-0.2,0.2-0.3,0.4-0.5,0.5c-1,1.2-1.4,2-1.1,2.6c0.1,0.4,0.8,1,2,2c0.9,0.8,1.5,1.2,1.8,1.3c0.8,0.4,1.7,0.4,2.7-0.1
		c-0.1,0.2-0.2,0.7-0.1,1.5c0.1,0.7,0.2,1.1,0.4,1.3l4.7,4c0.1-0.1,0.2-0.2,0.4-0.3c0.2-0.2,0.3-0.4,0.6-0.6
		c0.7-0.8,1.1-1.7,1.3-2.5c0.2-1.1,0-2-0.7-2.6l-2.6-2.2l4.6-5.4l7.9,6.7L60.2,98.6z" />
    <path fill="#FFFFFF" d="M97.8,49.2c1.6,3.7,1.9,7,0.9,10c-1,2.7-3.1,5.3-6.4,7.8c0.2-0.2,0,0-0.6,0.4c-0.6,0.4-1.6,1.1-3.1,2
		c-2,1.4-4.4,1.9-7.1,1.7c-2.7-0.3-5-1.3-6.7-3c-0.5-0.5-1.2-0.9-2-1.2c-0.1,0-0.3-0.1-0.6,0c-0.3,0-0.7,0-1.2,0.1
		c0.4-1.2,0.4-2.5-0.2-4c-0.8-2.1-1.2-3.3-1.2-3.7c-0.4-4.4,1.9-8.5,7-12.4c6.5-5,12.4-5.4,17.7-1.3c0.3,0.3,0.9,0.5,1.6,0.7
		c0.8,0.2,1.4,0.3,1.7,0.3C97.5,47.1,97.6,48,97.8,49.2z M86.4,55c0.4-1.4,0.2-2.7-0.8-4c-1.7-2.2-3.7-2.5-6.1-0.7
		c-2.3,1.8-2.5,3.8-0.8,6.1c0.5,0.7,0.9,1.1,1.2,1.2c0.5,0.3,1.3,0.5,2.4,0.5c-0.3,0.6-0.4,1.3-0.2,2.1c0.2,0.8,0.5,1.5,1,2.1
		c0.9,1.1,1.9,1.8,3.1,2c1.2,0.2,2.4-0.1,3.5-1c2.3-1.8,2.5-3.9,0.6-6.3C89.1,55.4,87.8,54.7,86.4,55z" />
    <path fill="#FFFFFF" d="M123.3,26.5c-0.1,0.3,0.2,1.2,0.9,2.7c0.5,1.1,0.8,1.8,1,2c0.5,0.7,1.3,1,2.3,1.1c-0.2,0.1-0.4,0.6-0.7,1.3
		c-0.2,0.6-0.2,1.1-0.1,1.4l4.2,9.4l-10.3,4.7l-13.5-12.2l4.7,10.3c0.3,0.7,1,0.9,2.1,0.5c0.6-0.2,1.1-0.4,1.7-0.7l1.6,3.6
		l-11.3,5.1l-1.6-3.6c0.2,0,0.4-0.1,0.5-0.2c0.2-0.1,0.3-0.1,0.5-0.2c1.2-0.5,1.7-1.2,1.6-2.1c0-0.3-0.4-1.1-1-2.5
		c-0.3-0.6-0.5-1.2-0.7-1.5c-0.2-0.4-0.3-0.6-0.4-0.8c-0.6-0.9-1.5-1.2-2.5-1.1c0.7-0.9,1-1.7,0.9-2.6c0-0.1-0.3-0.8-0.9-2.2
		c-0.7-1.6-1.2-2.4-1.3-2.5c-0.5-0.3-1.6-0.1-3.3,0.8L96,33.7l14.2-6.4l12.6,11.3l-4.2-9.3c-0.4-1-1.5-0.9-3.2,0l-1.6-3.6l11-5
		l1.6,3.6C124.4,25.2,123.4,25.9,123.3,26.5z" />
    <path fill="#FFFFFF" d="M154.3,23.5l-0.7-3.2c-0.1-0.6-0.8-1.1-1.9-1.3c-0.9-0.2-1.6-0.2-2.1-0.1l-3.1,0.6l1.2,5.7l5.3-1.1l0.9,4.6
		l-5.3,1.1l1.1,5.6l4.6-0.9c1.6-0.3,2.2-1.9,1.6-4.6c0-0.1,0-0.2-0.1-0.4c0-0.2-0.1-0.5-0.2-0.9l6.6-1.4l1.9,9.2l-27.8,5.8l-0.8-3.9
		l3.2-0.7c0.8-0.2,1.1-0.8,1-2l-0.4-2c-0.3-1.5-0.5-2.4-0.6-2.4c-0.4-0.9-1.1-1.5-2.1-1.6c0.8-0.6,1.3-1.3,1.3-2.2
		c0-0.3-0.1-1.1-0.4-2.2c-0.3-1.6-0.7-2.5-1-2.8c-0.6-0.5-2.1-0.5-4.3,0l-0.8-3.9l28-5.8l1.9,9.3L154.3,23.5z" />
    <path fill="#FFFFFF" d="M221.4,40c-2.3,0.7-4.7,0.7-7.4,0.1c-3-0.7-5.6-2-7.8-4.1c-0.2,0.3-0.3,0.5-0.3,0.8
		c-0.1,0.3-0.1,0.6-0.1,0.9l-6.9-1.5l1.6-7.1l7.8,1.7c-0.2,2.2,1.4,3.6,4.8,4.4c2.7,0.6,4.1,0.3,4.4-0.8c0.3-1.2-0.6-2-2.6-2.5
		c-1.7-0.4-2.7-0.1-3.2,0.6c-0.4-1.1-1-1.9-1.7-2.4c-0.5-0.3-1.3-0.6-2.4-0.9c-0.6-0.2-1.1-0.3-1.5-0.5c-0.4-0.2-0.7-0.3-0.9-0.4
		c-2.9-1.7-4-4.1-3.3-7.4c0.7-3.1,2.6-5.1,5.8-6.1c2.5-0.8,5.1-0.9,8-0.3c2.8,0.6,5.2,1.9,7,3.8c0.2-0.2,0.3-0.7,0.4-1.4l5.9,1.3
		l-1.7,7.7l-6.6-1.4c0.2-1.7-0.1-2.9-0.9-3.7c-0.7-0.7-1.9-1.2-3.6-1.6c-2.5-0.5-3.9-0.1-4.2,1.2c-0.3,1.5,0.7,2.4,3,2.9
		c1,0.2,1.9,0.1,2.8-0.4c0.2,1.1,1.1,2,2.6,2.6c0.3,0.1,0.7,0.3,1.3,0.5c0.5,0.2,1.2,0.5,1.9,0.8c1.5,1.1,2.5,2.1,3,3.1
		c0.5,1.1,0.6,2.6,0.2,4.3C226.2,37.1,224.4,39,221.4,40z" />
    <path fill="#FFFFFF" d="M250.5,37l1.6-3.8c0.1-0.3,0.1-0.6-0.1-1c-0.1-0.4-0.3-0.7-0.5-0.8l-1-0.4l-2.3,5.3c0,0.1,0,0.3,0,0.5
		c0.1,0.2,0.2,0.5,0.3,0.8c0.1,0.3,0.2,0.5,0.4,0.8c0.1,0.2,0.2,0.4,0.3,0.6c-1-0.2-1.8,0.2-2.5,1.2c-0.1,0.1-0.4,0.8-1,2.2
		c-0.6,1.5-1,2.3-1,2.6c0,0.8,0.7,1.5,2.1,2.1c0.2,0.1,0.4,0.2,0.6,0.3c0.2,0.1,0.4,0.2,0.7,0.2l-1.6,3.6l-16.1-6.9l1.6-3.6
		c1.4,0.6,2.2,0.9,2.3,0.9c1.1,0.3,1.8,0.2,2.2-0.4l1-2.3c0.6-1.4,0.9-2.2,1-2.5c0.1-0.8-0.1-1.6-0.8-2.4c1.5-0.4,2.3-0.9,2.4-1.2
		l2.2-5.1c0-0.1-0.2-0.2-0.6-0.3c-1.1-0.5-1.7-0.3-2,0.3l-1.8,4.1l-6.5-2.8l3.8-8.9l25.6,11l-3.8,8.9L250.5,37z" />
    <path fill="#FFFFFF" d="M265.6,62.7l2.3-3.2c0.4,0.3,0.7,0.5,1,0.7c0.2,0.2,0.4,0.3,0.6,0.3c0.8,0.3,1.4,0.2,1.8-0.5
		c0.3-0.4,0.4-0.9,0.4-1.5l-7.6-5.4c-0.7,0.4-1.2,0.7-1.4,1c-0.5,0.7-0.3,1.4,0.6,2.1l1.7,1.2l-2.3,3.2L251,52.4l2.3-3.2
		c0.1,0.1,0.3,0.2,0.5,0.4c0.2,0.2,0.5,0.4,0.8,0.6c0.7,0.5,1.6,0.6,2.7,0.3c0.3-0.1,0.7-0.3,1.1-0.5c0.4-0.2,0.9-0.5,1.5-0.9
		c1.5-0.9,2.3-1.5,2.6-1.9c0.3-0.5,0.4-1,0.2-1.6c1.1,0.6,2.7,0.4,4.7-0.6c1.7-0.8,2.9-1.7,3.5-2.5c-0.2-0.6-0.5-1-0.9-1.3l-2.2-1.6
		l2.3-3.2l18.6,13.2l-2.3,3.2c-0.3-0.3-0.6-0.5-0.9-0.7c-0.2-0.2-0.4-0.3-0.5-0.4c-0.6-0.3-1.2-0.5-1.8-0.6
		c-0.7,1.4-1.1,2.9-1.3,4.5c-0.3,2.2,0,3.6,1,4.3c-0.6,0.1-1.1,0.5-1.6,1.2c-0.4,0.5-0.7,1.6-1.1,3.4c-0.4,1.9-0.5,3-0.2,3.4
		c0.3,0.3,1,0.9,2.1,1.7l-2.3,3.2L265.6,62.7z M274.1,47.2l-5.9,3.4l4.7,3.3L274.1,47.2z" />
    <path fill="#FFFFFF" d="M297.2,92.7c-0.5-0.6-0.7-1.4-0.8-2.6c0-1.1,0.2-1.9,0.8-2.4l3-2.6c0.4-0.3,0.5-0.9,0.5-1.6
		c0-0.8-0.2-1.3-0.6-1.7l-2.5-3l-2.6,2.3c-0.7,0.6-1,1.2-0.8,1.8c0.1,0.1,0.5,0.7,1.4,1.8l-3,2.6l-11.1-13l3-2.6
		c1.4,1.8,2.5,2.6,3.3,2.4c0.3,0,1.1-0.6,2.4-1.7c1.1-0.9,1.8-1.6,2-1.9c0.5-0.7,0.6-1.6,0.2-2.5c0.8,0.6,1.7,0.7,2.7,0.1
		c0.1,0,0.7-0.5,1.8-1.5c1.2-1,1.9-1.7,2-1.9c0.3-0.5,0-1.4-1-2.5c-0.2-0.2-0.3-0.4-0.5-0.6c-0.2-0.2-0.4-0.4-0.6-0.6l3-2.6l14.5,17
		c1.2,1.4,2,3,2.4,4.8c0.6,2.4,0.3,4.4-0.9,6.2c-0.2,0.2-0.2,0.7-0.1,1.4c-0.7,0-1.4,0.1-2,0.1c-0.7,0-1.3,0-1.9,0
		c-2,0-3.4-0.5-4.3-1.4c0.4,0.8,0.7,1.7,0.9,2.6c0.3,1.5,0,2.6-0.7,3.2l-2.4,2.1c-0.3,0.3-0.3,0.7,0,1.4c0.2,0.5,0.4,0.8,0.5,1
		c0.1,0.1,0.2,0.2,0.3,0.3l-3,2.6L297.2,92.7z M309.1,77.1c0.1-0.8-0.1-1.4-0.5-2l-2.7-3.2l-4.4,3.8l2.8,3.3c0.4,0.5,1.1,0.7,2,0.6
		c0.7,0,1.4-0.3,1.9-0.7C308.7,78.5,309,77.9,309.1,77.1z" />
  </g>
  <g></g>
  <g></g>
  <g></g>
  <g></g>
  <g></g>
  <g></g>
  <g></g>
  <g></g>
  <g></g>
  <g></g>
  <g></g>
  <g></g>
  <g></g>
  <g></g>
  <g></g>
</svg>